<svg width="754" height="708" viewBox="0 0 754 708" fill="none" xmlns="http://www.w3.org/2000/svg">
<path d="M659.491 136.247C667.164 128.686 671.939 118.671 672.983 107.949C662.21 108.873 652.108 113.572 644.462 121.218C636.816 128.865 632.117 138.966 631.193 149.74C641.917 148.704 651.935 143.928 659.491 136.247V136.247Z" fill="#779967"/>
<path d="M689.962 166.868C698.706 157.997 710.343 152.558 722.757 151.539C722.194 140.17 717.425 129.416 709.376 121.367C701.328 113.319 690.574 108.55 679.205 107.987C678.081 120.371 672.65 131.969 663.856 140.763C655.063 149.556 643.465 154.987 631.081 156.111C631.643 167.48 636.413 178.234 644.461 186.282C652.51 194.331 663.264 199.1 674.633 199.663C675.635 187.244 681.077 175.602 689.962 166.868Z" fill="#779967"/>
<path d="M694.347 171.103C701.91 163.427 711.921 158.64 722.644 157.573C721.736 168.352 717.041 178.461 709.392 186.11C701.743 193.759 691.633 198.454 680.854 199.363C681.898 188.652 686.674 178.649 694.347 171.103V171.103Z" fill="#779967"/>
<path d="M201.597 471.543L198.374 459.924L166.179 468.919L167.528 473.717L201.597 471.543Z" fill="#1A5AA8"/>
<path d="M199.536 440.981L155.431 453.328L158.18 463.146L202.284 450.798L199.536 440.981Z" fill="#1A5AA8"/>
<path d="M202.235 450.817L198.374 459.924L166.179 468.919L158.158 463.185L202.235 450.817Z" fill="#1A5AA8"/>
<path d="M232.406 201.912C218.201 164.207 194.514 145.692 170.264 137.371C194.251 152.851 219.25 181.86 224.198 227.885C228.384 263.713 218.344 299.753 196.238 328.257C196.238 328.257 232.331 267.989 209.281 201.724C207.047 195.258 204.276 188.989 200.998 182.984C190.418 163.985 173.748 149.103 153.676 140.737C133.603 132.372 111.298 131.011 90.3567 136.874C69.4158 142.737 51.0601 155.483 38.2494 173.055C25.4388 190.627 18.9201 212.002 19.7444 233.732C20.0378 240.541 20.9155 247.313 22.368 253.972C37.0227 322.56 99.202 355.355 99.202 355.355C65.5094 342.486 38.2062 316.919 23.1551 284.143C3.5156 242.24 9.81224 204.498 22.2931 178.787C5.87684 198.501 -4.76747 226.611 2.69105 266.227C21.431 366.411 130.123 379.829 158.57 444.745L175.211 440.097L191.853 435.412C182.558 365.1 268.274 297.336 232.406 201.912ZM180.421 202.249C181.084 202.061 181.788 202.073 182.444 202.285C183.1 202.496 183.678 202.897 184.106 203.438C184.534 203.978 184.792 204.633 184.848 205.32C184.904 206.007 184.755 206.695 184.42 207.297C184.085 207.899 183.579 208.389 182.965 208.703C182.352 209.018 181.659 209.144 180.975 209.065C180.29 208.986 179.644 208.706 179.119 208.26C178.593 207.814 178.212 207.222 178.022 206.559C177.897 206.119 177.859 205.658 177.911 205.203C177.964 204.748 178.106 204.307 178.328 203.907C178.551 203.507 178.851 203.154 179.21 202.87C179.569 202.585 179.981 202.374 180.421 202.249V202.249ZM190.129 236.918C190.791 236.73 191.495 236.742 192.151 236.954C192.807 237.165 193.386 237.566 193.814 238.107C194.242 238.647 194.5 239.302 194.556 239.989C194.611 240.676 194.462 241.364 194.127 241.966C193.792 242.568 193.286 243.058 192.673 243.372C192.059 243.687 191.367 243.813 190.682 243.734C189.997 243.655 189.352 243.375 188.826 242.929C188.301 242.483 187.919 241.891 187.73 241.228C187.604 240.788 187.566 240.327 187.619 239.872C187.671 239.417 187.813 238.976 188.036 238.576C188.258 238.176 188.558 237.823 188.917 237.539C189.276 237.254 189.688 237.043 190.129 236.918ZM162.206 188.644C162.869 188.455 163.573 188.468 164.229 188.679C164.885 188.891 165.463 189.292 165.891 189.832C166.319 190.373 166.577 191.028 166.633 191.715C166.689 192.402 166.54 193.09 166.205 193.692C165.869 194.294 165.363 194.783 164.75 195.098C164.137 195.413 163.444 195.538 162.76 195.459C162.075 195.38 161.429 195.1 160.903 194.654C160.378 194.208 159.996 193.617 159.807 192.954C159.681 192.514 159.644 192.053 159.696 191.597C159.749 191.142 159.89 190.702 160.113 190.302C160.336 189.901 160.635 189.549 160.994 189.265C161.354 188.98 161.765 188.769 162.206 188.644V188.644ZM171.913 223.313C172.774 223.159 173.661 223.33 174.402 223.793C175.144 224.257 175.686 224.979 175.925 225.82C176.163 226.661 176.08 227.561 175.692 228.345C175.304 229.128 174.638 229.739 173.825 230.059C172.933 230.247 172.003 230.103 171.21 229.654C170.417 229.206 169.814 228.484 169.515 227.623C169.389 227.183 169.351 226.722 169.403 226.266C169.456 225.811 169.598 225.371 169.82 224.971C170.043 224.57 170.343 224.218 170.702 223.933C171.061 223.649 171.473 223.438 171.913 223.313V223.313ZM181.808 257.982C182.479 257.783 183.194 257.789 183.862 257.999C184.529 258.208 185.12 258.612 185.557 259.158C185.994 259.704 186.259 260.369 186.318 261.066C186.376 261.763 186.226 262.462 185.885 263.074C185.545 263.685 185.03 264.181 184.407 264.499C183.784 264.817 183.08 264.942 182.385 264.858C181.69 264.774 181.036 264.485 180.506 264.028C179.976 263.571 179.594 262.967 179.409 262.292C179.165 261.403 179.28 260.453 179.728 259.647C180.177 258.841 180.924 258.243 181.808 257.982V257.982ZM58.8736 280.92C58.4306 281.045 57.9672 281.081 57.5102 281.026C57.0531 280.971 56.6115 280.826 56.2108 280.6C55.81 280.373 55.4581 280.07 55.1754 279.706C54.8926 279.343 54.6846 278.927 54.5634 278.483C54.3559 277.607 54.4955 276.685 54.953 275.909C55.4105 275.134 56.1503 274.565 57.0175 274.323C57.8847 274.081 58.812 274.184 59.6051 274.61C60.3982 275.036 60.9957 275.753 61.2723 276.609C61.3981 277.05 61.4359 277.511 61.3834 277.966C61.3309 278.421 61.1892 278.861 60.9664 279.262C60.7437 279.662 60.4441 280.015 60.085 280.299C59.7259 280.583 59.3142 280.794 58.8736 280.92V280.92ZM49.1662 246.251C48.5033 246.439 47.7994 246.427 47.1435 246.215C46.4875 246.004 45.909 245.602 45.4811 245.062C45.0532 244.522 44.795 243.867 44.7392 243.18C44.6834 242.493 44.8325 241.805 45.1676 241.203C45.5028 240.601 46.0089 240.111 46.6221 239.797C47.2353 239.482 47.928 239.356 48.6127 239.435C49.2973 239.514 49.9432 239.794 50.4687 240.24C50.9942 240.686 51.3757 241.278 51.565 241.94C51.6908 242.381 51.7285 242.842 51.6761 243.297C51.6236 243.752 51.4819 244.192 51.2591 244.593C51.0363 244.993 50.7368 245.346 50.3777 245.63C50.0186 245.915 49.6069 246.125 49.1662 246.251ZM77.0888 294.525C76.4259 294.713 75.722 294.701 75.0661 294.489C74.4101 294.278 73.8316 293.877 73.4037 293.336C72.9757 292.796 72.7176 292.141 72.6618 291.454C72.606 290.767 72.7551 290.079 73.0902 289.477C73.4254 288.875 73.9315 288.385 74.5447 288.071C75.1579 287.756 75.8506 287.63 76.5353 287.709C77.2199 287.788 77.8658 288.068 78.3913 288.514C78.9168 288.96 79.2983 289.552 79.4876 290.215C79.6134 290.655 79.6512 291.116 79.5987 291.571C79.5462 292.026 79.4045 292.467 79.1817 292.867C78.9589 293.267 78.6594 293.62 78.3003 293.904C77.9412 294.189 77.5295 294.4 77.0888 294.525V294.525ZM67.3815 259.818C66.7173 260.009 66.0112 259.998 65.3532 259.787C64.6951 259.576 64.1147 259.173 63.6858 258.632C63.2568 258.09 62.9987 257.432 62.9442 256.743C62.8896 256.054 63.0412 255.365 63.3795 254.762C63.7179 254.159 64.2277 253.671 64.8444 253.359C65.461 253.046 66.1565 252.925 66.8425 253.009C67.5286 253.093 68.1742 253.379 68.6972 253.83C69.2203 254.282 69.5973 254.879 69.7803 255.546C69.9056 255.984 69.9429 256.442 69.8899 256.895C69.837 257.347 69.6949 257.785 69.4719 258.182C69.2488 258.58 68.9492 258.929 68.5904 259.209C68.2317 259.49 67.8208 259.697 67.3815 259.818ZM57.6742 225.149C57.0099 225.34 56.3039 225.329 55.6458 225.118C54.9878 224.907 54.4074 224.505 53.9785 223.963C53.5495 223.421 53.2914 222.763 53.2368 222.074C53.1823 221.385 53.3338 220.696 53.6722 220.093C54.0105 219.49 54.5204 219.002 55.1371 218.69C55.7537 218.377 56.4492 218.256 57.1352 218.34C57.8213 218.424 58.4669 218.71 58.9899 219.161C59.513 219.613 59.89 220.21 60.0729 220.877C60.3157 221.761 60.2001 222.706 59.751 223.506C59.302 224.305 58.5558 224.896 57.6742 225.149V225.149ZM117.267 182.535C117.93 182.346 118.634 182.359 119.29 182.57C119.946 182.782 120.525 183.183 120.953 183.723C121.38 184.263 121.639 184.918 121.694 185.605C121.75 186.292 121.601 186.98 121.266 187.583C120.931 188.185 120.425 188.674 119.812 188.989C119.198 189.303 118.506 189.429 117.821 189.35C117.136 189.271 116.49 188.991 115.965 188.545C115.439 188.099 115.058 187.508 114.869 186.845C114.743 186.404 114.705 185.943 114.758 185.488C114.81 185.033 114.952 184.593 115.175 184.192C115.397 183.792 115.697 183.44 116.056 183.155C116.415 182.871 116.827 182.66 117.267 182.535V182.535ZM126.975 217.204C127.638 217.015 128.342 217.028 128.998 217.239C129.653 217.451 130.232 217.852 130.66 218.392C131.088 218.932 131.346 219.587 131.402 220.274C131.458 220.961 131.308 221.649 130.973 222.252C130.638 222.854 130.132 223.343 129.519 223.658C128.906 223.972 128.213 224.098 127.528 224.019C126.844 223.94 126.198 223.66 125.672 223.214C125.147 222.768 124.765 222.177 124.576 221.514C124.45 221.073 124.412 220.612 124.465 220.157C124.517 219.702 124.659 219.262 124.882 218.861C125.105 218.461 125.404 218.109 125.763 217.824C126.122 217.54 126.534 217.329 126.975 217.204ZM136.832 251.873C137.693 251.718 138.58 251.89 139.321 252.353C140.063 252.816 140.605 253.539 140.843 254.38C141.082 255.221 140.999 256.121 140.611 256.904C140.223 257.688 139.557 258.299 138.743 258.619C137.852 258.806 136.922 258.662 136.129 258.214C135.335 257.766 134.733 257.043 134.433 256.183C134.307 255.742 134.27 255.281 134.322 254.826C134.375 254.371 134.516 253.931 134.739 253.53C134.962 253.13 135.261 252.778 135.621 252.493C135.98 252.209 136.391 251.998 136.832 251.873V251.873ZM146.539 286.542C147.21 286.343 147.925 286.349 148.593 286.559C149.261 286.768 149.851 287.172 150.288 287.718C150.726 288.264 150.991 288.928 151.049 289.626C151.108 290.323 150.957 291.022 150.617 291.633C150.276 292.245 149.762 292.741 149.138 293.059C148.515 293.377 147.811 293.502 147.116 293.418C146.421 293.334 145.767 293.045 145.237 292.588C144.707 292.131 144.326 291.527 144.141 290.852C143.89 289.982 143.984 289.049 144.402 288.247C144.821 287.444 145.533 286.834 146.389 286.542H146.539ZM99.352 168.892C100.214 168.717 101.111 168.875 101.862 169.334C102.612 169.793 103.162 170.519 103.4 171.366C103.561 171.79 103.632 172.244 103.608 172.697C103.584 173.151 103.466 173.594 103.26 174C103.055 174.405 102.767 174.762 102.416 175.05C102.064 175.337 101.656 175.548 101.218 175.669C100.78 175.789 100.322 175.817 99.8726 175.75C99.4233 175.684 98.9929 175.524 98.6091 175.281C98.2252 175.038 97.8963 174.718 97.6434 174.34C97.3906 173.963 97.2193 173.537 97.1407 173.09C96.9113 172.24 97.0117 171.335 97.4219 170.557C97.832 169.778 98.5215 169.183 99.352 168.892V168.892ZM109.059 203.598C109.918 203.403 110.819 203.548 111.573 204.002C112.328 204.456 112.877 205.185 113.107 206.035C113.262 206.456 113.327 206.906 113.3 207.354C113.273 207.803 113.153 208.241 112.949 208.641C112.744 209.041 112.459 209.394 112.111 209.679C111.764 209.963 111.361 210.173 110.929 210.295C110.496 210.417 110.043 210.448 109.598 210.386C109.153 210.324 108.726 210.172 108.343 209.937C107.959 209.702 107.629 209.391 107.372 209.023C107.114 208.654 106.936 208.237 106.848 207.796C106.607 206.951 106.698 206.046 107.102 205.266C107.506 204.486 108.193 203.89 109.022 203.598H109.059ZM118.767 238.267C119.42 238.046 120.125 238.025 120.79 238.208C121.455 238.391 122.05 238.769 122.498 239.294C122.945 239.819 123.226 240.465 123.302 241.151C123.378 241.837 123.247 242.529 122.926 243.14C122.604 243.75 122.107 244.25 121.498 244.575C120.89 244.899 120.198 245.034 119.512 244.962C118.826 244.889 118.177 244.612 117.65 244.167C117.123 243.722 116.742 243.129 116.555 242.465C116.315 241.62 116.406 240.715 116.81 239.935C117.214 239.155 117.9 238.558 118.729 238.267H118.767ZM128.474 272.936C129.127 272.715 129.832 272.694 130.497 272.877C131.162 273.06 131.757 273.438 132.205 273.963C132.653 274.487 132.933 275.134 133.009 275.82C133.086 276.506 132.954 277.198 132.633 277.809C132.311 278.419 131.814 278.919 131.206 279.244C130.597 279.568 129.905 279.703 129.219 279.631C128.533 279.558 127.885 279.281 127.358 278.836C126.831 278.391 126.449 277.798 126.263 277.134C126.022 276.289 126.113 275.384 126.517 274.604C126.921 273.824 127.608 273.227 128.436 272.936H128.474ZM138.181 307.605C139.039 307.429 139.931 307.582 140.681 308.033C141.431 308.484 141.984 309.201 142.229 310.042C142.384 310.463 142.449 310.913 142.422 311.361C142.395 311.81 142.275 312.248 142.07 312.648C141.866 313.048 141.581 313.401 141.233 313.686C140.886 313.97 140.483 314.18 140.051 314.302C139.618 314.424 139.165 314.455 138.72 314.393C138.275 314.331 137.848 314.178 137.464 313.944C137.081 313.709 136.751 313.398 136.494 313.03C136.236 312.661 136.058 312.244 135.97 311.803C135.739 310.958 135.834 310.057 136.237 309.279C136.639 308.502 137.32 307.904 138.144 307.605H138.181ZM91.0314 189.881C91.6952 189.699 92.3978 189.719 93.0506 189.936C93.7035 190.153 94.2774 190.559 94.7001 191.102C95.1227 191.645 95.3753 192.301 95.4258 192.987C95.4763 193.674 95.3226 194.359 94.984 194.958C94.6455 195.557 94.1371 196.043 93.5232 196.353C92.9092 196.664 92.217 196.786 91.5338 196.704C90.8506 196.622 90.207 196.34 89.6841 195.892C89.1612 195.445 88.7823 194.853 88.5952 194.191C88.4648 193.748 88.4246 193.283 88.4772 192.825C88.5297 192.366 88.6739 191.922 88.9011 191.52C89.1283 191.118 89.434 190.766 89.7999 190.484C90.1658 190.203 90.5846 189.997 91.0314 189.881V189.881ZM100.739 224.55C101.403 224.368 102.105 224.388 102.758 224.605C103.411 224.822 103.985 225.228 104.407 225.771C104.83 226.314 105.083 226.97 105.133 227.656C105.184 228.343 105.03 229.028 104.691 229.627C104.353 230.226 103.844 230.712 103.23 231.022C102.616 231.333 101.924 231.455 101.241 231.373C100.558 231.291 99.9144 231.009 99.3914 230.561C98.8685 230.114 98.4896 229.522 98.3025 228.86C98.1721 228.417 98.1319 227.952 98.1845 227.494C98.237 227.035 98.3812 226.591 98.6084 226.189C98.8356 225.787 99.1413 225.435 99.5072 225.153C99.8732 224.872 100.292 224.666 100.739 224.55ZM110.596 259.219C111.26 259.037 111.962 259.057 112.615 259.274C113.268 259.491 113.842 259.897 114.265 260.44C114.687 260.983 114.94 261.639 114.99 262.325C115.041 263.011 114.887 263.697 114.549 264.296C114.21 264.895 113.702 265.381 113.088 265.691C112.474 266.002 111.782 266.124 111.098 266.042C110.415 265.96 109.772 265.677 109.249 265.23C108.726 264.783 108.347 264.191 108.16 263.529C108.035 263.086 107.998 262.623 108.053 262.166C108.108 261.708 108.253 261.267 108.48 260.866C108.706 260.465 109.01 260.113 109.373 259.831C109.736 259.548 110.152 259.34 110.596 259.219V259.219ZM120.303 293.925C120.977 293.762 121.684 293.803 122.334 294.044C122.984 294.284 123.548 294.713 123.953 295.276C124.358 295.838 124.586 296.508 124.608 297.201C124.63 297.894 124.446 298.578 124.077 299.165C123.709 299.752 123.174 300.216 122.54 300.498C121.907 300.779 121.204 300.866 120.521 300.746C119.839 300.626 119.207 300.305 118.708 299.825C118.208 299.344 117.863 298.726 117.717 298.048C117.52 297.18 117.662 296.269 118.115 295.502C118.568 294.735 119.298 294.171 120.153 293.925H120.303ZM72.8161 176.275C73.4799 176.094 74.1825 176.114 74.8354 176.331C75.4882 176.548 76.0621 176.954 76.4848 177.497C76.9075 178.04 77.16 178.696 77.2105 179.382C77.261 180.068 77.1073 180.754 76.7687 181.353C76.4302 181.952 75.9219 182.438 75.3079 182.748C74.6939 183.059 74.0017 183.181 73.3185 183.099C72.6354 183.017 71.9918 182.734 71.4688 182.287C70.9459 181.84 70.567 181.248 70.3799 180.586C70.2495 180.143 70.2094 179.678 70.2619 179.219C70.3145 178.761 70.4586 178.317 70.6858 177.915C70.913 177.513 71.2187 177.161 71.5846 176.879C71.9506 176.597 72.3693 176.392 72.8161 176.275V176.275ZM82.5235 210.944C82.964 210.82 83.4249 210.784 83.8794 210.839C84.3339 210.895 84.7728 211.04 85.1706 211.267C85.5683 211.494 85.9169 211.797 86.196 212.16C86.4751 212.523 86.6791 212.938 86.7962 213.381C86.9799 214.046 86.9619 214.751 86.7448 215.406C86.5276 216.061 86.1209 216.636 85.5762 217.06C85.0315 217.484 84.3733 217.736 83.685 217.785C82.9967 217.834 82.3092 217.678 81.7098 217.336C81.1103 216.995 80.6258 216.483 80.3176 215.865C80.0094 215.248 79.8914 214.553 79.9785 213.868C80.0657 213.184 80.354 212.541 80.8071 212.02C81.2601 211.5 81.8575 211.125 82.5235 210.944V210.944ZM92.2308 245.576C92.8959 245.392 93.6006 245.41 94.2556 245.627C94.9106 245.845 95.4864 246.251 95.91 246.796C96.3337 247.341 96.5861 247.999 96.6353 248.687C96.6845 249.375 96.5284 250.063 96.1866 250.662C95.8448 251.262 95.3327 251.746 94.7153 252.055C94.0979 252.363 93.4029 252.481 92.7184 252.394C92.0339 252.306 91.3906 252.018 90.8701 251.565C90.3496 251.112 89.9753 250.515 89.7946 249.849C89.5532 248.959 89.674 248.01 90.1305 247.209C90.5871 246.409 91.3423 245.821 92.2308 245.576ZM101.938 280.245C102.602 280.064 103.304 280.083 103.957 280.3C104.61 280.518 105.184 280.923 105.607 281.466C106.029 282.009 106.282 282.665 106.332 283.352C106.383 284.038 106.229 284.724 105.891 285.323C105.552 285.922 105.044 286.407 104.43 286.718C103.816 287.028 103.124 287.15 102.441 287.068C101.757 286.986 101.114 286.704 100.591 286.257C100.068 285.809 99.689 285.217 99.5019 284.555C99.2717 283.671 99.3981 282.731 99.8537 281.939C100.309 281.147 101.058 280.566 101.938 280.32V280.245ZM95.3041 308.055C94.4123 308.242 93.4828 308.098 92.6895 307.65C91.8962 307.202 91.2934 306.48 90.9939 305.619C90.8127 304.955 90.8319 304.253 91.0493 303.6C91.2667 302.947 91.6724 302.373 92.2154 301.95C92.7584 301.528 93.4143 301.275 94.1005 301.225C94.7867 301.174 95.4726 301.328 96.0716 301.666C96.6706 302.005 97.156 302.513 97.4667 303.127C97.7773 303.741 97.8993 304.433 97.8172 305.117C97.7352 305.8 97.4527 306.443 97.0055 306.966C96.5583 307.489 95.9663 307.868 95.3041 308.055V308.055ZM85.5968 273.349C84.9325 273.54 84.2265 273.529 83.5684 273.317C82.9104 273.106 82.33 272.704 81.9011 272.162C81.4721 271.62 81.214 270.963 81.1594 270.274C81.1049 269.585 81.2565 268.895 81.5948 268.292C81.9332 267.69 82.443 267.201 83.0596 266.889C83.6763 266.577 84.3718 266.455 85.0578 266.539C85.7439 266.623 86.3894 266.909 86.9125 267.361C87.4356 267.812 87.8126 268.409 87.9955 269.076C88.127 269.519 88.1691 269.984 88.1194 270.443C88.0697 270.902 87.9292 271.347 87.706 271.752C87.4828 272.156 87.1813 272.512 86.8193 272.799C86.4572 273.086 86.0416 273.299 85.5968 273.424V273.349ZM75.8895 238.68C75.2265 238.868 74.5226 238.856 73.8667 238.644C73.2108 238.433 72.6323 238.031 72.2043 237.491C71.7764 236.951 71.5182 236.296 71.4624 235.609C71.4066 234.922 71.5557 234.234 71.8909 233.632C72.226 233.03 72.7322 232.54 73.3454 232.226C73.9585 231.911 74.6513 231.785 75.3359 231.864C76.0206 231.943 76.6664 232.223 77.1919 232.669C77.7174 233.115 78.0989 233.707 78.2882 234.369C78.4254 234.815 78.472 235.283 78.4251 235.747C78.3782 236.21 78.2388 236.66 78.0152 237.069C77.7915 237.478 77.4882 237.837 77.1231 238.127C76.758 238.417 76.3385 238.63 75.8895 238.755V238.68ZM66.1822 204.011C65.7392 204.136 65.2758 204.172 64.8188 204.117C64.3617 204.062 63.9201 203.917 63.5194 203.691C63.1186 203.464 62.7667 203.161 62.484 202.797C62.2012 202.434 61.9932 202.019 61.872 201.574C61.6645 200.698 61.8041 199.776 62.2616 199C62.7191 198.225 63.4589 197.656 64.3261 197.414C65.1933 197.172 66.1206 197.275 66.9137 197.701C67.7068 198.127 68.3043 198.844 68.5809 199.7C68.7181 200.146 68.7647 200.614 68.7178 201.078C68.6709 201.541 68.5315 201.991 68.3079 202.4C68.0842 202.809 67.7809 203.168 67.4158 203.458C67.0507 203.748 66.6312 203.961 66.1822 204.086V204.011ZM109.209 319.224C109.021 318.561 109.033 317.857 109.245 317.201C109.456 316.545 109.858 315.967 110.398 315.539C110.938 315.111 111.593 314.853 112.28 314.797C112.967 314.741 113.655 314.89 114.257 315.226C114.859 315.561 115.349 316.067 115.663 316.68C115.978 317.293 116.104 317.986 116.025 318.671C115.946 319.355 115.666 320.001 115.22 320.527C114.774 321.052 114.182 321.434 113.519 321.623C112.64 321.88 111.694 321.78 110.888 321.345C110.081 320.91 109.478 320.175 109.209 319.299V319.224ZM183.869 374.132C179.552 386.76 176.059 399.656 173.412 412.737C173.209 413.891 172.685 414.963 171.899 415.832C171.113 416.701 170.097 417.33 168.969 417.647C167.842 417.964 166.647 417.957 165.524 417.625C164.4 417.293 163.393 416.651 162.618 415.773C153.561 405.966 143.87 396.763 133.609 388.225C132.684 387.451 131.987 386.441 131.594 385.301C131.2 384.162 131.124 382.936 131.375 381.757C131.625 380.578 132.193 379.489 133.015 378.608C133.838 377.727 134.886 377.087 136.045 376.756L155.947 371.171L175.849 365.512C177.029 365.164 178.283 365.154 179.47 365.482C180.656 365.809 181.727 366.463 182.561 367.367C183.396 368.272 183.96 369.392 184.191 370.601C184.423 371.809 184.311 373.059 183.869 374.207V374.132ZM166.516 306.668C165.624 306.856 164.695 306.712 163.902 306.263C163.108 305.815 162.505 305.093 162.206 304.232C162.025 303.568 162.044 302.866 162.261 302.213C162.479 301.56 162.884 300.986 163.427 300.563C163.97 300.141 164.626 299.888 165.312 299.838C165.999 299.787 166.685 299.941 167.284 300.28C167.883 300.618 168.368 301.126 168.679 301.74C168.989 302.354 169.111 303.047 169.029 303.73C168.947 304.413 168.665 305.057 168.217 305.579C167.77 306.102 167.178 306.481 166.516 306.668V306.668ZM156.809 271.962C156.128 272.151 155.406 272.129 154.738 271.898C154.07 271.667 153.488 271.239 153.069 270.67C152.65 270.101 152.414 269.418 152.392 268.712C152.37 268.006 152.563 267.31 152.946 266.716C153.329 266.122 153.883 265.658 154.535 265.386C155.187 265.114 155.906 265.047 156.598 265.193C157.289 265.339 157.919 265.692 158.406 266.205C158.892 266.718 159.211 267.366 159.32 268.064C159.514 268.942 159.362 269.862 158.894 270.63C158.426 271.399 157.679 271.957 156.809 272.187V271.962ZM147.101 237.293C146.439 237.481 145.735 237.469 145.079 237.257C144.423 237.046 143.844 236.645 143.416 236.104C142.988 235.564 142.73 234.909 142.674 234.222C142.619 233.535 142.768 232.847 143.103 232.245C143.438 231.643 143.944 231.153 144.557 230.839C145.171 230.524 145.863 230.398 146.548 230.477C147.233 230.556 147.878 230.836 148.404 231.282C148.929 231.728 149.311 232.32 149.5 232.983C149.661 233.437 149.726 233.92 149.691 234.401C149.656 234.882 149.521 235.35 149.296 235.777C149.07 236.203 148.759 236.578 148.381 236.877C148.004 237.177 147.568 237.395 147.101 237.518V237.293ZM137.394 202.624C136.731 202.812 136.027 202.8 135.371 202.588C134.715 202.377 134.137 201.976 133.709 201.435C133.281 200.895 133.023 200.24 132.967 199.553C132.911 198.866 133.06 198.178 133.396 197.576C133.731 196.974 134.237 196.484 134.85 196.17C135.463 195.855 136.156 195.729 136.841 195.808C137.525 195.887 138.171 196.167 138.697 196.613C139.222 197.059 139.604 197.651 139.793 198.314C139.954 198.768 140.019 199.251 139.984 199.732C139.949 200.213 139.814 200.681 139.589 201.108C139.363 201.534 139.052 201.909 138.674 202.208C138.296 202.508 137.86 202.726 137.394 202.849V202.624ZM127.687 167.955C127.016 168.153 126.301 168.147 125.633 167.938C124.965 167.728 124.375 167.325 123.938 166.779C123.5 166.232 123.236 165.568 123.177 164.871C123.119 164.174 123.269 163.475 123.609 162.863C123.95 162.252 124.464 161.755 125.088 161.438C125.711 161.12 126.415 160.995 127.11 161.079C127.805 161.163 128.459 161.451 128.989 161.908C129.519 162.365 129.9 162.97 130.086 163.645C130.247 164.099 130.312 164.582 130.276 165.063C130.241 165.544 130.107 166.012 129.881 166.439C129.656 166.865 129.344 167.24 128.967 167.539C128.589 167.839 128.153 168.057 127.687 168.18V167.955ZM175.024 285.567C174.361 285.756 173.657 285.743 173.001 285.532C172.345 285.32 171.767 284.919 171.339 284.379C170.911 283.838 170.653 283.183 170.597 282.496C170.541 281.809 170.69 281.121 171.025 280.519C171.361 279.917 171.867 279.428 172.48 279.113C173.093 278.798 173.786 278.673 174.47 278.752C175.155 278.831 175.801 279.111 176.327 279.557C176.852 280.003 177.234 280.594 177.423 281.257C177.584 281.711 177.649 282.194 177.614 282.675C177.578 283.156 177.444 283.625 177.218 284.051C176.993 284.477 176.682 284.852 176.304 285.152C175.926 285.451 175.49 285.669 175.024 285.792V285.567ZM165.317 250.898C164.654 251.087 163.95 251.074 163.294 250.863C162.638 250.651 162.06 250.25 161.632 249.71C161.204 249.169 160.945 248.514 160.89 247.827C160.834 247.141 160.983 246.452 161.318 245.85C161.653 245.248 162.159 244.759 162.773 244.444C163.386 244.129 164.079 244.004 164.763 244.083C165.448 244.162 166.094 244.442 166.619 244.888C167.145 245.334 167.526 245.925 167.715 246.588C167.877 247.042 167.942 247.525 167.906 248.006C167.871 248.487 167.737 248.956 167.511 249.382C167.286 249.808 166.974 250.183 166.597 250.483C166.219 250.782 165.783 251 165.317 251.123V250.898ZM155.572 216.454C154.901 216.652 154.186 216.647 153.518 216.437C152.851 216.228 152.26 215.824 151.823 215.278C151.386 214.732 151.121 214.067 151.062 213.37C151.004 212.673 151.154 211.974 151.494 211.362C151.835 210.751 152.349 210.255 152.973 209.937C153.596 209.619 154.3 209.494 154.995 209.578C155.69 209.662 156.344 209.95 156.874 210.408C157.404 210.865 157.786 211.469 157.971 212.144C158.097 212.584 158.134 213.045 158.082 213.5C158.029 213.956 157.888 214.396 157.665 214.796C157.442 215.197 157.143 215.549 156.783 215.833C156.424 216.118 156.013 216.329 155.572 216.454V216.454ZM145.902 181.86C145.238 182.051 144.532 182.04 143.874 181.829C143.216 181.617 142.635 181.215 142.206 180.673C141.777 180.131 141.519 179.474 141.465 178.785C141.41 178.096 141.562 177.406 141.9 176.804C142.238 176.201 142.748 175.712 143.365 175.4C143.982 175.088 144.677 174.966 145.363 175.05C146.049 175.134 146.695 175.42 147.218 175.872C147.741 176.324 148.118 176.921 148.301 177.587C148.426 178.025 148.463 178.484 148.411 178.936C148.358 179.389 148.216 179.827 147.992 180.224C147.769 180.621 147.47 180.97 147.111 181.251C146.752 181.532 146.341 181.739 145.902 181.86Z" fill="#133959"/>
<path d="M193.052 490.92C197.551 490.003 202.144 489.626 206.732 489.796L203.284 477.502L169.215 479.676L174.312 497.891C180.192 494.682 186.504 492.334 193.052 490.92V490.92Z" fill="#1A5AA8"/>
<path d="M749.742 328.332C747.014 306.649 743.06 285.139 737.899 263.904C735.35 253.297 732.539 242.803 729.466 232.308C727.929 227.098 726.317 221.889 724.668 216.679C723.356 212.931 722.157 209.183 720.733 205.06C717.185 208.064 713.343 210.701 709.264 212.931C763.835 380.841 734.376 435.974 734.376 435.974C750.492 366.112 712.862 247.6 702.218 216.304C693.702 219.754 684.567 221.412 675.382 221.177C676.769 224.662 678.193 228.485 679.542 232.158C681.266 236.881 682.953 241.641 684.527 246.438C687.75 255.995 690.749 265.703 693.447 275.448C698.925 294.848 703.292 314.544 706.528 334.441C712.412 373.533 715.898 415.773 700.306 445.232C696.508 452.438 691.299 458.806 684.989 463.958C678.679 469.109 671.396 472.937 663.576 475.216C647.047 480.538 627.633 481.25 608.218 479.526C598.328 478.633 588.494 477.206 578.759 475.253C568.976 473.304 558.894 471.018 549.412 468.245C530.149 462.762 511.47 455.405 493.642 446.281C457.43 427.45 424.015 403.672 394.357 375.632C364.121 347.625 337.266 316.178 314.337 281.932C308.64 273.386 303.281 264.653 298.333 255.696C293.386 246.738 288.626 237.48 284.316 228.185C279.977 219.024 276.222 209.598 273.072 199.963C271.511 195.328 270.258 190.596 269.324 185.795C268.449 181.467 268.247 177.03 268.724 172.64C268.738 171.241 269.085 169.865 269.737 168.626C270.389 167.388 271.327 166.323 272.472 165.519C275.982 164.293 279.774 164.124 283.379 165.032C292.998 167.169 302.289 170.585 311.001 175.189C329.331 184.646 346.877 195.55 363.473 207.796L370.145 199.176C353.418 185.861 335.645 173.916 316.998 163.457C307.298 157.883 296.883 153.659 286.04 150.902C282.974 150.221 279.847 149.856 276.707 149.815C273.024 149.766 269.371 150.494 265.988 151.951C262.252 153.673 259.1 156.447 256.918 159.934C255.053 163.033 253.782 166.452 253.17 170.016C252.232 176.052 252.232 182.196 253.17 188.232C253.97 193.799 255.134 199.308 256.655 204.723C259.783 215.199 263.576 225.464 268.012 235.456C272.172 245.389 276.707 255.058 281.542 264.616C286.377 274.173 291.699 283.656 297.321 292.838C319.938 329.356 346.716 363.126 377.116 393.472C407.538 424.337 442.1 450.826 479.811 472.18C499.032 482.929 519.254 491.779 540.192 498.604C550.761 502.089 561.106 504.825 571.862 507.374C582.642 509.955 593.551 511.957 604.545 513.371C626.733 516.069 650.233 516.669 674.183 509.997C686.532 506.666 698.142 501.033 708.402 493.394C718.892 485.55 727.678 475.654 734.226 464.309C740.404 453.507 744.986 441.868 747.831 429.753C750.533 418.296 752.176 406.616 752.741 394.859C753.59 372.638 752.587 350.386 749.742 328.332V328.332Z" fill="#779967"/>
<path d="M387.048 161.471C383.3 172.228 399.642 162.558 399.642 162.558C399.642 162.558 420.106 177.85 407.138 210.045L393.008 239.129L398.667 209.445C378.84 208.658 330.041 211.169 318.085 252.66C316.848 257.045 315.612 261.28 314.337 265.44C314.825 266.153 315.237 266.865 315.687 267.577C319.435 273.124 323.183 278.633 327.23 284.031C330.566 273.724 334.014 262.217 336.563 251.76C343.422 223.763 380.452 223.088 380.452 223.088C356.09 231.334 351.892 239.917 341.285 265.703C337.95 273.761 334.277 281.632 330.828 288.641C350.277 314.677 372.029 338.912 395.819 361.052C425.475 389.085 458.891 412.85 495.103 431.664C512.937 440.788 531.614 448.156 550.874 453.665C560.393 456.401 570.476 458.687 580.22 460.636C589.954 462.602 599.789 464.028 609.68 464.909C624.764 466.5 639.999 465.92 654.918 463.185C651.17 454.452 649.783 439.048 649.371 422.594C653.116 400.911 653.861 378.815 651.582 356.929C650.715 349.018 649.351 341.169 647.497 333.429C646.064 327.789 644.081 322.303 641.575 317.05C633.03 309.817 602.708 284.518 589.815 280.545C574.823 275.86 537.756 295.162 537.756 295.162C537.756 295.162 564.591 273.236 585.13 271.325C596.562 270.275 614.702 283.618 628.645 295.724C593.713 247.975 526.886 209.22 526.886 209.22C526.886 209.22 496.902 227.173 470.404 233.395C493.829 221.177 520.964 203.786 523.401 199.663C525.837 195.54 525.087 174.364 526.699 172.19C527.781 170.565 528.295 168.628 528.161 166.681C528.161 165.969 526.549 164.17 526.362 163.607C526.174 163.045 529.135 160.459 529.697 159.035C530.26 157.611 528.236 152.925 528.236 152.925C528.236 152.925 540.267 148.615 540.979 144.418C533.258 133.174 531.309 109.299 531.309 109.299C531.309 109.299 539.33 103.077 539.33 88.0102C539.33 88.0102 559.082 88.3849 565.566 70.432C567.985 64.4004 568.454 57.7626 566.908 51.4505C565.362 45.1384 561.878 39.4691 556.945 35.2383C556.945 35.2383 558.744 49.5931 549.449 51.7295C540.154 53.8658 528.61 4.72956 467.593 1.13149C406.576 -2.46659 380.002 28.0421 385.362 48.5062C385.362 48.5062 356.315 64.6601 366.36 90.5213C376.404 116.383 391.021 150.714 387.048 161.471ZM525.724 378.855C532.433 360.677 534.345 329.081 534.345 329.081C546.901 370.309 513.281 412.362 518.079 415.735C522.876 419.108 569.276 446.356 569.276 446.356C534.832 437.736 505.56 420.495 505.86 415.848C506.16 411.2 519.128 397.22 525.874 379.005L525.724 378.855ZM455.412 190.668C468.567 196.402 506.16 199.513 506.16 199.513C491.02 199.687 475.881 199.049 460.809 197.602C445.142 195.465 428.389 164.582 428.389 164.582C428.389 164.582 442.107 184.933 455.412 190.668Z" fill="#1A5AA8"/>
<path d="M654.881 463.372C673.621 458.875 682.241 447.743 689.999 435.974C666.312 456.701 646.335 442.646 646.335 442.646L634.791 461.648L637.865 464.722C644.274 463.897 648.959 464.796 654.881 463.372Z" fill="#1A5AA8"/>
<path d="M321.683 254.196C310.81 245.483 300.691 235.866 291.437 225.449C294.136 230.809 296.909 236.131 299.795 241.341C304.705 250.261 310.065 259.031 315.762 267.577L317.486 270.05C324.232 273.461 321.683 254.196 321.683 254.196Z" fill="#1A5AA8"/>
<path d="M419.881 508.273L464.857 481.363C437.739 464.56 412.409 445.031 389.26 423.081C384.425 423.718 379.028 424.243 379.028 424.243C379.028 424.243 392.67 460.149 406.651 482.037C412.409 490.035 416.873 498.889 419.881 508.273V508.273Z" fill="#133959"/>
<path d="M731.715 671.012L551.736 609.132L705.404 628.284L549.862 569.89L693.935 585.145L564.104 541.293L679.917 547.028L652.257 532.036C636.351 533.644 620.311 533.367 604.47 531.211C593.477 529.81 582.567 527.821 571.787 525.252C561.031 522.666 550.686 519.93 540.117 516.444C519.186 509.68 498.964 500.893 479.737 490.208C475.614 487.884 471.566 485.523 467.518 483.087L416.208 523.603C415.908 523.94 415.683 524.277 415.346 524.615C406.013 533.198 308.378 579.898 301.557 584.583C294.735 589.268 270.785 573.863 258.829 573.114C235.854 571.652 221.349 558.984 236.679 560.183C236.679 560.183 260.254 563.931 271.76 557.822C283.266 551.713 328.467 514.945 342.11 496.28C355.753 477.615 377.304 411.912 377.304 411.912L378.016 412.362L377.041 411.387C347.521 381.936 321.419 349.247 299.233 313.94C292.711 332.68 287.052 344.823 282.179 348.683C273.072 355.88 300.357 366.412 300.357 366.412L338.399 384.102L298.446 375.594C296.435 387.255 295.432 399.067 295.447 410.9C295.447 410.9 258.455 459.624 234.767 502.801C221.38 496.787 206.498 494.92 192.04 497.442C169.814 502.089 151.112 518.243 151.112 526.151C151.203 528.473 151.997 530.713 153.389 532.574C154.781 534.434 156.706 535.828 158.908 536.571C158.908 536.571 158.908 546.84 168.465 547.103C168.465 547.103 168.015 557.447 175.661 557.897C175.661 557.897 174.237 567.679 183.57 566.705L194.814 577.012C194.332 578.152 194.116 579.386 194.181 580.622C194.247 581.858 194.592 583.063 195.191 584.146C195.791 585.229 196.628 586.161 197.64 586.873C198.653 587.585 199.813 588.058 201.035 588.256C201.035 588.256 198.149 598.075 206.77 600.924C206.322 604.012 206.869 607.161 208.331 609.918C209.794 612.674 212.095 614.893 214.903 616.253C214.903 616.253 211.455 627.76 225.435 634.993C225.435 634.993 245.187 649.348 283.229 640.39C316.688 643.653 350.4 637.649 380.677 623.037C430.938 598.638 441.02 591.929 446.754 592.378L516.804 550.288L446.904 610.256C444.205 630.121 437.646 659.505 437.646 659.505L743.034 707.405L546.938 639.116L731.715 671.012Z" fill="#133959"/>
</svg>
