<svg id="Layer_1" data-name="Layer 1" xmlns="http://www.w3.org/2000/svg" viewBox="0 0 430.06 535.65"><path d="M401.72,367.48c2,4.89,5.39,6.19,10.87,6.09,12.49-.24,25,.63,37.48,1.31,2.91.15,4-.74,4.19-3.46.36-5.51,1.67-10.62,5.14-15.19,1.68-2.22,2.33-5.2,3.59-7.77,1-2,1.49-4.69,4.63-4.09,2,.38,3.64,4.39,3.12,7.05a30,30,0,0,1-.76,3.25,28.11,28.11,0,0,1-1.1,2.6l.86.61c2.28-2.36,4.55-4.73,6.86-7.07a95.25,95.25,0,0,1,8.1-8c2.59-2.07,4.36-1,4.74,2.38.12,1.11.39,2.2.66,3.68a29.52,29.52,0,0,1,4.91-2,15.52,15.52,0,0,1,4.17.21c-.12,1.21.15,2.7-.45,3.58-1.44,2.11-3.31,3.92-5,5.89a27.13,27.13,0,0,0-1.63,2.35l12.17-1.71v4.59q-4.24,3.18-8.47,6.38c-1,.75-2,1.52-3,2.29l.27.66a19.67,19.67,0,0,1,4.65.54c1.17.42,2.75,1.47,2.93,2.46a4,4,0,0,1-1.76,3.42c-3.07,1.46-6.43,2.3-9.57,3.62a14.59,14.59,0,0,0-4.86,3A21.41,21.41,0,0,1,471,391.11c-10.37.94-19.16,6.09-28.66,9.33-4.16,1.42-8.36,2.7-12.53,4l-8.06,2-1.14.21-5.17,1-1.7.22-19.51-.15-.24-.12h-.28l-4.06-1.08a.37.37,0,0,0-.4-.13l-4-1.94-.55-.37-5.48-5.43a.38.38,0,0,0-.24-.35l-.81-.93-.66,1q-.19-2.85-.38-5.7c.68.91,1.41,1.78,2,2.74,3,4.72,6.91,8.2,12.52,9.74a48.82,48.82,0,0,0,17.86,1.26c15.31-1.5,29.79-6.14,43.8-12.36,3.89-1.73,7.65-3.47,12.12-3.76,6-.39,12.25-1.78,16.47-6.26,3.16-3.36,6.66-4.74,10.78-5.6a10,10,0,0,0,3.2-1.2,32.51,32.51,0,0,0,3.28-2.73l-4-1.22-12.62,2.83-1.72.62-.92,3.64c-1-6.69-2.22-12.5-7.11-16.78,1.12-.48,2.19-.63,2.74-1.24,3.8-4.24,7.63-8.47,11.13-12.95,1-1.24.81-3.34,1.17-5l-1.36-.77c-2.15,1.9-4.42,3.68-6.41,5.73-3,3.14-5.66,6.69-8.88,9.62a6.3,6.3,0,0,0-2.45,5.57,18,18,0,0,1-.67,5.94,29.39,29.39,0,0,1-2.54,5l-.62-.39c.34-1.37.67-2.73,1-4.09.38-2.69,1.19-5.4,1-8a19.55,19.55,0,0,1,1.78-9.64c1.27-2.71.53-5.29-2-7.6L465.23,348c-1.63,3.44-2.83,7.17-5,10.23a24.28,24.28,0,0,0-4.11,12c-.12,1-.36,2.06-.5,3.1-.34,2.61-1.56,3.61-4.41,3.45-12.37-.72-24.75-1.12-37.12-1.77-7.83-.42-13.81,2.81-18.6,8.74a8.37,8.37,0,0,1-1.43,1.13c1.39-5.44,5.83-7.74,9.88-10.28l-3.74-7Zm79.76-2.09L492.83,355h0l5.28-5.93-.69-.85-3.49,1.4c-2.29,1.29-4.89,2.25-6.82,4-3.62,3.2-6.89,6.8-10.2,10.33-.29.31.19,1.36.31,2.06l.34.51,1.57,1.54.08,1.37c.36,1.31.71,2.63,1.07,3.94.09.76.19,1.51.29,2.39,10-4.73,21-13.13,21.87-17l-3.89.9a14,14,0,0,0-2.17.68c-5.55,2.74-11.08,5.53-16.61,8.3l-.3-1a.91.91,0,0,0,.24-.44Z" transform="translate(-74.25 -119.28)" style="fill:#9f5e42"/><path d="M74.25,412.87c.71-2.82,1.35-5.66,2.13-8.46,5-17.78,16.55-28.65,34.33-33.31,14.74-3.87,29.5-5.05,44.44-1.38,7.93,1.94,14.71,6.25,21.57,10.4,1.38.83,2.67,1.8,4,2.71l-1,.79a5.34,5.34,0,0,1-1.07-.34c-4.88-2.78-9.72-5.63-14.64-8.34a25,25,0,0,0-6.13-2.68c-4.71-1.12-9.3-3.14-14.34-2.46-.43.06-.91-.24-1.37-.34-6.84-1.56-13.61,0-20.3.85-5.41.68-10.74,2.45-15.93,4.24-3.29,1.13-6.25,3.18-9.36,4.82a12,12,0,0,0-2,1A41.48,41.48,0,0,0,80,399.63a8.85,8.85,0,0,0-1.13,1.84,35.52,35.52,0,0,0-1.51,5.68A101.52,101.52,0,0,0,76,420.8c0,3.41,1.21,6.8,1.68,10.22a27.54,27.54,0,0,0,6.8,14.23A7.29,7.29,0,0,0,84,441c-3.74-6.91-6-14.24-5.59-22.09.27-5.36,0-10.87,2.29-16a11.7,11.7,0,0,0,.44-3.35l.41-1.07c2.28-.26,1.79-2,1.9-3.48,3-6.23,7.93-10.68,13.29-14.77a26.68,26.68,0,0,0,2.92-.77c4.22-1.63,8.29-3.85,12.65-4.87a102.23,102.23,0,0,1,30.9-2.33,59.29,59.29,0,0,1,13.32,2.62,63.15,63.15,0,0,1,11.84,5.4c3.62,2.05,7.33,3.85,10.36,7.1,5.91,6.31,8.45,14,10.08,22a38.26,38.26,0,0,1,0,12c-.44,3.69-1,7.73-2.92,10.77-2.71,4.37-6.47,8.16-10.11,11.87-6.08,6.22-13,11.45-21.08,14.75a64.84,64.84,0,0,1-9.05,2.79c-3.22.77-6.54,1.12-9.77,1.87-.82.19-1.44,1.24-2.16,1.89l.67.94c6.09-1.51,12.21-2.94,18.27-4.57a45,45,0,0,0,5.67-2.36c2.23-.94,4.79-1.46,6.62-2.9,4.9-3.86,9.48-8.12,14.2-12.22,1.71-1.48,3.44-2.93,5.16-4.39l.11,1.49c-12.06,13.23-26.09,23-44.39,25.24-.66.09-1.33.13-2,.19l-1.25.17-4.67.43c.39-1.84.77-3.68,1.16-5.53l5.15-.83,2.38-.05,9.78-2.69,3.46-1.06,6.32-3.51,2.18-1.08,1.19-.72,0,0,.62-.62v.07l4.39-3.52.74-.58L180.65,437l.28-.88c3.61-3.09,5.16-7.18,5.76-11.74.29-2.9.59-5.79.88-8.69l0-1.57-.34-3-.1-1.12-.42-1.77,0,0-.28-1.71L185,400.81l-.8-1.8q-2.16-3.7-4.34-7.41l-4.17-4.36L165,380.51l-1.57-.43-14.54-4.94-1.81-.65-6.18-.73-8.91-.14-1,.19-6.86.49-18.84,4.76-5.18,2.29a27.73,27.73,0,0,0-11,8.5l-.55,1.45c-3.71,3.28-5,7.74-6.11,12.32l-1.65,7.63L80,419.17l0,1.75c.58,3.42,1.17,6.84,1.75,10.26l.69,1.32,0,.94.26.75.46,1q1.59,3.71,3.19,7.41l-2.92,5.24a53,53,0,0,1-8.25-18.41,25.75,25.75,0,0,0-1-2.8Z" transform="translate(-74.25 -119.28)" style="fill:#5c1b2e"/><path d="M223.41,607.85l1-2.19c.79-.29,1.92-.35,2.3-.92,1.22-1.78,2-3.8,3.22-5.62,1.76-2.76,3.69-2.68,5.54.11-1.4,3.43-2.8,6.87-4.34,10.63l1.77.91c.62.06,1.7.32,1.77.15,1-2.29,2.94-1.94,4.82-2a27.5,27.5,0,0,0,13.28-3.48c1-.61,2.1-1.14,3.15-1.7a107.84,107.84,0,0,1,5,9.8c1.22,3.08-.19,8.39-2.36,9.36A51.34,51.34,0,0,1,248,626.68c-5.78,1.14-11.07,3.11-15.64,6.85-8,6.53-16.78,10.93-27.42,10.49a16.25,16.25,0,0,1-3-1.58c-3.78-3.16-4.43-6-2.8-10.85,2.29-6.86,7.39-10.41,13.9-12.41,2.42,3.82,5.61,4.52,10.05,2l-2.05-.9a1.7,1.7,0,0,0,0-.45c.06,0,.17-.08.17-.1a1.66,1.66,0,0,0-.13-.27l-3.64-3.07-1.55-1.23,2.86-2.06c-.07.52-.38,1.33-.17,1.51,1.72,1.43,3.54,2.74,5.33,4.09,0,1.28.4,2.17,1.8,1.27,1.2-.78,2.26-1.79,3.6-2.87l-2-1.2c-2.72-3.51-5.23-4.37-8.46-2.9,1.11-1.15,2.21-2.31,3.31-3.46a68.7,68.7,0,0,1,6.27,4.79c2,1.92,3.3,1.58,4.51-.9C229.89,611.33,227.64,608,223.41,607.85Z" transform="translate(-74.25 -119.28)" style="fill:#5596e2"/><path d="M374.43,476.53a12,12,0,0,0,.33,2.42c1,3,2.18,5.87,3.21,8.82a13.21,13.21,0,0,0,4.12,6.51c3.24,2.64,3.82,6.78,3.13,10.74-.54,3.14-1.82,6.15-2.78,9.22a48.26,48.26,0,0,0-2-4.6c-1.23-2.22-.16-5.56-3.32-6.82a15.5,15.5,0,0,0-3.47-2.14c-5.74-1.7-11.41-1-17,.9a46.19,46.19,0,0,0-24.93,15.14c-.14,1.5-.28,3-.41,4.5-.64.6-1.72,1.11-1.84,1.79-.45,2.42,2.67,6.62,5.43,7.59a7.89,7.89,0,0,0,1.85.18l-1-3.41c1.5,1.75,3,3.49,4.51,5.23l-4,.33h-1.77l-3.41-.17-1.39-.33-.16,0-1.78-.51c-4.67-1.63-6.8-5.28-7.69-9.84-1.33-6.79-4.48-12.73-8.43-18.3-.71-1-1.49-1.93-2.31-3-6.13,4.36-10.35,10.13-14.22,16.11a104.72,104.72,0,0,0-7.21,13.3c-1,2.21-2.17,3.14-4.44,2.88l-.91.07-7.84,0-6.09-.43a67.65,67.65,0,0,1-19.37-7.11l-15.64-14.4a.26.26,0,0,0-.23-.33,2,2,0,0,0-.32-.25l-1.9-2.45c-3.09-3.06-3.38-6.49-1.17-10.1,2.52-4.14,4.82-8.48,7.86-12.21a93.51,93.51,0,0,0,13.62-23.62,74.44,74.44,0,0,1,4.12-7.46l1-.1a35.9,35.9,0,0,1-1.48,6.24c-.59,1.4-2.56,2.3-3,3.7-2.53,9-8.38,16.07-13.58,23.54a129.64,129.64,0,0,0-7.87,13,5.19,5.19,0,0,0,.33,4.44,48.81,48.81,0,0,0,5.83,6.81c4.65,4.82,9.12,9.89,15.64,12.34a50.58,50.58,0,0,1,6.15,3c4.53,3,9.88,2.6,14.83,3.73,3.08.71,6.47.35,9.67,0a4.89,4.89,0,0,0,3.14-2.47c1.09-2.14,1.36-4.71,2.53-6.79s3.31-3.23,4.29-5.19a52.09,52.09,0,0,1,12.56-15.73c1.49-1.31,2.84-2.09,4.77-1.82a73.83,73.83,0,0,1,5.16,7c2.15,3.76,4.85,7.33,5.2,11.9a80.71,80.71,0,0,0,2.78,8.11c.45,1,2,1.46,3,2.17a14.35,14.35,0,0,0,1-3.15c.23-2.42-.72-5.61.5-7.15a62.27,62.27,0,0,1,11-10.64c3.15-2.4,7-4,10.66-5.59,3.38-1.49,6.9-3.39,10.44-3.58,4.95-.25,10-1.12,15.06,1.17,3.25,1.46,5.2,3.63,7.26,6,1.48-6.25-.34-10.54-5.91-12.78-2.32-.94-5-1-7.47-1.59-.5-.12-.83-.93-1.23-1.42a5.41,5.41,0,0,1,1.87-.44c2.25.28,4.49.71,7.31,1.17-.3-1.66-.17-2.78-.66-3.36-2.71-3.2-3.09-6.94-2.88-10.88Z" transform="translate(-74.25 -119.28)" style="fill:#182945"/><path d="M184.41,441.32c0-.5-.07-1-.11-1.49,3.84-5.13,5.7-11.05,6.93-17.22l1.21-.55c.19,1.32.37,2.64.55,4,1.15-.55,2.36-1,3.45-1.67,5.87-3.53,11.55-7.42,17.62-10.56,4.79-2.49,10.06-4,15.1-6.07,2.34-1,3-3.67,1.18-4.86a6.92,6.92,0,0,0-3.27-.76,113.83,113.83,0,0,1-35.91-7.69c-.81-.33-1.91,0-2.87.07l-2.77-1.12c-.4-.71-.77-1.44-1.2-2.13-1.13-1.79-2.28-3.57-3.42-5.36l-1.14-2.21,0-.05,1-.79c2.73,1.55,5.48,3.05,8.17,4.65,9.25,5.47,19.57,7.23,30,8.63,5.25.71,10.57.92,15.87,1.26a14,14,0,0,0,3-.44c1.43.06,2.32.44,2.43,2.22.16,2.89.69,5.75,1.07,8.63l-1.94,2.34-1.46.31-1.88.43c-9.39,4-18.93,7.6-28.12,12-8.26,3.91-14.65,10.5-21.29,16.64C185.86,440.1,185.13,440.7,184.41,441.32Zm45.41-42v-.58H219.45v.58Zm-17.53-1.67-.21.46c.16.07.35.22.46.18s.15-.28.22-.44Zm3.7.72,0-.29-1.71.12a4.11,4.11,0,0,0,1,.33A4.22,4.22,0,0,0,216,398.34Z" transform="translate(-74.25 -119.28)" style="fill:#3b101e"/><path d="M374.43,476.53l-.83-.09-.54-1.69a6.6,6.6,0,0,0,1.61-1c4.51-4.81,4.18-16.36.65-20.94-4.2-5.44-10-8.24-16.84-9.05-.94-.11-1.87-.35-2.81-.54l.23-.85c7.37-1.22,13.2,2.69,19.3,6.82a23.56,23.56,0,0,0,.62-3.46q.36-16.89.63-33.77a80.45,80.45,0,0,0-.16-9.45c-.78-7.26-1.82-14.5-2.76-21.75l.69-4.13,4.48-4.55a3,3,0,0,0,.92-.45,19.19,19.19,0,0,1,11.13-6.44h8.67c0-6.05-7-9.23-10.94-8l-2.37.47-1.14.48-1.11-1.54,4.92-1.87c-2.37-3-4.6-5.48-6.41-8.22-6.54-9.88-14.8-17.57-26.3-21.25-2-.64-4.12-1-6.5-1.56v9.36l-1.27,0a4,4,0,0,1-.47-1.29c.13-5.09-1.06-9.85-2.59-14.71-.94-3-2.12-3.91-4.89-3.56l4.19-2.16c1.15,2.71,2.18,5.48,3.49,8.11.51,1,1.54,2.33,2.5,2.49,16.38,2.82,26.92,13.4,35.67,26.45,2.3,3.43,4.86,6.32,9,7.92,4.71,1.83,6.69,6,6.51,11.05l-1.51.15c-1.5-.44-3-1.27-4.5-1.27-8,0-13.84,4.18-18.51,10.32a6.31,6.31,0,0,0-1.72,6.44c.78,3.13,1.09,6.37,1.6,9.56q.18,2.85.38,5.7l.09.71c.11,1.19.31,2.38.31,3.57,0,10.32-.06,20.63-.21,30.94-.08,5.79-.6,11.58-.5,17.35,0,2.27,1.44,4.48,1.89,6.78,1.25,6.41.84,12.57-3.55,17.89A7.8,7.8,0,0,1,374.43,476.53Z" transform="translate(-74.25 -119.28)" style="fill:#3a5373"/><path d="M83.47,447.85q1.45-2.62,2.92-5.24l6.1-5.09a.29.29,0,0,0,.25-.26l1.18-.75a.4.4,0,0,0,.41-.15l.68-.43,0,0,.81-.52,7-2.6,2.34.15c5.28-.34,10.2,1,15,3.13l1.5.34c.44.58.83,1.21,1.31,1.75q3.31,3.78,6.68,7.52A12.52,12.52,0,0,0,131,446.9l.49,1.37.34,2.29.48.61.35.19.05,1.55.57,8.91c-.39,1.85-.77,3.69-1.16,5.53-2.29,3.43-4.18,7.25-7,10.23-11.79,12.7-35.29,7.92-41.64-8.32-2.51-6.43-3.1-12.91-.38-19.46A8.28,8.28,0,0,0,83.47,447.85ZM96.61,480h0c.34.38.61.94,1,1.13a21.89,21.89,0,0,0,16.56,1,79.55,79.55,0,0,0,8.73-4.1l-.35-.94h-2.43l-1.87-.59-1-.51-7.32-6.36c-1.73-3.86-3-8.2-7.35-10A19.38,19.38,0,0,0,89.46,459c-6.26,1.88-7.41,7.09-2.72,12l2.31,3.28C90.81,477.18,93,479.49,96.61,480Zm-1.4-35.69c3.63,4.14,8.35,4.09,13.13,3.16,5.79-1.13,11.25-4.1,17.57-2.61-2.9-8.14-19.47-14.6-31.14-6.37-7.52,5.22-11.66,12.16-11.32,21.91l2-1.79a4.38,4.38,0,0,0,.81-.21c9.76-4.55,18.47-1.87,24,7.29a26,26,0,0,0,3,3.49c1.27,3.94,4.57,4.93,8.09,5.62,2.48,1.3,4.43.51,5.82-1.69,4.83-7.65,6.26-15.64,2.21-24.12L126,447.22c-4.28-2.26-8.37-.45-12.37.78-7.22,2.2-14.15,3-20.37-2.52Z" transform="translate(-74.25 -119.28)" style="fill:#89892c"/><path d="M256,603.74c-1,.56-2.13,1.09-3.15,1.7a27.5,27.5,0,0,1-13.28,3.48c-1.88.06-3.84-.29-4.82,2-.07.17-1.15-.09-1.77-.15a12.79,12.79,0,0,0,1.21-2.24c1-3,3.46-5.83,1.36-9.3-1.85-2.79-3.78-2.87-5.54-.11-1.17,1.82-2,3.84-3.22,5.62-.38.57-1.51.63-2.3.92q2.58-4.36,5.15-8.75l2.95-1.23c5.44.4,6,1.83,4.3,11.49,6.77.25,13-.69,18.16-5.57l4.09-4,2.15-1.81c2.05,4.15,4.15,8.28,6.16,12.46a19.79,19.79,0,0,1,1.91,12.68l-.7,1.34a17.74,17.74,0,0,1-14.61,9,37.59,37.59,0,0,0-20.38,7.49c-5.21,4-10.73,7.21-17.18,8.7A23,23,0,0,1,201,644l-2.12-1.23c-4-10.09-.7-18.58,9.19-23.52,2.63-1.32,5.22-2.72,7.83-4.08l1.55,1.23a11.47,11.47,0,0,0-2,2.58c-.15.35.88,1.7,1.44,1.75a21.76,21.76,0,0,0,4.22-.44l2.05.9c-4.44,2.48-7.63,1.78-10.05-2-6.51,2-11.61,5.55-13.9,12.41-1.63,4.87-1,7.69,2.8,10.85a16.25,16.25,0,0,0,3,1.58,34,34,0,0,0,3.72,1.27c7.39,1.61,14-.48,19.71-5a51.66,51.66,0,0,1,27.68-11.14c5.55-.54,8.9-3.64,10.95-8.32,2.2-5-1.73-17.15-6.78-21.57Z" transform="translate(-74.25 -119.28)" style="fill:#2e5c8b"/><path d="M412.29,625.64c.1.35.19.71.29,1.07l-.66,2.21c-.27.81-.6,1.59-.81,2.41a17.67,17.67,0,0,1-11.2,12.78c-1,.19-2.06.35-3.07.58-6.21,1.38-12.42,1.89-18.71.41-5.2-1.23-8.18-4.57-9.68-9.51-.16-.53-.42-1-.63-1.54l.05-3.72c3-8.57,5.42-17.23,4.53-26.46l1.59,0,.06.13a.5.5,0,0,0,.34.41c1.25,2.1,2.62,4,5.51,4.47-.32-3.53.92-5.92,4.24-7,4-1.25,6.49.78,8.62,4.29l2-3.5,1.43-3.38,1.5-3.54c5.19,3,7.73,8.07,9.73,13.25,1.85,4.81,2.78,10,4.14,15a4.11,4.11,0,0,0,.54,1Zm-19.77-14.37c-1.07-5.82-3.23-8.1-7.51-8-4.9,1.11-2.81,5.45-3.69,8.69L375,608.94c-1.52,6.27-2.91,12.55-4.57,18.76-2.2,8.24,2.23,15.65,10,16.28,6.83.55,13.63.7,20.06-2.34,1-.4,2.31-.55,3.05-1.26a21.89,21.89,0,0,0,6.2-10.32c1.27-4.87,0-9.45-1.28-14a41.11,41.11,0,0,0-7.71-15.42c-1.76-2.09-2.37-1.87-3.32.62-.48,1.24-1,2.45-1.55,3.68-2,1.82-3.66,3.75-1.1,7.27Z" transform="translate(-74.25 -119.28)" style="fill:#2e5c8b"/><path d="M239.31,410.12c.65-.78,1.3-1.56,1.94-2.35.46,1.14.91,2.27,1.37,3.4a54.66,54.66,0,0,0,5,4.89,3.89,3.89,0,0,0,3.17.29c4.32-1.57,8.27-10.41,6.74-14.77-.91-2.61-2.55-3-4.95-1.32L248,411.11l-.7-1.16a18,18,0,0,1,4.91-11.74l7.9,1.23c1.1-.74,3-2.28,5.64-.94.72,1.09,1.44,1.56,2.74.59,1.65-1.22,3.44-1.48,5.15.1a2,2,0,0,0,1.25.4c5.07-.09,5.07-.1,5.85,4.68-.43,1.06-.87,2.13-1.3,3.2l-.1.2-1.54,2.13q-2.94,1.81-5.9,3.61l-2.71,1.95c-2.67-.2-5.35-.45-7.58,1.55a2.09,2.09,0,0,1-.94.61c-1.83.25-3.67.5-5.51.59-5.63.27-11.2.36-14.06-6A9.13,9.13,0,0,0,239.31,410.12Zm39-5.84-.48-3.23-3.25,1c-.11,1.5-.22,3-.34,4.52-.57,1.27-1.15,2.53-1.93,4.25,3-1,4.84-2.57,5.69-5.27Zm-11.44,3.39-2.25,5.62c2.54.45,4.69-.26,5.57-2.24a29.57,29.57,0,0,0,2.41-8.64c.33-2.74-.85-3.15-3.47-1.62C266.18,402.36,267.9,405.46,266.89,407.67ZM263.43,400c-1.27.82-3.24,1.37-3.68,2.51-1.06,2.73-1.4,5.74-2,8.64l-2.86,4.81c2.34,1.26,4,1.14,5.8-.54,3.66-3.4,4.93-7.84,5-12.64C265.63,401.66,265.76,399.6,263.43,400Z" transform="translate(-74.25 -119.28)" style="fill:#9f5e42"/><path d="M231.21,508.19l1.9,2.45A51.67,51.67,0,0,0,228.8,515c-3.68,4.64-7.44,9.37-8.28,15.45a67,67,0,0,0,1.47,27q3.63,13.36,7.23,26.75l-1.14,1.28,0-.19,0-.12c-3.18-12.37-7-24.62-9.3-37.14-1.52-8.16-1.72-16.88,2.46-24.66,2.15-4,5.18-7.51,7.76-11.28C229.77,510.79,230.46,509.46,231.21,508.19Z" transform="translate(-74.25 -119.28)" style="fill:#9f5e42"/><path d="M268.61,622.26l.7-1.34c3.43,5.28.9,14.33-7.17,15.1-8.7.83-16.83,3.16-23.89,8.62a64.2,64.2,0,0,1-8.55,5.7c-6.3,3.44-12.9,5.89-20.25,3.84-6.11-1.69-10-5.95-10.58-11.38L201,644a11.58,11.58,0,0,0,1,2.89c3.46,5.08,8.34,6.93,14.34,6.05a18.43,18.43,0,0,0,2.79-.25c7-1.67,13-5.32,18.58-9.61s11.74-7.29,18.94-7.82a43,43,0,0,0,7-1.24C267.89,633,270.11,627.6,268.61,622.26Z" transform="translate(-74.25 -119.28)" style="fill:#898a8a"/><path d="M377.14,502.82c3.16,1.26,2.09,4.6,3.32,6.82a48.26,48.26,0,0,1,2,4.6c.93,5.23,1.64,10.52,2.85,15.69,2.36,10.11,5.26,20.1,7.43,30.25,1.37,6.42,1.83,13,2.7,19.55-.49.77-1,1.53-1.48,2.29-.28-2.65-.41-5.33-.86-7.95-1.35-8.07-2.48-16.19-4.33-24.15C385.1,534.17,381,518.51,377.14,502.82Z" transform="translate(-74.25 -119.28)" style="fill:#9f5e42"/><path d="M340.28,532.6c-1.5-1.74-3-3.48-4.51-5.23q-2.22-3.06-4.42-6.15c.13-1.5.27-3,.41-4.5,1.45,2.65,2.55,5.57,4.41,7.89,4.22,5.27,9.08,10,13.17,15.4,2.5,3.28,4.54,6.77,8.69,8.19.07,0,0,.31.08.66l-4.11-.38c.07,1,.08,2,.2,2.89,1.67,13.13,4.73,25.84,11.55,37.38l-1.18.74q-2.94-5.44-5.9-10.87c-.11-.39-.23-.78-.34-1.18l-.26-.51c-.13-.25-.25-.51-.38-.77-.85-3.39-1.82-6.76-2.51-10.19-1.2-5.92-2.23-11.87-3.33-17.82l-.45-1.63c-2.3-3.3-4.48-6.69-6.94-9.87a29.75,29.75,0,0,0-4.22-3.74A.18.18,0,0,1,340.28,532.6Z" transform="translate(-74.25 -119.28)" style="fill:#9f5e42"/><path d="M411.92,628.92l.66-2.21c3.84,7.51,1.39,18-5.93,22.2-10.15,5.87-21,7.3-32.16,2.82-8.76-3.53-11.6-13.21-6.62-21.4,0,1.24,0,2.48-.05,3.72-.1.46-.2.93-.29,1.39-1.35,6.72,1.28,12.26,7.61,14.79,8.26,3.3,16.62,3.47,24.8-.52C409.26,648.31,414.75,638.63,411.92,628.92Z" transform="translate(-74.25 -119.28)" style="fill:#898a8a"/><path d="M228.08,585.4l1.14-1.28c2.82-.09,5.66,0,8.45-.32,5.72-.71,11.33-1.88,16.28-5.11l5.05-2.44,3.29-2.25c-.39,4.9-.85,9.8-1.14,14.71-.14,2.34.05,4.71.09,7.07l-2.16,1.81c.29-6.55.57-13.11.86-19.88l-6.8,3.62c-7.22,3.47-15,4.38-23.75,4.83,1.16,3.5,2.15,6.51,3.15,9.52l-2.95,1.23Q228.84,591.15,228.08,585.4Z" transform="translate(-74.25 -119.28)" style="fill:#898a8a"/><path d="M364.57,589.49l1.18-.74c7,3,13.75,1.17,20.29-1.62,2-.85,3.65-2.48,5.46-3.76l2.44-1.35c.49-.76,1-1.52,1.48-2.29.52,4.07,1,8.13,1.57,12.2.17,1.29.45,2.58.68,3.87l-1.5,3.54c-.61-4.76-1.22-9.51-1.91-14.83l-2.89,2c-7.23,4.12-14.95,6.19-23.81,5l1.48,2.86L374,603.9l-1.59,0q-4-6.92-7.93-13.84A3.22,3.22,0,0,1,364.57,589.49Z" transform="translate(-74.25 -119.28)" style="fill:#898a8a"/><path d="M262.29,574l-3.3,2.25,1-.54.31-.59c1.49-10.33,2.29-20.64-.54-31.16l-5,3-.44-.52,14.36-13.7,6.09.43c-3.63-.92-5.28,2-7.64,3.75-4.44,3.3-5.53,6.81-4.63,12.69C263.71,557.54,262.48,565.85,262.29,574Z" transform="translate(-74.25 -119.28)" style="fill:#9f5e42"/><path d="M269.16,415.36l2.71-1.95c-.88,1.88-1.75,3.77-2.66,5.65q-3.57,7.43-7.18,14.85l-1.57.29c-4.2-.12-8.31,5-6.94,9.18,1.27,3.9,3.16,7.59,4.78,11.37l-1.65-.05-1,.1c-.28-.95-.48-1.93-.85-2.85a63.14,63.14,0,0,1-2.58-6.3c-1.82-6.68.93-11.35,7.52-13.76,1.12-.41,2.06-1.84,2.68-3C264.75,424.42,266.93,419.87,269.16,415.36Z" transform="translate(-74.25 -119.28)" style="fill:#3a5373"/><path d="M223.41,607.85c4.23.11,6.48,3.48,9.56,5.62-1.21,2.48-2.46,2.82-4.51.9a68.7,68.7,0,0,0-6.27-4.79C222.6,609,223,608.43,223.41,607.85Z" transform="translate(-74.25 -119.28)" style="fill:#3b81c9"/><path d="M236,410.86l1.88-.43Z" transform="translate(-74.25 -119.28)" style="fill:#9f5e42"/><path d="M136.79,466.92l1.25-.17Z" transform="translate(-74.25 -119.28)" style="fill:#89892c"/><path d="M282.6,533.11l.91-.07Z" transform="translate(-74.25 -119.28)" style="fill:#9f5e42"/><path d="M358.07,576.93l.26.51Z" transform="translate(-74.25 -119.28)" style="fill:#e2e3e5"/><path d="M228,585.09l0,.12-.16,0Z" transform="translate(-74.25 -119.28)" style="fill:#898a8a"/><path d="M412.29,625.64l-.21-.64Z" transform="translate(-74.25 -119.28)" style="fill:#898a8a"/><path d="M311.29,120.23a63.44,63.44,0,0,1,20.94-.17c15.57,3.14,29.53,9.52,40.94,20.79,6.94,6.85,11.67,15,15.1,24.24a76.32,76.32,0,0,1,4.81,32.74c-.29,3.85-1.5,7.63-2.29,11.44l-2.45-3.36c.81-.53,2.26-1,2.32-1.6a153.62,153.62,0,0,0,1.16-16.16c0-4.36-.51-8.75-2.73-12.78a18.93,18.93,0,0,1-2.14-6.28c-.58-3.79-.49-7.68-4-10.41-.72-.56-.93-1.81-1.31-2.77-1-2.53-1.73-5.2-4.67-6.25v-.57l-1.72-2.87h0l-1.16-1.14c-1.87-1.71-4.37-3.09-5.47-5.2-2-3.89-6.15-4.68-9.08-7.16a27.74,27.74,0,0,0-6.88-3.7c-3.7-1.63-7.49-3.07-11.25-4.58l-1.12,0-1.74-.57-1.11,0L334,122.18l-2.24,0c-5.54-2.06-11.26-1-16.92-.94-.67,0-1.34.6-2,.92l-5.71,1.18-1.18.52-2.27.61c-3.87,2.53-8,4.73-11.54,7.67-5.89,4.89-10.19,11.23-14.48,17.52-.67,1-1.38,2-2.07,2.91l-.6,0v-1.14a57.59,57.59,0,0,1,10-16,2.76,2.76,0,0,0-.38-2.68,14.53,14.53,0,0,0-3.88-1.39c-3.77,0-7.54.1-11.31,0-7-.27-13.18,2.82-19.38,5.37a39.21,39.21,0,0,0-9.78,6.26,115.79,115.79,0,0,0-10.95,10.53c-2.4,2.59-4.3,5.64-6.45,8.47s-4.46,5.76-6.59,8.72a5,5,0,0,0-.85,2.56c-.11,1.93,1.12,2.23,2.33,1.19a48.24,48.24,0,0,0,4.28-4.73c6.06-.63,12.44-4.69,20.16-1.5l-7.32,1a29.07,29.07,0,0,0-16,6.9l-1.14,1.73-.62,1.11c-2.15.5-2.75,2.09-2.83,4.05l-.06,1.1c-1.28,3.48-3.36,6.9-3.64,10.46-.34,4.33,1.51,8.83,1.21,13.18-.39,5.65,2.27,10.13,4.61,14.55s6.1,8.17,9.35,12.12c.42.52,1.5.52,2.27.76a7,7,0,0,0,1.37,1.72c2.33,1.48,5.73.66,7.5,3.55.3.49,1.54.39,2.34.56-.32-1-.6-2-1-3-.1-.25-.52-.37-.92-.62L239.7,236c-3.68-4.08-4-8.75-3.87-13.76.15-4.19-.74-8.41-1-12.62-.16-2.57-.59-5.35.17-7.69,1.62-5,3.89-9.88,6-14.76a8.52,8.52,0,0,1,8.67-5.31c3.49.17,6.92,1.42,10.38,2.2-6.31,2.6-12.64,5.15-18.9,7.86-.8.35-1.21,1.58-1.8,2.4-.93,4-2.61,8-2.63,12.06,0,7.07,1,14.15,1.53,21.22l.63,2.44c1.45,3.81,2.87,7.63,4.36,11.42.54,1.37,1.26,2.66,1.89,4L233.62,242l-3.35-1.6a37,37,0,0,1-12.14-11.3c-.41-.63-1.45-.87-2.19-1.29a6.44,6.44,0,0,0-.14,2.52c1.52,4,3.32,8,4.76,12,.8,2.24,2.53,3,4.19,4.36,1.44,1.14,1,4.37,2.32,6,2.48,3.18,5.63,5.84,8.38,8.83,1.81,2,3.35,4.16,5.09,6.19a15.93,15.93,0,0,0,2.23,1.82l.14,1,.46.73c-.2.8-.4,1.59-.61,2.38l-1.94-2.34c-.91-1.16-1.73-2.4-2.74-3.47-1.39-1.47-2.92-2.82-4.39-4.22l-2.77-3.87-.06-.07-.51-.52-3.55-3-.74-1q-2.58-3.74-5.15-7.49c-5.52-8.06-7.63-17.17-8.38-26.73a13.94,13.94,0,0,0-.9-4.15c-3.57-8.62-3.69-17.55-2.9-26.66a50,50,0,0,1,5.42-19.4,76.07,76.07,0,0,1,6.27-9.19c6.14-8.3,12.46-16.49,21.26-22.21,12.64-8.21,26.37-11.82,41.44-9.22a4.31,4.31,0,0,1,1.66.39c3.26,2.34,5.54.67,8.06-1.53C298.14,124.32,304.47,121.72,311.29,120.23Z" transform="translate(-74.25 -119.28)" style="fill:#2d170e"/><path d="M242.76,273.61c.21-.79.41-1.58.61-2.38-.15-.24-.31-.48-.46-.73s-.1-.65-.14-1c-.82-1.9-1.36-4-2.51-5.66-2.8-4.09-5.62-8.16-7.11-12.93-1.09-3.48-1.93-7-2.88-10.55l3.35,1.6c-2.06-.39-1.31.95-1,1.82a68.19,68.19,0,0,0,8.25,18.12,26.39,26.39,0,0,1,3.78,8.5c1.93,8.23,3.24,16.61,5.15,24.85,2.63,11.35,10.64,17.8,20.93,22l2,.94a.69.69,0,0,0,.42.12l2.95,1.13h0c6.31,3.09,13.17,3.61,20,4,12.26.65,23.8-2.56,34.9-7.46,12.92-5.7,25-12.74,34.11-23.85a32.78,32.78,0,0,0,7.86-23.54l-4.7-1.05c1.12-.19,1.47-.27,1.82-.32,9.32-1.25,16.73-5.51,21.58-13.77,4.32-7.34,2.5-16.49-4.18-21.14-4.37-3.05-9.2-2.85-12.56,1.29-2.77,3.41-4.75,7.48-7.08,11.25l.9-6.37,6.58-8.39.66-.16a27.41,27.41,0,0,1,3.9-1.12,12.62,12.62,0,0,1,9.71,2.41l1.82,1.07a8.81,8.81,0,0,0,.87,2c5.8,7.44,3,18.79-2,24.38a28.15,28.15,0,0,1-15.16,9.09c-.42,3.49-.6,6.92-1.26,10.24-1.91,9.66-7.74,16.9-15.06,23-4.53,3.77-9.48,7-14.24,10.49l-4.19,2.16-3.49,2.31-1.07.11c-2,.15-2.56,1.21-2.1,3.06.36,1.4.62,2.82.93,4.23l-3.08-5.78-3.33,1.7c-4.9,1.41-9.82,2.79-14.69,4.29-.6.18-1,1-1.49,1.5l-2.11,0-1.19.06-6.39,0-13.5-.06c-4.14-1.1-8.34-2-12.41-3.32a53.62,53.62,0,0,1-20.83-12.14c-4.79-4.54-6.85-10.5-8.19-16.69-.59-2.7-1.39-4-4.49-3.92-4.41.12-8-2.23-11.23-5.06a26.43,26.43,0,0,1-9.41-21.81c.13-2.86.63-5.72,3.78-7.07l.74,1c-1,2.06-2.64,4.08-2.76,6.19a23.46,23.46,0,0,0,9,20.41l1.2,1a1,1,0,0,0,.42.22l1.24.69a.48.48,0,0,0,.43.27c2.69,2.28,5.8,2.72,9.48,2.28C245.2,282.36,245.14,277.74,242.76,273.61Z" transform="translate(-74.25 -119.28)" style="fill:#9f5e42"/><path d="M288.84,325.12l13.5.05-2.87,1.08-1.58,0c-4.95-.95-9,.65-12.93,3.74-6.25,4.92-10.77,11.24-15.1,17.7-2.43,3.62-4.24,7.66-6.38,11.59l8.08,1-.1.71c-10.11.78-14.62,4-13.47,9.59,7.42-7.2,10.48-8.06,20.64-5.44a43.36,43.36,0,0,1,6,2.54,12.71,12.71,0,0,1,5.28,8.39c0,2.51,0,5,0,7.54l-.18.65-2.07,1.82c0-.83.05-1.66.07-2.49l.16-.07.82-1.14c.65-4.34.05-8.31-3.44-11.4-4.51-4.73-10.26-5.86-16.4-5.23-3.87.4-7.15,2.23-8.83,6.09l-3.49,3.26c-1.68-4.9-.56-9.09,2.89-12.92a25.69,25.69,0,0,0,3.39-5.54c4.24-8.26,9-16.24,15.5-22.88C281.47,330.58,285.3,328,288.84,325.12Z" transform="translate(-74.25 -119.28)" style="fill:#3a5373"/><path d="M256.52,375.15l3.49-3.26c7.06-2.64,13.25-1.05,18.8,3.79l2.28,3.22-2-.64a16.88,16.88,0,0,0-16.23-5.38,6.13,6.13,0,0,0-5.09,4.05c-1.16,3.31-2.49,6.57-3.78,9.84-.56,1.43-.36,2.14,1.36,2.62,3.5,1,6.92,2.31,10.37,3.5l-.06,1.56-1.2,2.23c-3.89,2.06-7.6.84-11.29-.62l-4.11-1.55,4.06-.5c3.52,1.55,7,3.79,11.34.32l-2.73-1.45c-3.13-.74-6.23-2-9.38-2.1s-6.57.52-7.9,4.32c-.74,1.2-1.47,1.27-2.2,0a10,10,0,0,1,7.73-6,2.82,2.82,0,0,0,1.82-1.44C253.46,383.52,255,379.33,256.52,375.15Z" transform="translate(-74.25 -119.28)" style="fill:#9f5e42"/><path d="M242.26,395.1c.73,1.27,1.46,1.2,2.2,0l4.61-.59,4.11,1.55c-.34.72-.67,1.43-1,2.15A18,18,0,0,0,247.27,410l-4.65,1.22c-.46-1.13-.91-2.26-1.37-3.4-.38-2.87-.91-5.73-1.07-8.62-.11-1.78-1-2.16-2.43-2.22Z" transform="translate(-74.25 -119.28)" style="fill:#adb0b4"/><path d="M391.37,232.25l-1.82-1.07c.1-.87.58-2,.21-2.56a50.86,50.86,0,0,0-5.3-7.21c-1.54-1.65-3.63-2.8-5.48-4.17,4.88.48,7.86,4.13,11.48,7.29a19.34,19.34,0,0,0,.86-2.68c.88-7-1.59-12.91-7.22-16.89-6.69-4.74-13.8-8.93-20.88-13.08-2.75-1.61-5.94-2.48-8.92-3.69-.33,2.55-.56,4.37-.8,6.19l-.51-8c1.47.2,3.09.08,4.38.66,4.23,1.92,8.38,4,12.48,6.21a98.79,98.79,0,0,1,9.72,5.65c3.08,2.11,5.86,4.65,8.77,7l2.45,3.36c2.57,5.54,3.37,11.07.79,16.95C390.83,227.93,391.41,230.23,391.37,232.25Z" transform="translate(-74.25 -119.28)" style="fill:#3a5373"/><path d="M377.2,376.68c4.67-6.14,10.46-10.34,18.51-10.32,1.5,0,3,.83,4.5,1.27l3.74,7c-4.05,2.54-8.49,4.84-9.88,10.28a8.37,8.37,0,0,0,1.43-1.13c4.79-5.93,10.77-9.16,18.6-8.74,12.37.65,24.75,1.05,37.12,1.77,2.85.16,4.07-.84,4.41-3.45.14-1,.38-2.07.5-3.1a24.28,24.28,0,0,1,4.11-12c2.16-3.06,3.36-6.79,5-10.23.41.92,1.18,1.84,1.15,2.75-.05,2.16-.7,4.31-.73,6.46,0,4.6.14,9.19.23,13.79-.34,1.36-.67,2.72-1,4.09l.62.39a29.39,29.39,0,0,0,2.54-5,18,18,0,0,0,.67-5.94,6.3,6.3,0,0,1,2.45-5.57c3.22-2.93,5.85-6.48,8.88-9.62,2-2.05,4.26-3.83,6.41-5.73l1.36.77c-.36,1.7-.21,3.8-1.17,5-3.5,4.48-7.33,8.71-11.13,12.95-.55.61-1.62.76-2.74,1.24,4.89,4.28,6.14,10.09,7.11,16.78l.92-3.64,1.72-.62,12.62-2.83.73,2.16a35.83,35.83,0,0,0-5.23,1.42c-3.52,1.55-7.24,2.92-10.34,5.12-6,4.28-12.6,6.68-19.7,5.37-3.61-.66-6.23.38-9.17,1.43-1.23.44-2.33,1.25-3.56,1.69-5.36,1.93-10.73,3.8-16.12,5.65-9.93,3.43-20.05,6.08-30.64,5.77-5.9-.17-11.38-1.69-15.69-6.46a24.7,24.7,0,0,1-6.74-15.36C378.59,378.92,377.71,377.81,377.2,376.68Z" transform="translate(-74.25 -119.28)" style="fill:#facea4"/><path d="M377.2,376.68c.51,1.13,1.39,2.24,1.47,3.4a24.7,24.7,0,0,0,6.74,15.36c4.31,4.77,9.79,6.29,15.69,6.46,10.59.31,20.71-2.34,30.64-5.77,5.39-1.85,10.76-3.72,16.12-5.65,1.23-.44,2.33-1.25,3.56-1.69,2.94-1.05,5.56-2.09,9.17-1.43,7.1,1.31,13.7-1.09,19.7-5.37,3.1-2.2,6.82-3.57,10.34-5.12a35.83,35.83,0,0,1,5.23-1.42l-.73-2.16,4,1.22a32.51,32.51,0,0,1-3.28,2.73,10,10,0,0,1-3.2,1.2c-4.12.86-7.62,2.24-10.78,5.6-4.22,4.48-10.45,5.87-16.47,6.26-4.47.29-8.23,2-12.12,3.76-14,6.22-28.49,10.86-43.8,12.36a48.82,48.82,0,0,1-17.86-1.26c-5.61-1.54-9.49-5-12.52-9.74-.61-1-1.34-1.83-2-2.74-.51-3.19-.82-6.43-1.6-9.56A6.31,6.31,0,0,1,377.2,376.68Z" transform="translate(-74.25 -119.28)" style="fill:#f8af8e"/><path d="M479.13,368l-1.57-1.54-.34-.51c-.12-.7-.6-1.75-.31-2.06,3.31-3.53,6.58-7.13,10.2-10.33,1.93-1.71,4.53-2.67,6.82-4-.36,1.79-.73,3.59-1.1,5.38h0c-2.58.3-10.69,7.77-11.35,10.44-1.48-.34-2,.35-1.77,1.73a.91.91,0,0,1-.24.44A.55.55,0,0,0,479.13,368Z" transform="translate(-74.25 -119.28)" style="fill:#facea4"/><path d="M480.28,373.27c-.36-1.31-.71-2.63-1.07-3.94.19-.26.37-.52.56-.77,5.53-2.77,11.06-5.56,16.61-8.3a14,14,0,0,1,2.17-.68c-.64,1.2-1,2.86-2,3.52C491.25,366.63,485.73,369.91,480.28,373.27Z" transform="translate(-74.25 -119.28)" style="fill:#facea4"/><path d="M480.28,373.27c5.45-3.36,11-6.64,16.31-10.17,1-.66,1.32-2.32,2-3.52l3.89-.9c-.85,3.85-11.85,12.25-21.87,17C480.47,374.78,480.37,374,480.28,373.27Z" transform="translate(-74.25 -119.28)" style="fill:#f8af8e"/><path d="M465.88,371c-.09-4.6-.28-9.19-.23-13.79,0-2.15.68-4.3.73-6.46,0-.91-.74-1.83-1.15-2.75.47-.75.95-1.49,1.46-2.29,2.54,2.31,3.28,4.89,2,7.6a19.55,19.55,0,0,0-1.78,9.64C467.07,365.62,466.26,368.33,465.88,371Z" transform="translate(-74.25 -119.28)" style="fill:#f8af8e"/><path d="M481.48,365.39c.66-2.67,8.77-10.14,11.35-10.44Z" transform="translate(-74.25 -119.28)" style="fill:#f8af8e"/><path d="M492.83,354.94c.37-1.79.74-3.59,1.1-5.38l3.49-1.4.69.85Z" transform="translate(-74.25 -119.28)" style="fill:#f8af8e"/><path d="M479.71,367.12c-.2-1.38.29-2.07,1.77-1.73Z" transform="translate(-74.25 -119.28)" style="fill:#f8af8e"/><path d="M479.77,368.56c-.19.25-.37.51-.56.77,0-.46-.06-.91-.08-1.37a.55.55,0,0,1,.34-.4Z" transform="translate(-74.25 -119.28)" style="fill:#f8af8e"/><path d="M482.51,376.12l-1.72.62Z" transform="translate(-74.25 -119.28)" style="fill:#f8af8e"/><path d="M477.22,365.91l.34.51Z" transform="translate(-74.25 -119.28)" style="fill:#f8af8e"/><path d="M132.71,452.91c0-.52,0-1-.05-1.56,2.65.65,5.28,1.36,8,1.92.95.2,2.48.45,2.89,0,2.69-3.21,5.15-6.61,7.95-10.31-3.9-1.18-7.21-2-10.4-3.21-1.93-.72-3-.1-4.05,1.37-1.78,2.44-3.67,4.79-5.51,7.19-.17-.46-.33-.92-.49-1.38l5.86-8.42c-3.69-1.18-7.07-2.13-10.35-3.35-2.09-.78-3.66-.53-4.92,1.33l-1.5-.34,1.49-2.45c-4-1.28-7.69-2.39-11.34-3.65-3-1-4.42.24-5.12,3l-2.34-.15c.8-1.24,1.59-2.48,2.57-4-4.59-1.45-8.86-2.72-13.07-4.17-1.94-.67-3.14-.24-4.36,1.42-1.65,2.27-3.62,4.3-5.46,6.44l-.69-1.32L88,423.26l-8-2.34,0-1.75a72.54,72.54,0,0,0,7.11,2,3.81,3.81,0,0,0,3.07-1c2.25-2.56,4.22-5.39,6.35-8.07,1.25-1.58,1-2.56-1-3.11-2.55-.74-5.12-1.44-7.66-2.21-1.68-.51-3-.57-4.16,1.22a20.87,20.87,0,0,1-3,3.22l1.65-7.63c1.71.36,2.78-.34,3.65-1.84,1-1.79,2.36-3.41,3.51-5.13.75-1.12,1.43-2.29,2.14-3.43l-3.19-1.92c.18-.48.37-1,.55-1.45,1.45,1,3.13,2.68,4.64.85,2.39-2.9,4.28-6.21,6.38-9.35l5.18-2.29L118,383.52l5.65-6.63c.31-.36.77-.71.83-1.11a4,4,0,0,0-.37-1.48l6.86-.49c3.53,1.24,7.06,2.51,10.6,3.71s4.38.67,5.53-3l1.81.65-2.19,4c2.92,1,5.51,1.67,7.93,2.75,3.47,1.54,6.58,2.2,8.8-1.84l1.57.43-3.14,3.94c4.4,1.37,8.15,2.6,11.95,3.67.49.14,1.23-.57,1.85-.88l4.17,4.36-5-.91L168,400.18c2.4.82,4.36,1.52,6.32,2.17,5.5,1.83,5.5,1.82,9-2.66a4.44,4.44,0,0,1,.86-.68l.8,1.8-3.45,3.81,4.92,1.87c.09.57.19,1.14.28,1.71a37.76,37.76,0,0,0-4.35-1.26,3.14,3.14,0,0,0-2.48.44c-2.65,3.29-5.12,6.72-7.84,10.37,1.65.59,2.87,1.05,4.11,1.47,6.78,2.3,6.78,2.29,11.19-3.4a1,1,0,0,1,.24-.16c-.29,2.9-.59,5.79-.88,8.69-1.15,0-2.9-.58-3.36,0-2.44,2.91-4.55,6.09-6.81,9.22l4.41,2.55-.28.88a10.82,10.82,0,0,0-3.23-.93c-1.24,0-2.9.32-3.59,1.15-2.21,2.66-4.06,5.63-6.1,8.56l1.71,1.51-.74.58c-2.64-.29-4.33.59-4.39,3.52v-.07c-.21.21-.42.41-.62.62l0,0-1.19.72-2.18,1.08c1.26-2.14,2.51-4.29,3.94-6.73-3.47-1.07-6.79-2.13-10.13-3.1a1.84,1.84,0,0,0-1.59.27c-2.53,3.36-5,6.79-7.79,10.69l9.25,2.38-3.46,1.06c-1.14-.41-2.27-.86-3.42-1.24-3.87-1.24-5.43-.27-6.36,3.93l-2.38.05c1-1.72,2.07-3.43,3.38-5.59Zm1.76-62c-5.17-1.69-9.93-3.28-14.71-4.77a1.69,1.69,0,0,0-1.44.53c-2.7,3.39-5.33,6.84-8.18,10.52,3.54,1.22,6.67,2.34,9.84,3.36,6.61,2.12,5.66,2.9,9.64-2.9,1-1.41,2.18-2.65,3.21-4C133.36,392.88,133.76,392.06,134.47,390.87Zm-43.6,31.52c5.39,1.67,10.11,3.14,14.84,4.54a1.69,1.69,0,0,0,1.48-.38c2.77-3.44,5.48-6.93,8.34-10.59-4.86-1.62-9.27-3.16-13.73-4.52-.85-.26-2.34-.2-2.79.34C96.3,415.06,93.8,418.51,90.87,422.39Zm10.19-13.21c5,1.65,9.63,3.24,14.33,4.74a2.12,2.12,0,0,0,1.83-.26c2.5-3,4.88-6.19,7.6-9.68-5.25-1.76-9.82-3.39-14.48-4.74-.76-.22-2.18.57-2.79,1.31C105.37,403.19,103.41,406,101.06,409.18ZM127.81,403c4.45,1.6,8.52,3.11,12.63,4.51a2,2,0,0,0,1.78-.44c2.71-3.38,5.32-6.86,8.37-10.84-4.83-1.59-9.11-3-13.41-4.39a1.45,1.45,0,0,0-1.21.47C133.3,395.75,130.68,399.22,127.81,403Zm-19.33,24.88c4.82,1.46,8.87,2.76,13,3.85a2.9,2.9,0,0,0,2.45-.81c2.49-3.06,4.81-6.27,7.54-9.88-4.68-1.48-8.9-2.84-13.14-4.11a1.74,1.74,0,0,0-1.51.42C114.11,420.66,111.51,424,108.48,427.89Zm8.63-42.71c-4.64-1.55-8.68-2.94-12.75-4.22a2.24,2.24,0,0,0-2,.4c-2.49,3.4-4.85,6.9-7.5,10.72,4.4,1.49,8.22,2.84,12.09,4.05a2.29,2.29,0,0,0,2-.52C111.65,392.32,114.21,388.94,117.11,385.18Zm26.31-5.31c-5.22-1.64-10-3.17-14.81-4.58a2.28,2.28,0,0,0-2,.53c-2.2,2.67-4.28,5.45-6.64,8.51,5.3,1.71,10.16,3.32,15.07,4.77.54.16,1.56-.5,2-1.06C139.13,385.54,141.05,383,143.42,379.87ZM118.51,415c4.62,1.53,8.67,2.9,12.75,4.17a2.18,2.18,0,0,0,1.85-.28c2.53-3.14,4.94-6.36,7.5-9.71-4.51-1.51-8.45-2.89-12.43-4.1a2.61,2.61,0,0,0-2.26.49C123.49,408.44,121.22,411.47,118.51,415Zm25.2-6.66c4.08,1.36,7.58,2.57,11.12,3.67.64.19,1.76.26,2.06-.11,2.77-3.43,5.41-7,8.34-10.8-4.08-1.36-7.57-2.61-11.14-3.62a3.22,3.22,0,0,0-2.77.71C148.76,401.32,146.41,404.66,143.71,408.31Zm2.62,17.75c-4.28-1.41-8.22-2.75-12.18-4a1.73,1.73,0,0,0-1.51.46c-2.55,3.24-5,6.55-7.85,10.25,4.45,1.4,8.32,2.65,12.23,3.8a1.94,1.94,0,0,0,1.71-.38C141.22,433,143.61,429.73,146.33,426.06Zm-39.09-27.93c-4-1.35-7.67-2.45-11.22-3.78-1.73-.65-2.74-.41-3.76,1.2-1.88,2.95-4,5.74-6.34,9.06,4,1.24,8.06,2.54,12.13,3.65a2.63,2.63,0,0,0,2.11-.91C102.48,404.49,104.66,401.52,107.24,398.13Zm71.53,7.57c-4.06-1.38-7.52-2.6-11-3.69a2,2,0,0,0-1.72.6c-2.58,3.36-5.08,6.78-7.89,10.57,4,1.33,7.41,2.57,10.93,3.63a2.27,2.27,0,0,0,2-.67C173.53,412.92,175.9,409.61,178.77,405.7Zm-44.32,14.57c4.41,1.41,8.18,2.64,12,3.8a1.75,1.75,0,0,0,1.53-.25c2.42-3.07,4.74-6.22,7.38-9.71-4.38-1.5-8-2.8-11.71-4a2.26,2.26,0,0,0-2,.55C139.3,413.66,137.09,416.72,134.45,420.27Zm25.93,10.38c-4.14-1.41-7.61-2.63-11.13-3.74a1.94,1.94,0,0,0-1.68.48c-2.54,3.18-5,6.43-7.82,10.14,4.14,1.27,7.83,2.42,11.54,3.49a1.78,1.78,0,0,0,1.55-.39C155.32,437.45,157.72,434.2,160.38,430.65Zm-1.29-45.42c-4.61-1.55-8.63-2.94-12.69-4.23a2,2,0,0,0-1.77.31c-2.3,2.83-4.49,5.75-6.85,8.82,4.33,1.47,8.26,2.85,12.24,4.09a2.6,2.6,0,0,0,2.23-.35C154.51,391.21,156.6,388.41,159.09,385.23Zm-10,39.76c4.28,1.42,7.6,2.57,11,3.57a2.54,2.54,0,0,0,2.21-.4c2.32-3,4.47-6.05,6.91-9.41-3.88-1.29-7.37-2.47-10.88-3.58-.49-.15-1.38-.17-1.62.12C154.19,418.33,151.81,421.44,149.07,425Zm24.43-35c-4.24-1.4-7.91-2.63-11.6-3.78a1.71,1.71,0,0,0-1.5.37c-2.28,2.75-4.48,5.56-7,8.77,4.47,1.5,8.31,2.82,12.18,4.07a1.41,1.41,0,0,0,1.24-.38C169,396.2,171.05,393.31,173.5,390Zm-.06,44.83c-3.86-1.27-7.24-2.4-10.63-3.44a1.47,1.47,0,0,0-1.2.56c-2.41,3.22-4.76,6.49-7.33,10,3.75,1.19,7.08,2.28,10.43,3.27a1.69,1.69,0,0,0,1.48-.34C168.55,441.7,170.82,438.47,173.44,434.81Zm8.6-11.75c-3.57-1.2-6.52-2.26-9.51-3.16a2.43,2.43,0,0,0-2.08.31c-2.39,3-4.63,6.11-7,9.32,3.31,1.16,6.06,2.23,8.88,3.06.86.25,2.36.26,2.79-.26C177.43,429.5,179.53,426.46,182,423.06Z" transform="translate(-74.25 -119.28)" style="fill:#a9a8a8"/><path d="M191.23,422.61c-1.23,6.17-3.09,12.09-6.93,17.22-1.72,1.46-3.45,2.91-5.16,4.39-4.72,4.1-9.3,8.36-14.2,12.22-1.83,1.44-4.39,2-6.62,2.9a45,45,0,0,1-5.67,2.36c-6.06,1.63-12.18,3.06-18.27,4.57l-.67-.94c.72-.65,1.34-1.7,2.16-1.89,3.23-.75,6.55-1.1,9.77-1.87a64.84,64.84,0,0,0,9.05-2.79c8.13-3.3,15-8.53,21.08-14.75,3.64-3.71,7.4-7.5,10.11-11.87,1.89-3,2.48-7.08,2.92-10.77a38.26,38.26,0,0,0,0-12c-1.63-8-4.17-15.71-10.08-22-3-3.25-6.74-5.05-10.36-7.1a63.15,63.15,0,0,0-11.84-5.4,59.29,59.29,0,0,0-13.32-2.62,102.23,102.23,0,0,0-30.9,2.33c-4.36,1-8.43,3.24-12.65,4.87a26.68,26.68,0,0,1-2.92.77l-.12-.86c3.11-1.64,6.07-3.69,9.36-4.82,5.19-1.79,10.52-3.56,15.93-4.24,6.69-.83,13.46-2.41,20.3-.85.46.1.94.4,1.37.34,5-.68,9.63,1.34,14.34,2.46a25,25,0,0,1,6.13,2.68c4.92,2.71,9.76,5.56,14.64,8.34a5.34,5.34,0,0,0,1.07.34l0,.05,1.14,2.21c1.14,1.79,2.29,3.57,3.42,5.36.43.69.8,1.42,1.2,2.13a18.47,18.47,0,0,0,1.68,4.17,22.57,22.57,0,0,1,4,11.52C191.5,413.55,191.23,418.09,191.23,422.61Z" transform="translate(-74.25 -119.28)" style="fill:#82092e"/><path d="M81.09,399.55a11.7,11.7,0,0,1-.44,3.35c-2.3,5.13-2,10.64-2.29,16C78,426.75,80.21,434.08,84,441a7.29,7.29,0,0,1,.49,4.26A27.54,27.54,0,0,1,77.64,431C77.17,427.6,76,424.21,76,420.8a101.52,101.52,0,0,1,1.39-13.65,35.52,35.52,0,0,1,1.51-5.68A8.85,8.85,0,0,1,80,399.63Z" transform="translate(-74.25 -119.28)" style="fill:#82092e"/><path d="M81.09,399.55l-1.1.08a41.48,41.48,0,0,1,14.54-19.28,12,12,0,0,1,2-1l.12.86c-5.36,4.09-10.31,8.54-13.29,14.77l-1.9,3.48Z" transform="translate(-74.25 -119.28)" style="fill:#9f5e42"/><path d="M140.88,373.76l-8.91-.14Z" transform="translate(-74.25 -119.28)" style="fill:#a9a8a8"/><path d="M81.5,398.48,83.4,395C83.29,396.45,83.78,398.22,81.5,398.48Z" transform="translate(-74.25 -119.28)" style="fill:#82092e"/><path d="M187.59,414.09l-.34-3C187.36,412.11,187.47,413.1,187.59,414.09Z" transform="translate(-74.25 -119.28)" style="fill:#a9a8a8"/><path d="M187.15,410l-.42-1.77Z" transform="translate(-74.25 -119.28)" style="fill:#a9a8a8"/><path d="M162.55,452.6l1.19-.72Z" transform="translate(-74.25 -119.28)" style="fill:#e2e3e5"/><path d="M163.7,451.91c.2-.21.41-.41.62-.62C164.11,451.5,163.9,451.7,163.7,451.91Z" transform="translate(-74.25 -119.28)" style="fill:#e2e3e5"/><path d="M256,603.74l4.27-4.47c5,4.42,9,16.54,6.78,21.57-2.05,4.68-5.4,7.78-10.95,8.32a51.66,51.66,0,0,0-27.68,11.14c-5.7,4.51-12.32,6.6-19.71,5a34,34,0,0,1-3.72-1.27c10.64.44,19.43-4,27.42-10.49,4.57-3.74,9.86-5.71,15.64-6.85a51.34,51.34,0,0,0,10.62-3.78c2.17-1,3.58-6.28,2.36-9.36A107.84,107.84,0,0,0,256,603.74Z" transform="translate(-74.25 -119.28)" style="fill:#3b81c9"/><path d="M218.88,613c3.23-1.47,5.74-.61,8.46,2.9l-3.43,2.8c-1.79-1.35-3.61-2.66-5.33-4.09-.21-.18.1-1,.17-1.51Z" transform="translate(-74.25 -119.28)" style="fill:#3b81c9"/><path d="M235.5,599.23c2.1,3.47-.4,6.28-1.36,9.3a12.79,12.79,0,0,1-1.21,2.24l-1.77-.91C232.7,606.1,234.1,602.66,235.5,599.23Z" transform="translate(-74.25 -119.28)" style="fill:#3b81c9"/><path d="M221.06,620.32a21.76,21.76,0,0,1-4.22.44c-.56,0-1.59-1.4-1.44-1.75a11.47,11.47,0,0,1,2-2.58l3.64,3.07a.94.94,0,0,1,0,.37A1.7,1.7,0,0,1,221.06,620.32Z" transform="translate(-74.25 -119.28)" style="fill:#3b81c9"/><path d="M223.91,618.74l3.43-2.8,2,1.2c-1.34,1.08-2.4,2.09-3.6,2.87C224.31,620.91,223.91,620,223.91,618.74Z" transform="translate(-74.25 -119.28)" style="fill:#2e5c8b"/><path d="M221,619.87a.94.94,0,0,0,0-.37,1.66,1.66,0,0,1,.13.27S221.1,619.84,221,619.87Z" transform="translate(-74.25 -119.28)" style="fill:#2e5c8b"/><path d="M256.65,454.7l1.65.05h0l1,1.19,1.31,1.44.19.2c3.58,3.63,7.31,7.06,12.28,8.75,2.86,2.62,6.52,3,10.09,3.29,10,.76,19.51-2.7,29.27-4.09,5.63-.81,11.28-1.91,16.94-2,9.71-.2,19.45,0,29.14.59,4.44.27,8.8,1.87,13.42,2.92l-1.29,2.61c-1.56-2.45-4.12-2.62-6.64-2.91-1.6-.19-3.22-.3-4.79-.64-10.45-2.21-21-1.12-31.52-1a47,47,0,0,0-6,.83,13,13,0,0,0,5.13.62,21.87,21.87,0,0,1,3.39-.26c7.75,1.06,15.48,2.23,23.23,3.34,7,1,11.61,5.93,11.38,12.9-.1,3.33-1.22,6.62-1.94,10.21l3.65,1.27.07.79a54.59,54.59,0,0,1-5.63,2.31c-4.43,1.26-8.94,2.23-13.37,3.47-6.8,1.91-12,6.36-16.76,11.26-2,2-3.48,4.5-5.34,6.64-2,2.3-2.72,2.21-4.69-.12-.35-4.57-3.05-8.14-5.2-11.9a73.83,73.83,0,0,0-5.16-7c-3.33-5-8.07-8.37-13.38-10.94-3.16-1.53-5.23-.17-5.59,3.29a8.91,8.91,0,0,1-1,2.19c-.28.7-.51,1.42-1,2.81l4.82-1.83a32.57,32.57,0,0,1-8.41,13.2,74,74,0,0,1-10,8.2,64.62,64.62,0,0,1-12.38,5.93c-3.5,1.27-7.32,1.65-11,2.42-6.52-2.45-11-7.52-15.64-12.34a48.81,48.81,0,0,1-5.83-6.81,5.19,5.19,0,0,1-.33-4.44,129.64,129.64,0,0,1,7.87-13c5.2-7.47,11.05-14.5,13.58-23.54.4-1.4,2.37-2.3,3-3.7A35.9,35.9,0,0,0,256.65,454.7Zm62.53,11.95-.05-.41-1.19.18.05.33Z" transform="translate(-74.25 -119.28)" style="fill:#093d7e"/><path d="M391.5,583.37c-1.81,1.28-3.47,2.91-5.46,3.76-6.54,2.79-13.25,4.58-20.29,1.62-6.82-11.54-9.88-24.25-11.55-37.38-.12-.92-.13-1.85-.2-2.89l4.11.38c0-.35,0-.64-.08-.66-4.15-1.42-6.19-4.91-8.69-8.19-4.09-5.36-8.95-10.13-13.17-15.4-1.86-2.32-3-5.24-4.41-7.89a46.19,46.19,0,0,1,24.93-15.14c1.27,1,2.83,1.71,3.76,2.93,2.73,3.57,5.66,7.11,7.67,11.08a197.42,197.42,0,0,1,7.7,18.23c1.68,4.39,2.72,9,4.43,13.42A166.91,166.91,0,0,1,388.56,574,93.78,93.78,0,0,0,391.5,583.37Z" transform="translate(-74.25 -119.28)" style="fill:#facea4"/><path d="M254,578.69c-4.95,3.23-10.56,4.4-16.28,5.11-2.79.34-5.63.23-8.45.32q-3.61-13.38-7.23-26.75a67,67,0,0,1-1.47-27c.84-6.08,4.6-10.81,8.28-15.45a51.67,51.67,0,0,1,4.31-4.32,2,2,0,0,1,.32.25v.24l.22.09,15.64,14.4c0,1.79-.05,3.59-.06,5.38a22.35,22.35,0,0,1-4.71,14.22,2.28,2.28,0,0,0,.18,2.18c5.77,6.34,6.4,14.46,7.86,22.29C253.12,572.67,253.49,575.69,254,578.69Z" transform="translate(-74.25 -119.28)" style="fill:#facea4"/><path d="M252.56,524.73c3.68-.77,7.5-1.15,11-2.42a64.62,64.62,0,0,0,12.38-5.93,74,74,0,0,0,10-8.2,32.57,32.57,0,0,0,8.41-13.2l-4.82,1.83c.49-1.39.72-2.11,1-2.81a8.91,8.91,0,0,0,1-2.19c.36-3.46,2.43-4.82,5.59-3.29,5.31,2.57,10.05,5.91,13.38,10.94-1.93-.27-3.28.51-4.77,1.82A52.09,52.09,0,0,0,293.17,517c-1,2-3.21,3.26-4.29,5.19s-1.44,4.65-2.53,6.79a4.89,4.89,0,0,1-3.14,2.47c-3.2.33-6.59.69-9.67,0-5-1.13-10.3-.75-14.83-3.73A50.58,50.58,0,0,0,252.56,524.73Z" transform="translate(-74.25 -119.28)" style="fill:#082f63"/><path d="M391.5,583.37a93.78,93.78,0,0,1-2.94-9.36,166.91,166.91,0,0,0-8.31-26.77c-1.71-4.38-2.75-9-4.43-13.42a197.42,197.42,0,0,0-7.7-18.23c-2-4-4.94-7.51-7.67-11.08-.93-1.22-2.49-2-3.76-2.93,5.57-1.9,11.24-2.6,17-.9a15.5,15.5,0,0,1,3.47,2.14c3.89,15.69,8,31.35,11.61,47.1,1.85,8,3,16.08,4.33,24.15.45,2.62.58,5.3.86,7.95Z" transform="translate(-74.25 -119.28)" style="fill:#f8af8e"/><path d="M320.86,518.37c2,2.33,2.68,2.42,4.69.12,1.86-2.14,3.37-4.62,5.34-6.64,4.79-4.9,10-9.35,16.76-11.26,4.43-1.24,8.94-2.21,13.37-3.47a54.59,54.59,0,0,0,5.63-2.31l-.07-.79-3.65-1.27c.72-3.59,1.84-6.88,1.94-10.21.23-7-4.38-11.9-11.38-12.9-7.75-1.11-15.48-2.28-23.23-3.34a21.87,21.87,0,0,0-3.39.26,13,13,0,0,1-5.13-.62,47,47,0,0,1,6-.83c10.52-.16,21.07-1.25,31.52,1,1.57.34,3.19.45,4.79.64,2.52.29,5.08.46,6.64,2.91l2.39,5.13.54,1.69c-.21,3.94.17,7.68,2.88,10.88.49.58.36,1.7.66,3.36-2.82-.46-5.06-.89-7.31-1.17A5.41,5.41,0,0,0,368,490c.4.49.73,1.3,1.23,1.42,2.47.6,5.15.65,7.47,1.59,5.57,2.24,7.39,6.53,5.91,12.78-2.06-2.4-4-4.57-7.26-6-5.09-2.29-10.11-1.42-15.06-1.17-3.54.19-7.06,2.09-10.44,3.58-3.68,1.62-7.51,3.19-10.66,5.59a62.27,62.27,0,0,0-11,10.64c-1.22,1.54-.27,4.73-.5,7.15a14.35,14.35,0,0,1-1,3.15c-1-.71-2.57-1.19-3-2.17A80.71,80.71,0,0,1,320.86,518.37Z" transform="translate(-74.25 -119.28)" style="fill:#082f63"/><path d="M254,578.69c-.46-3-.83-6-1.38-9-1.46-7.83-2.09-16-7.86-22.29a2.28,2.28,0,0,1-.18-2.18A22.35,22.35,0,0,0,249.24,531c0-1.79,0-3.59.06-5.38a67.65,67.65,0,0,0,19.37,7.11l-14.36,13.7.44.52,5-3c2.83,10.52,2,20.83.54,31.16l-.31.59-1,.54Z" transform="translate(-74.25 -119.28)" style="fill:#f8af8e"/><path d="M331.35,521.22q2.2,3.09,4.42,6.15c.3,1,.61,2.06,1,3.41a7.89,7.89,0,0,1-1.85-.18c-2.76-1-5.88-5.17-5.43-7.59C329.63,522.33,330.71,521.82,331.35,521.22Z" transform="translate(-74.25 -119.28)" style="fill:#082f63"/><path d="M233.66,511.22l-.22-.09v-.24A.26.26,0,0,1,233.66,511.22Z" transform="translate(-74.25 -119.28)" style="fill:#9f5e42"/><path d="M188.29,394.49a26.11,26.11,0,0,0,1,3.17,41.57,41.57,0,0,1,3.61,23.1,5.45,5.45,0,0,1-.5,1.3l-1.21.55c0-4.52.27-9.06-.08-13.55a22.57,22.57,0,0,0-4-11.52,18.47,18.47,0,0,1-1.68-4.17Z" transform="translate(-74.25 -119.28)" style="fill:#5c1b2e"/><path d="M229.82,399.29H219.45v-.58h10.36Z" transform="translate(-74.25 -119.28)" style="fill:#5c1b2e"/><path d="M180.9,385.88l-1.14-2.21Z" transform="translate(-74.25 -119.28)" style="fill:#5c1b2e"/><path d="M212.29,397.62l.47.2c-.07.16-.11.4-.22.44s-.3-.11-.46-.18Z" transform="translate(-74.25 -119.28)" style="fill:#5c1b2e"/><path d="M216,398.34a4.22,4.22,0,0,1-.77.16,4.11,4.11,0,0,1-1-.33l1.71-.12Z" transform="translate(-74.25 -119.28)" style="fill:#5c1b2e"/><path d="M273.1,466.33c-5-1.69-8.7-5.12-12.27-8.75v-.2h-.2l-1.3-1.44-1-1.19h0c-1.62-3.78-3.51-7.47-4.78-11.37-1.37-4.16,2.74-9.3,6.94-9.18.32,7.94,4.93,13.37,11.15,17.25,9.43,5.88,19.77,5.4,30.16,2.94a8.83,8.83,0,0,0,2.17-1.25c-6.46.18-12.73.71-18.95.45-11.12-.46-21.5-8.12-23-19.68q3.6-7.43,7.18-14.85c.91-1.88,1.78-3.77,2.66-5.65l5.9-3.6c1.89.27,1.76-.9,1.54-2.14l.1-.2a21.11,21.11,0,0,1,2.31-1.39,4.26,4.26,0,0,1,2.06-.42c2.12.21,4.21.68,6.34.82s3.11-1.05,3.1-3.15c0-2.95.2-5.93-.1-8.85-.22-2.05-.53-5-1.87-5.83-2.13-1.34-2.33-2.42-1.55-4.34l.18-.65c4.5-2.2,6.39-5.4,5.15-10.05-1-3.81-1.94-7.35.34-11.05.57-.91.19-2.41.24-3.64L295,359c0,.17-.06.34-.08.51l-.47.65c0,.18,0,.36-.05.54-1.92,1-3.85,1.95-5.75,3-.38.2-.94.72-.88,1,.65,2.83-1.36,2.86-3.18,3.11a43.36,43.36,0,0,0-6-2.54c-10.16-2.62-13.22-1.76-20.64,5.44-1.15-5.59,3.36-8.81,13.47-9.59l.1-.71-8.08-1c2.14-3.93,3.95-8,6.38-11.59,4.33-6.46,8.85-12.78,15.1-17.7,3.93-3.09,8-4.69,12.93-3.74-.94,7.79.94,15.1,3.34,22.51a77.3,77.3,0,0,1,5.95-6.81c2.48-2.29,5.33-4.18,8-6.24,2.26-.8,3.14,1.23,4.5,2.23,2.39,1.73,4.74,3.52,7.25,5.4,1.66-2.62,2.84-4.68,4.23-6.58a18.53,18.53,0,0,1,2.81-2.55c5.57,1.13,11,2.52,15.5,6.36l.63-1.13.11-2.84a28.78,28.78,0,0,0,2-2.61c1.2-2.07,2.88-3.53,5.3-3.11s5.08.82,6.9,2.21c8,6.13,15.74,12.64,18.54,23,.07.24.61.35.93.52l1.11,1.54,1.14-.48,2.37-.47a14.5,14.5,0,0,0,2.51,1.08c2.88.67,4.66,2.22,4.86,5.53l-5.1,1.35a19.19,19.19,0,0,0-11.13,6.44,3,3,0,0,1-.92.45l-6.29-4c-2.51-7.05-4.18-14.5-9.52-20.29l1.71,5.85c.89,6.16,2.38,12.31,2.52,18.49.18,7.53-.77,15.08-1.24,22.64,2.52-2,3.07-5.49,4.66-9.17.32,1.8.77,2.9.68,4-.69,7.64-.79,15.44-2.42,22.89-2.73,12.49-6.53,24.71-18.9,31.64a3,3,0,0,0,.56.4c.44.15.91.26,1.36.41,4.85,1.65,9.31,3.77,11.88,8.65,1.06,2,.86,3.36-1,4.58-3.93,2.56-8.36,2.54-12.71,2.17-9.29-.8-18.59-1.86-27.87-.42a141.87,141.87,0,0,0-15.82,3.42c-9,2.46-17.74,5.84-27.32,4C277,467,275.05,466.68,273.1,466.33Zm14.28-31.49a14.78,14.78,0,0,0,2.41.93c8.53,1.75,16.69-.19,24.66-2.91a75.34,75.34,0,0,0,25.28-14.75c6.87-6,13-12.64,16.6-21.25,1.23-2.95,2.3-5.94,1.35-9.92-4,16.22-14.29,27-27.11,35.61S303.29,435.61,287.38,434.84Z" transform="translate(-74.25 -119.28)" style="fill:#5596e2"/><path d="M273.1,466.33c1.95.35,3.91.66,5.86,1,9.58,1.85,18.36-1.53,27.32-4A141.87,141.87,0,0,1,322.1,460c9.28-1.44,18.58-.38,27.87.42,4.35.37,8.78.39,12.71-2.17,1.88-1.22,2.08-2.57,1-4.58-2.57-4.88-7-7-11.88-8.65-.45-.15-.92-.26-1.36-.41a3,3,0,0,1-.56-.4c12.37-6.93,16.17-19.15,18.9-31.64,1.63-7.45,1.73-15.25,2.42-22.89.09-1.06-.36-2.16-.68-4-1.59,3.68-2.14,7.15-4.66,9.17.47-7.56,1.42-15.11,1.24-22.64-.14-6.18-1.63-12.33-2.53-18.49a16.08,16.08,0,0,1,2.1,3.51c2.36,7.83,4.58,15.71,6.84,23.57.94,7.25,2,14.49,2.76,21.75a80.45,80.45,0,0,1,.16,9.45q-.26,16.89-.63,33.77a23.56,23.56,0,0,1-.62,3.46c-6.1-4.13-11.93-8-19.3-6.82l-.23.85c.94.19,1.87.43,2.81.54,6.81.81,12.64,3.61,16.84,9.05,3.53,4.58,3.86,16.13-.65,20.94a6.6,6.6,0,0,1-1.61,1l-2.39-5.13L372,467c-4.62-1.05-9-2.65-13.42-2.92-9.69-.59-19.43-.79-29.14-.59-5.66.12-11.31,1.22-16.94,2-9.76,1.39-19.24,4.85-29.27,4.09C279.62,469.35,276,469,273.1,466.33Z" transform="translate(-74.25 -119.28)" style="fill:#4373af"/><path d="M383.86,356.68c-.32-.17-.86-.28-.93-.52-2.8-10.4-10.51-16.91-18.54-23-1.82-1.39-4.53-1.79-6.9-2.21s-4.1,1-5.3,3.11a27.32,27.32,0,0,1-2,2.6l-.66-.1V323.78c2.38.56,4.49.92,6.5,1.56,11.5,3.68,19.76,11.37,26.3,21.25,1.81,2.74,4,5.21,6.41,8.22Z" transform="translate(-74.25 -119.28)" style="fill:#4373af"/><path d="M336.86,315.93l3.49-2.31c2.77-.35,3.95.57,4.89,3.56,1.53,4.86,2.72,9.62,2.59,14.71a4,4,0,0,0,.47,1.29v2.29l-1.09,1.16-5.76-2.93c.66-1.7,1.75-3.35,1.92-5.09C344,322.42,343.69,317.71,336.86,315.93Z" transform="translate(-74.25 -119.28)" style="fill:#4373af"/><path d="M373.53,380.8c-2.26-7.86-4.48-15.74-6.84-23.57a16.08,16.08,0,0,0-2.1-3.51q-.84-2.93-1.7-5.85c5.34,5.79,7,13.24,9.52,20.29.6,2.84,1.2,5.67,1.81,8.51Z" transform="translate(-74.25 -119.28)" style="fill:#2e5c8b"/><path d="M390.75,365.23l5.1-1.35c-.2-3.31-2-4.86-4.86-5.53a14.5,14.5,0,0,1-2.51-1.08c4-1.27,10.93,1.91,10.94,8Z" transform="translate(-74.25 -119.28)" style="fill:#4373af"/><path d="M374.22,376.67c-.61-2.84-1.21-5.67-1.81-8.51l6.29,4Z" transform="translate(-74.25 -119.28)" style="fill:#4373af"/><path d="M348.3,335.47v-2.29l1.27,0v2.36Z" transform="translate(-74.25 -119.28)" style="fill:#2e5c8b"/><path d="M386.11,357.74l-1.14.48Z" transform="translate(-74.25 -119.28)" style="fill:#4373af"/><path d="M93.21,445.48c6.22,5.48,13.15,4.72,20.37,2.52,4-1.23,8.09-3,12.36-.78-.93,7.09-3.53,13.31-9.17,18a36.06,36.06,0,0,0-3.56,3.93,26,26,0,0,1-3-3.49c-5.48-9.16-14.19-11.84-24-7.29a4.38,4.38,0,0,1-.81.21A77.8,77.8,0,0,1,89,450.52C90,448.64,91.77,447.14,93.21,445.48Z" transform="translate(-74.25 -119.28)" style="fill:#d6dd24"/><path d="M86.74,471c-4.69-4.94-3.54-10.15,2.72-12a19.38,19.38,0,0,1,13.09.73c4.4,1.78,5.62,6.12,7.35,10a10.25,10.25,0,0,0-2.8.26A30,30,0,0,1,86.74,471Z" transform="translate(-74.25 -119.28)" style="fill:#d6dd24"/><path d="M113.21,469.18a36.06,36.06,0,0,1,3.56-3.93c5.64-4.72,8.24-10.94,9.17-18l3.39,1.77c-.09.41-.37.88-.25,1.21a22.46,22.46,0,0,1,.27,15.44c-1.48,4.17-2.59,8.55-8,9.16C117.78,474.11,114.48,473.12,113.21,469.18Z" transform="translate(-74.25 -119.28)" style="fill:#b8c30c"/><path d="M86.74,471a30,30,0,0,0,20.36-1.06,10.25,10.25,0,0,1,2.8-.26l7.32,6.36,1,.51,1.87.59a11.2,11.2,0,0,1-2.37,2.26c-5.07,2.51-10.39,3.52-16,2-1.73-.46-3.46-1-5.19-1.42h0c-1.7-1.4-3.37-2.83-5.1-4.19a24.86,24.86,0,0,0-2.46-1.55Z" transform="translate(-74.25 -119.28)" style="fill:#b8c30c"/><path d="M94.77,438.49c11.67-8.23,28.24-1.77,31.14,6.37-6.32-1.49-11.78,1.48-17.57,2.61-4.78.93-9.5,1-13.13-3.16,2.11-1.29,4.07-3.13,6.36-3.76,3.8-1,7.81-1.27,11.73-1.87a2.75,2.75,0,0,0,.83-.46,7.26,7.26,0,0,0-3.34-.78c-1.51-.09-3.26.3-4.5-.32-2.65-1.32-4.87-.69-7.3.4A22.35,22.35,0,0,1,94.77,438.49Z" transform="translate(-74.25 -119.28)" style="fill:#d6dd24"/><path d="M94.77,438.49a22.35,22.35,0,0,0,4.22-1c2.43-1.09,4.65-1.72,7.3-.4,1.24.62,3,.23,4.5.32a7.26,7.26,0,0,1,3.34.78,2.75,2.75,0,0,1-.83.46c-3.92.6-7.93.84-11.73,1.87-2.29.63-4.25,2.47-6.36,3.76l-2,1.17c-1.44,1.66-3.18,3.16-4.25,5a77.8,77.8,0,0,0-3.52,8.09l-2,1.79C83.11,450.65,87.25,443.71,94.77,438.49Z" transform="translate(-74.25 -119.28)" style="fill:#facea4"/><path d="M96.58,480c1.73.47,3.46,1,5.19,1.42,5.6,1.49,10.92.48,16-2a11.2,11.2,0,0,0,2.37-2.26h2.43l.35.94a79.55,79.55,0,0,1-8.73,4.1,21.89,21.89,0,0,1-16.56-1C97.19,480.93,96.92,480.37,96.58,480Z" transform="translate(-74.25 -119.28)" style="fill:#d6dd24"/><path d="M121.3,474.8c5.46-.61,6.57-5,8-9.16a22.46,22.46,0,0,0-.27-15.44c-.12-.33.16-.8.25-1.21,4,8.48,2.62,16.47-2.21,24.12C125.73,475.31,123.78,476.1,121.3,474.8Z" transform="translate(-74.25 -119.28)" style="fill:#d6dd24"/><path d="M89.05,474.26a24.86,24.86,0,0,1,2.46,1.55c1.73,1.36,3.4,2.79,5.1,4.19C93,479.49,90.81,477.18,89.05,474.26Z" transform="translate(-74.25 -119.28)" style="fill:#d6dd24"/><path d="M118.26,476.53l-1-.51Z" transform="translate(-74.25 -119.28)" style="fill:#d6dd24"/><path d="M92.74,437.26l1.18-.75Z" transform="translate(-74.25 -119.28)" style="fill:#e2e3e5"/><path d="M95,436l.8-.53Z" transform="translate(-74.25 -119.28)" style="fill:#e2e3e5"/><path d="M131.83,450.56l.48.61Z" transform="translate(-74.25 -119.28)" style="fill:#a9a8a8"/><path d="M94.33,436.36l.68-.43Z" transform="translate(-74.25 -119.28)" style="fill:#e2e3e5"/><path d="M232.54,595.68c-1-3-2-6-3.15-9.52,8.74-.45,16.53-1.36,23.75-4.83a11.76,11.76,0,0,1,.59,2.12c.45,6,.85,12.1,1.27,18.15-5.12,4.88-11.39,5.82-18.16,5.57C238.54,597.51,238,596.08,232.54,595.68Z" transform="translate(-74.25 -119.28)" style="fill:#e2e3e5"/><path d="M268.61,622.26c1.5,5.34-.72,10.72-5,11.79a43,43,0,0,1-7,1.24c-7.2.53-13.31,3.53-18.94,7.82s-11.6,7.94-18.58,9.61a18.43,18.43,0,0,1-2.79.25c.05-1.82.09-3.64.13-5.47,6.45-1.49,12-4.74,17.18-8.7A37.59,37.59,0,0,1,254,631.31,17.74,17.74,0,0,0,268.61,622.26Z" transform="translate(-74.25 -119.28)" style="fill:#adb0b4"/><path d="M255,601.6c-.42-6.05-.82-12.1-1.27-18.15a11.76,11.76,0,0,0-.59-2.12l6.8-3.62c-.29,6.77-.57,13.33-.86,19.88Z" transform="translate(-74.25 -119.28)" style="fill:#adb0b4"/><path d="M216.44,647.5c0,1.83-.08,3.65-.13,5.47-6,.88-10.88-1-14.34-6.05a11.58,11.58,0,0,1-1-2.89A23,23,0,0,0,216.44,647.5Z" transform="translate(-74.25 -119.28)" style="fill:#e2e3e5"/><path d="M400.49,641.64c-6.43,3-13.23,2.89-20.06,2.34-7.76-.63-12.19-8-10-16.28,1.66-6.21,3.05-12.49,4.57-18.76l6.31,3.06c.88-3.24-1.21-7.58,3.69-8.69,2.63,1.89,4.28,4.29,3.77,8h3.74l2.26.94c-2.56-3.52-.91-5.45,1.1-7.27a10.88,10.88,0,0,1,1.73.9c3.52,2.71,5.77,6.29,7.86,10.21,3.3,6.2,2.29,18.59-3.23,23.1A11.67,11.67,0,0,0,400.49,641.64Zm-18.4-19.34a3,3,0,0,0-1.51,4.74c2.19,2.66,10.25,2.67,12.27-.09a11.81,11.81,0,0,0,1.53-3.63c.07-.22-.82-.72-1.27-1.09Zm-1.69-6h14.81c1-2.55-1.8-2.6-3-3C387.67,611.61,381.89,613.26,380.4,616.3Zm.5,4.19c4.07,0,8.07,0,12.06,0a9.59,9.59,0,0,0,2.29-.61c-.6-.57-1.15-1.55-1.8-1.62-3.1-.34-6.22-.36-9.33-.61C381.75,617.43,381,618.64,380.9,620.49Z" transform="translate(-74.25 -119.28)" style="fill:#5596e2"/><path d="M374,603.9,369,594.38l-1.48-2.86c8.86,1.14,16.58-.93,23.81-5,.71,4.38,1.37,8.78,2.15,13.15a16.9,16.9,0,0,0,1.22,3.1l-2,3.5c-2.13-3.51-4.65-5.54-8.62-4.29-3.32,1.06-4.56,3.45-4.24,7-2.89-.43-4.26-2.37-5.51-4.47l-.34-.41Z" transform="translate(-74.25 -119.28)" style="fill:#e2e3e5"/><path d="M399.94,649.71c-8.18,4-16.54,3.82-24.8.52-6.33-2.53-9-8.07-7.61-14.79.09-.46.19-.93.29-1.39.21.51.47,1,.63,1.54,1.5,4.94,4.48,8.28,9.68,9.51,6.29,1.48,12.5,1,18.71-.41,1-.23,2.05-.39,3.07-.58Z" transform="translate(-74.25 -119.28)" style="fill:#e2e3e5"/><path d="M400.49,641.64a11.67,11.67,0,0,1,1.75-2.49c5.52-4.51,6.53-16.9,3.23-23.1-2.09-3.92-4.34-7.5-7.86-10.21a10.88,10.88,0,0,0-1.73-.9c.52-1.23,1.07-2.44,1.55-3.68.95-2.49,1.56-2.71,3.32-.62a41.11,41.11,0,0,1,7.71,15.42c1.32,4.55,2.55,9.13,1.28,14a21.89,21.89,0,0,1-6.2,10.32C402.8,641.09,401.52,641.24,400.49,641.64Z" transform="translate(-74.25 -119.28)" style="fill:#3b81c9"/><path d="M399.94,649.71l0-5.6a17.67,17.67,0,0,0,11.2-12.78c.21-.82.54-1.6.81-2.41C414.75,638.63,409.26,648.31,399.94,649.71Z" transform="translate(-74.25 -119.28)" style="fill:#adb0b4"/><path d="M394.74,602.72a16.9,16.9,0,0,1-1.22-3.1c-.78-4.37-1.44-8.77-2.15-13.15l2.89-2c.69,5.32,1.3,10.07,1.91,14.83Z" transform="translate(-74.25 -119.28)" style="fill:#adb0b4"/><path d="M392.52,611.27h-3.74c.51-3.67-1.14-6.07-3.77-8C389.29,603.17,391.45,605.45,392.52,611.27Z" transform="translate(-74.25 -119.28)" style="fill:#3b81c9"/><path d="M374.05,604l.34.41A.5.5,0,0,1,374.05,604Z" transform="translate(-74.25 -119.28)" style="fill:#898a8a"/><path d="M264.47,396.68l1.2-2.23c1.77-.35,3.54-.66,5.3-1.05,5.32-1.15,11-.64,16-3.29a2.93,2.93,0,0,1,2.58,1.21,89,89,0,0,1,1.87,10.76c.24,2.22-.88,2.83-3.24,2.35s-5-.14-7.5-.16c-.78-4.78-.78-4.77-5.85-4.68a2,2,0,0,1-1.25-.4c-1.71-1.58-3.5-1.32-5.15-.1-1.3,1-2,.5-2.74-.59C265.3,397.9,264.88,397.29,264.47,396.68Z" transform="translate(-74.25 -119.28)" style="fill:#e2e3e5"/><path d="M280.71,404.27c2.51,0,5.09-.34,7.5.16s3.48-.13,3.24-2.35a89,89,0,0,0-1.87-10.76,2.93,2.93,0,0,0-2.58-1.21c-5.05,2.65-10.71,2.14-16,3.29-1.76.39-3.53.7-5.3,1.05l.06-1.56,11.52-2.39c3-.06,6.14.44,8.41-2.29,1.77.36,2-.77,2-2.08l2.07-1.82c-.78,1.92-.58,3,1.55,4.34,1.34.85,1.65,3.78,1.87,5.83.3,2.92.08,5.9.1,8.85,0,2.1-1,3.29-3.1,3.15s-4.22-.61-6.34-.82a4.26,4.26,0,0,0-2.06.42,21.11,21.11,0,0,0-2.31,1.39C279.84,406.4,280.28,405.33,280.71,404.27Z" transform="translate(-74.25 -119.28)" style="fill:#a9a8a8"/><path d="M242.62,411.17l4.65-1.22.7,1.16c.34.37.68,1.06,1,1.06,2.5,0,5.77-2.75,6.39-5.23.94-3.71-.07-6.11-2.82-6.68,2.4-1.72,4-1.29,4.95,1.32,1.53,4.36-2.42,13.2-6.74,14.77a3.89,3.89,0,0,1-3.17-.29A54.66,54.66,0,0,1,242.62,411.17Z" transform="translate(-74.25 -119.28)" style="fill:#f8af8e"/><path d="M252.56,400.26c2.75.57,3.76,3,2.82,6.68-.62,2.48-3.89,5.21-6.39,5.23-.34,0-.68-.69-1-1.06Z" transform="translate(-74.25 -119.28)" style="fill:#facea4"/><path d="M263.43,400c2.33-.35,2.2,1.71,2.19,2.78,0,4.8-1.31,9.24-5,12.64-1.81,1.68-3.46,1.8-5.8.54l2.86-4.81c1.84,1.21,3.93.74,4.43-1C263.09,406.86,264.81,403.55,263.43,400Z" transform="translate(-74.25 -119.28)" style="fill:#f8af8e"/><path d="M263.43,400c1.38,3.6-.34,6.91-1.29,10.16-.5,1.73-2.59,2.2-4.43,1,.64-2.9,1-5.91,2-8.64C260.19,401.32,262.16,400.77,263.43,400Z" transform="translate(-74.25 -119.28)" style="fill:#facea4"/><path d="M269.15,400.79c2.62-1.53,3.8-1.12,3.47,1.62a29.57,29.57,0,0,1-2.41,8.64c-.88,2-3,2.69-5.57,2.24l2.25-5.62c.28.77.57,1.54.9,2.47A6.67,6.67,0,0,0,269.15,400.79Z" transform="translate(-74.25 -119.28)" style="fill:#f8af8e"/><path d="M269.15,400.79a6.67,6.67,0,0,1-1.36,9.35c-.33-.93-.62-1.7-.9-2.47C267.9,405.46,266.18,402.36,269.15,400.79Z" transform="translate(-74.25 -119.28)" style="fill:#facea4"/><path d="M264.47,396.68c.41.61.83,1.22,1.25,1.82-2.6-1.34-4.54.2-5.64.94l-7.9-1.23c.33-.72.66-1.43,1-2.15C256.87,397.52,260.58,398.74,264.47,396.68Z" transform="translate(-74.25 -119.28)" style="fill:#f8af8e"/><path d="M274.26,406.53c.12-1.51.23-3,.34-4.52,1.33-.52,2.49-.8,2.7,1.25,0,.37.67.68,1,1-.1.41-.21.82-.31,1.23-.64.24-1.26.54-1.91.72A16.21,16.21,0,0,1,274.26,406.53Z" transform="translate(-74.25 -119.28)" style="fill:#fabf9a"/><path d="M274.26,406.53a16.21,16.21,0,0,0,1.85-.3c.65-.18,1.27-.48,1.91-.72-.85,2.7-2.69,4.28-5.69,5.27C273.11,409.06,273.69,407.8,274.26,406.53Z" transform="translate(-74.25 -119.28)" style="fill:#f8af8e"/><path d="M278.33,404.28c-.36-.34-1-.65-1-1-.21-2.05-1.37-1.77-2.7-1.25l3.25-1Z" transform="translate(-74.25 -119.28)" style="fill:#f8af8e"/><path d="M279.31,407.67c.22,1.24.35,2.41-1.54,2.14Z" transform="translate(-74.25 -119.28)" style="fill:#a9a8a8"/><path d="M260,575.71l.31-.59Z" transform="translate(-74.25 -119.28)" style="fill:#898a8a"/><path d="M262,433.91c1.46,11.56,11.84,19.22,23,19.68,6.22.26,12.49-.27,18.95-.45a8.83,8.83,0,0,1-2.17,1.25c-10.39,2.46-20.73,2.94-30.16-2.94-6.22-3.88-10.83-9.31-11.15-17.25Z" transform="translate(-74.25 -119.28)" style="fill:#2e5c8b"/><path d="M273.11,318.31a.69.69,0,0,1-.42-.12l-2-.94c-10.29-4.17-18.3-10.62-20.93-22-1.91-8.24-3.22-16.62-5.15-24.85a26.39,26.39,0,0,0-3.78-8.5,68.19,68.19,0,0,1-8.25-18.12c-.27-.87-1-2.21,1-1.82l11.51,3.5c1.72.72,1.75-.21,1.3-1.4a29.49,29.49,0,0,0-1.35-2.77c2.57-11.82,11.26-14.71,22-14.87a7.73,7.73,0,0,0-2.66-2.17c-4.78-1.88-9.17-.89-13.16,2.16-3.47,2.65-5.4,6.33-6.76,10.37-.23-3.33-.47-6.66-.7-10a112.07,112.07,0,0,1,27.08-11.34c16-4.52,32.31-5.39,48.79-3.58a11.83,11.83,0,0,1,2.53.91c-5.11,3.29-5.25,3.42-5.74,5.61a26.76,26.76,0,0,1,14.63-2.77c0,.75,0,1.5,0,2.25l-3.41,9.16c-.43.51-.76,1.23-1.31,1.5-3.92,1.86-6.51,4.29-7.33,7.46,6.86-7.88,14.87-8.61,23.77-4.15a15.8,15.8,0,0,0-11.2-4.34,16.93,16.93,0,0,1-2.89-.48l4.65-1.78c.52.26,1.15.85,1.55.72,3.44-1.15,6.84-2.43,10.25-3.67l1.25,1.89c-.23.4-.73.86-.65,1.18A27.64,27.64,0,0,0,352,236.6a13,13,0,0,1,2.62,3.54c1.17,3.32,2,6.76,2.93,10.17,1.17,4.43,2.15,8.91,3.48,13.28.59,2,1.88,3.69,2.76,5.57,2.57,5.51.95,10.88-1.12,16-3.48,8.59-9.65,15.1-17.16,20.38a64.38,64.38,0,0,1-6.89,4.53,69.72,69.72,0,0,1-8.34,3.57c-5.27,2-10.53,4-15.92,5.57-1.71.49-4.22,1.3-5.68-1.13l1.15-.63.82.53.37-1.53,1.23-1.91c-4.1,2.57-8.38,2.65-13,2.26l2.1,1.43L303,320.5c-4.19,0-8.27.13-12.33,0-4.88-.2-9.75-.67-14.63-1h0Zm29.22-36.13c.33-.16.9-.26.94-.48.65-3-2.25-9.07-5.21-11.05-2-.44-4-1.45-5.84-1.18-4,.6-6.75,4.35-6.78,8.39,0,4.26,2.19,6.73,7.3,8.14l.77,1.19.93-1,1.14,0c1.55,1.69,3.3,1.17,4.52-1.34C300.84,283.92,301.59,283.05,302.33,282.18ZM283.46,292c-.91-1.4-1.82-2.75-1.14-4.63a2.48,2.48,0,0,0-.7-2.08c-2.08-1.86-4.07-4-6.52-5.21-2.68-1.3-5.88-2.39-8.75-2.17-3.09.23-7.21-.36-8.75,4-.13.37-.84.67-1.33.76-3.3.63-4.86,3.78-3.47,7,1.28,2.92,3.06,5.17,6.28,6.25,4.16,1.4,8.08,2.33,12.63,1,2.49-.7,5.53-2.26,8.37-.36a2.92,2.92,0,0,1,4.43.9c2.11,3,4.26,6.06,6.13,9.24,4,6.74,7.49,9.13,17.05,6.9,8.38-1.95,11.23-9,13.7-16.17,1.62-4.76,3.5-9.42,5.27-14.13,1.12-.41,2.23-.84,3.36-1.21.81-.27,1.87-.91,2.43-.63a12.66,12.66,0,0,0,12-.05c3.22-1.59,7-2,9.47-5.27s2.68-7.53-.34-10.23a9.75,9.75,0,0,0-8-2.63c-2.65.35-5.4.38-7.9,1.17a25.72,25.72,0,0,0-7.63,3.75c-4.63,3.5-4.3,8.76-4.06,13.85-4.45,2.69-8.68,5.84-13.38,8-8.41,3.8-17.33,5.63-26.66,4.32C284.58,294.14,283.17,294,283.46,292ZM270,275.09c1.91-.59,5.26-1.65,8.61-2.65,1.79-.53,2.4-1.62,2-3.44-.79-3.34-1.16-6.83-2.32-10-1.84-5.06-4.34-9.86-9.37-12.6-4.4-2.39-8.92-3-13.23.17a10.66,10.66,0,0,0-4.14,12.21A39.28,39.28,0,0,0,256.32,269C259,273.25,263.44,274.85,270,275.09ZM323.73,265c4.28-.28,9.32-.28,14-2.92,5-2.79,7.66-6.88,7.62-12.43a28.87,28.87,0,0,0-1.67-9.47c-3.12-8.64-11.76-11-18.86-5.16-7.32,6-9.72,14.06-9.14,23.22C316.1,265.05,316.13,265.05,323.73,265ZM251,245.11c3.05-1.31,5.89-3.26,8.94-3.64s6.4.75,9.42,1.19C265.27,237.6,255.07,238.79,251,245.11Z" transform="translate(-74.25 -119.28)" style="fill:#facea4"/><path d="M234.8,169.15l7.32-1C234.4,165,228,169,222,169.64a48.24,48.24,0,0,1-4.28,4.73c-1.21,1-2.44.74-2.33-1.19a5,5,0,0,1,.85-2.56c2.13-3,4.4-5.82,6.59-8.72s4.05-5.88,6.45-8.47a115.79,115.79,0,0,1,10.95-10.53,39.21,39.21,0,0,1,9.78-6.26c6.2-2.55,12.34-5.64,19.38-5.37,3.77.15,7.54,0,11.31,0,.66,1,1.32,2.07,2.39,3.77H271.61l0,.73,6.05,2-.19.81-6.2.43,6.5,2.8-.21.83-5.21,1.12v.54l3.72,1.32,0,1h-9.32L266.6,148l7.31.9-5.86,4.61.57.74,6.32-2.86v1.14c-.35.85-.71,1.69-1.06,2.53l1.14.36.52-2.87c.69-1,1.4-1.92,2.07-2.91,4.29-6.29,8.59-12.63,14.48-17.52,3.53-2.94,7.67-5.14,11.54-7.67.35.35.75,1,1.05,1,2.72-.36,5.41-1.14,8.13-1.24,5.48-.21,11-.06,15.53-.06l-15,2.38.09.65,10.05,2.64-.13.77c-8.05.34-15.86,1.54-23.31,6l11.68,1.78L289.76,146l.13,1,5.89,1.73-12.22,4,33.36-2.54.08-.72-19.47-2.74c10.6-6.11,21.81-6.12,33-6.37l0-.77-19.87-3.27c10.59-4.88,20.81-3.3,31.06-1.14l.21-.88-18.52-7.58.11-.81,20.83.92-2.91-2.41c3.76,1.51,7.55,3,11.25,4.58a27.74,27.74,0,0,1,6.88,3.7c2.93,2.48,7.05,3.27,9.08,7.16,1.1,2.11,3.6,3.49,5.47,5.2l1.16,1.14h0l1.72,2.87v.57a7.24,7.24,0,0,0,.51,1.88A34.89,34.89,0,0,1,382.45,171c-.68-.33-.92-1.05-1.3-1.7-1.59-2.69-3.09-5.44-4.85-8-3.9-5.75-8.81-10.33-15.59-12.51-.59-.19-1.36.19-2,.3l-2.42.14c10.68,5.25,16.82,13.86,19.63,25.1-4,.11-7.35-1.63-10.53-3.88a14.76,14.76,0,0,0-3.22-1.3c-1.16-1.93-2.07-4.09-3.54-5.74-2.86-3.2-6-6.12-9.08-9.16h0a8.28,8.28,0,0,0-1.37-2A41.18,41.18,0,0,0,328.48,144c-2.48-.39-5.11.11-7.67.21l0,.84h4c.35.39.62.95,1.06,1.14,2.83,1.22,5.84,2.1,8.51,3.59,4.16,2.32,8.59,4.16,12.07,7.7,4.57,4.66,9.06,9.18,8.42,16.68-2.94.33-4.21-2.14-5.94-3.67-3.46-3-6.74-6.27-10.22-9.26-.69-.6-2-.5-3-.72-6.24-3.45-12.67-6.3-20.06-5.73-.72.23-1.44.45-2.14.71a2.12,2.12,0,0,0,.2.68c.65,0,1.29-.14,1.94-.23l2.86.56c6.53,3.15,13.63,5.13,18.87,10.76a33,33,0,0,1,7.44,13.43c.07.23-.27.59-.63,1.28a72.68,72.68,0,0,0-4.84-6.54,69.35,69.35,0,0,0-5.89-5.17l-.68.6c4.22,6.25,8.34,12.54,7.33,21.09-1.41-2.77-2.47-5.18-3.82-7.41a16.27,16.27,0,0,0-2.86-2.82c-3.1-3.38-6-7-9.38-10.06-2.14-1.94-4.69-3.89-8.72-3.53,2.66,1.66,4.75,2.86,6.73,4.22,3.93,2.71,7.42,5.83,9.08,10.52-.12,1.64-.14,3.22,2.26,2.9v1.69c-.18.51-.58,1-.52,1.52.46,3.65-.66,6.48-4,8.22-1.19-2.15-2.28-4.36-3.58-6.43-5.52-8.77-12.5-15.58-23.11-17.88-7-1.52-12.38.82-16.91,6l-7.33.64c-3.08,0-6.39-.81-8.71,2.2L263.09,183c-4.38-1.89-8.54-4.31-13.62-4.22-3,.06-6-.65-8.94-1-6.09.32-9.73,4.22-12.58,9-4.29,7.12-5.69,15-5.13,23.2.28,4.16.61,8.42,3.41,12l-1.14-5.77c.18-1.35.27-2.73.58-4.05a10.65,10.65,0,0,1,1.08-2.23l.8,2.49c1-2.67,1.7-4.48,2.39-6.29l.87.23a37.39,37.39,0,0,0-.55,5.13c.12,6.15.17,12.28,2,18.29,1.77,5.75,1.55,5.81-4.35,5.42-.77-.24-1.85-.24-2.27-.76-3.25-3.95-7-7.67-9.35-12.12s-5-8.9-4.61-14.55c.3-4.35-1.55-8.85-1.21-13.18.28-3.56,2.36-7,3.64-10.46-.54,2.37-1.09,4.73-1.63,7.1l.72.26,2.65-4.24.67.27a38.85,38.85,0,0,0-4.07,17.14c.09,6,2.24,11.38,5.35,17.16-.29-4.32-.78-7.88-.71-11.44a67.84,67.84,0,0,1,1.14-11c.62-3.39,1.78-6.68,2.7-10l-.69-.23-5.07,12.39c-.24-9.17,3.84-16.47,10.32-22.74l-.56-.54-5.8,3.43a12.38,12.38,0,0,1,8.17-8.12c3.82-1.33,7.78-2.24,11.78-3.37Zm8-22.93a7.22,7.22,0,0,0,2.33.2c3.18-.78,6.29-1.85,9.49-2.52,3.48-.73,7-1.14,10.54-1.69-1.26-.57-2.49-1.54-3.8-1.66a34.56,34.56,0,0,0-16.16,2.77c-2.67,1.07-5,2.83-7.56,4.28l.54.93Zm-14.9,17.21c1-.68,1.93-1.36,2.88-2.05l5.13-3.7a12.64,12.64,0,0,0,3.3-.47c3.54-1.5,7-1.8,10.53-.18-4.23,1.27-8.48,2.27-11.85,5.52,8.26-3.59,17-3.37,25.68-3.11l.11-1L250.54,155l3.16-1.82h3.41l-.06-.74c-6.4-.79-12.69-1.06-18.8,2.07-4.23,2.17-8,4.69-10.33,8.95l-.13.26Zm-.82,1.55-.48-.21c-.06.16-.22.36-.17.47s.29.15.45.22C227,165.3,227,165.14,227.11,165Z" transform="translate(-74.25 -119.28)" style="fill:#452410"/><path d="M335.72,160.55c1,.22,2.3.12,3,.72,3.48,3,6.76,6.22,10.22,9.26,1.73,1.53,3,4,5.94,3.67.64-7.5-3.85-12-8.42-16.68-3.48-3.54-7.91-5.38-12.07-7.7-2.67-1.49-5.68-2.37-8.51-3.59-.44-.19-.71-.75-1.06-1.14,4.91,1.29,9.93,2.29,14.7,4,3.49,1.24,6.66,3.4,10,5.15h0a15.63,15.63,0,0,0,1.56,2.95c1.75,2.12,4,3.88,5.43,6.19,2.69,4.5,4.94,9.27,7.34,13.94.92,1.8,1.75,3.64,2.61,5.47l1.16-.55q-2.75-6.56-5.48-13.1a14.76,14.76,0,0,1,3.22,1.3c3.18,2.25,6.5,4,10.53,3.88.56,1.24,1.19,2.46,1.65,3.75.41,1.13.63,2.33.94,3.5l.94-.45c-2.41-13.5-7.4-25.39-20.74-32,.69-.11,1.46-.49,2-.3,6.78,2.18,11.69,6.76,15.59,12.51,1.76,2.59,3.26,5.34,4.85,8,.38.65.62,1.37,1.3,1.7a34.89,34.89,0,0,0-4.93-19.48,7.24,7.24,0,0,1-.51-1.88c2.94,1.05,3.7,3.72,4.67,6.25.38,1,.59,2.21,1.31,2.77,3.47,2.73,3.38,6.62,4,10.41a18.93,18.93,0,0,0,2.14,6.28c2.22,4,2.73,8.42,2.73,12.78a153.62,153.62,0,0,1-1.16,16.16c-.06.61-1.51,1.07-2.32,1.6-2.91-2.35-5.69-4.89-8.77-7a98.79,98.79,0,0,0-9.72-5.65c-4.1-2.18-8.25-4.29-12.48-6.21-1.29-.58-2.91-.46-4.38-.66-.43-1.4-.81-2.82-1.29-4.21-2.71-7.94-7.13-14.64-14.1-19.52A12.32,12.32,0,0,1,335.72,160.55Z" transform="translate(-74.25 -119.28)" style="fill:#361c0e"/><path d="M341.45,124.44l2.91,2.41-20.83-.92-.11.81,18.52,7.58-.21.88c-10.25-2.16-20.47-3.74-31.06,1.14l19.87,3.27,0,.77c-11.16.25-22.37.26-33,6.37L317,149.49l-.08.72-33.36,2.54,12.22-4L289.89,147l-.13-1,21.93-7.68L300,136.55c7.45-4.44,15.26-5.64,23.31-6l.13-.77-10.05-2.64-.09-.65,15-2.38c-4.55,0-10-.15-15.53.06-2.72.1-5.41.88-8.13,1.24-.3,0-.7-.64-1.05-1l2.27-.61,1.18-.52,5.71-1.18h14l4.88,0,2.24,0,3.52,1.62,1.11,0,1.74.57Zm-19.84,2.61-.38-.12.06.21Z" transform="translate(-74.25 -119.28)" style="fill:#61331c"/><path d="M238.25,227.64c-.56-7.07-1.56-14.15-1.53-21.22,0-4,1.7-8,2.63-12.06l6.24-2.34c-1.33,4-3,8-3.89,12.13-1.2,5.53-1.34,11.18,1.11,16.52a2.48,2.48,0,0,0,2.28.78c5.26-3.61,11-5.91,17.1-7.91,9.91-3.27,20.12-4.78,30.39-5.86,9.26-1,18.59-1.24,27.89-1.81,4.74-.28,6.6-1.9,7.47-6.58l3.12,12.26c-3.87-.39-7.75-.65-11.59-1.21a114.36,114.36,0,0,0-31.79,0,123.13,123.13,0,0,0-42.46,13.52Z" transform="translate(-74.25 -119.28)" style="fill:#4373af"/><path d="M227.92,235.11c5.9.39,6.12.33,4.35-5.42-1.84-6-1.89-12.14-2-18.29a37.39,37.39,0,0,1,.55-5.13l-.87-.23c-.69,1.81-1.38,3.62-2.39,6.29-.45-1.41-.63-2-.8-2.49v-1.69c.39-.44,1-.84,1.12-1.34.47-2.46.78-5,1.19-7.44.9-5.31,4.25-9.29,7.47-13.26,1.52-1.88,3.71-3.23,5.52-4.75l-3.23-1.88,1.71-1.72c3,.37,6,1.08,8.94,1,5.08-.09,9.24,2.33,13.62,4.22l-3,1.1c-3.46-.78-6.89-2-10.38-2.2a8.52,8.52,0,0,0-8.67,5.31c-2.1,4.88-4.37,9.72-6,14.76-.76,2.34-.33,5.12-.17,7.69.25,4.21,1.14,8.43,1,12.62-.17,5,.19,9.68,3.87,13.76l-2.48,1.31c.4.25.82.37.92.62.39,1,.67,2,1,3-.8-.17-2-.07-2.34-.56-1.77-2.89-5.17-2.07-7.5-3.55A7,7,0,0,1,227.92,235.11Z" transform="translate(-74.25 -119.28)" style="fill:#361c0e"/><path d="M234.69,283.91a1,1,0,0,1-.42-.22l-1.2-1a23.46,23.46,0,0,1-9-20.41c.12-2.11,1.8-4.13,2.76-6.19l3.55,3,.51.52.06.07c-2.67,1-4.92,2.33-4.39,6a4.93,4.93,0,0,0,.61-.73c1.5-3.27,2.75-3.51,5.17-1.08.18.18.91-.17,1.38-.28,1.47,1.4,3,2.75,4.39,4.22,1,1.07,1.83,2.31,2.74,3.47-.48.64-1.26,1.24-1.36,1.93a21.05,21.05,0,0,0,0,4.56c.21,2.93-.49,5.41-3.06,7.11a.48.48,0,0,1-.43-.27Z" transform="translate(-74.25 -119.28)" style="fill:#facea4"/><path d="M230.27,240.39c.95,3.52,1.79,7.07,2.88,10.55,1.49,4.77,4.31,8.84,7.11,12.93,1.15,1.67,1.69,3.76,2.51,5.66a15.93,15.93,0,0,1-2.23-1.82c-1.74-2-3.28-4.23-5.09-6.19-2.75-3-5.9-5.65-8.38-8.83-1.28-1.63-.88-4.86-2.32-6-1.66-1.32-3.39-2.12-4.19-4.36-1.44-4.06-3.24-8-4.76-12a6.44,6.44,0,0,1,.14-2.52c.74.42,1.78.66,2.19,1.29A37,37,0,0,0,230.27,240.39Z" transform="translate(-74.25 -119.28)" style="fill:#452410"/><path d="M234.8,169.15l4.29.95c-4,1.13-8,2-11.78,3.37a12.38,12.38,0,0,0-8.17,8.12l5.8-3.43.56.54c-6.48,6.27-10.56,13.57-10.32,22.74l5.07-12.39.69.23c-.92,3.33-2.08,6.62-2.7,10a67.84,67.84,0,0,0-1.14,11c-.07,3.56.42,7.12.71,11.44-3.11-5.78-5.26-11.14-5.35-17.16a38.85,38.85,0,0,1,4.07-17.14l-.67-.27-2.65,4.24-.72-.26c.54-2.37,1.09-4.73,1.63-7.1l.06-1.1,2.83-4.05.62-1.11,1.14-1.73A29.07,29.07,0,0,1,234.8,169.15Z" transform="translate(-74.25 -119.28)" style="fill:#61331c"/><path d="M238.25,227.64l7-3.76a123.13,123.13,0,0,1,42.46-13.52,114.36,114.36,0,0,1,31.79,0c3.84.56,7.72.82,11.59,1.21,0,.75,0,1.5-.05,2.25l-8.8-1a11.83,11.83,0,0,0-2.53-.91c-16.48-1.81-32.75-.94-48.79,3.58a112.07,112.07,0,0,0-27.08,11.34l-4.93,3.26Z" transform="translate(-74.25 -119.28)" style="fill:#3a5373"/><path d="M260.05,184.1l3-1.1,6.12-1.27,8.71-2.2,7.33-.64,4-.55,3.44-.11c5-.17,9.94-.48,14.91-.41,1.74,0,3.47,1,5.21,1.57a165.89,165.89,0,0,0-31.09,1.81c-12.24,2.07-24.27,4.87-35.55,10.27l-.56.53-.06,0-6.24,2.34c.59-.82,1-2.05,1.8-2.4C247.41,189.25,253.74,186.7,260.05,184.1Z" transform="translate(-74.25 -119.28)" style="fill:#3a5373"/><path d="M274.94,151.38l-6.32,2.86-.57-.74,5.86-4.61-7.31-.9.08-1.39H276l0-1-3.72-1.32v-.54l5.21-1.12.21-.83-6.5-2.8,6.2-.43.19-.81-6.05-2,0-.73h11.44c-1.07-1.7-1.73-2.74-2.39-3.77a14.53,14.53,0,0,1,3.88,1.39,2.76,2.76,0,0,1,.38,2.68A57.59,57.59,0,0,0,274.94,151.38Z" transform="translate(-74.25 -119.28)" style="fill:#361c0e"/><path d="M236.36,284.87c2.57-1.7,3.27-4.18,3.06-7.11a21.05,21.05,0,0,1,0-4.56c.1-.69.88-1.29,1.36-1.93l1.94,2.34c2.38,4.13,2.44,8.75,3.08,13.54C242.16,287.59,239.05,287.15,236.36,284.87Z" transform="translate(-74.25 -119.28)" style="fill:#f8af8e"/><path d="M238.88,230.08l4.93-3.26c.23,3.33.47,6.66.7,10l.57,4.51a29.49,29.49,0,0,1,1.35,2.77c.45,1.19.42,2.12-1.3,1.4-.63-1.33-1.35-2.62-1.89-4C241.75,237.71,240.33,233.89,238.88,230.08Z" transform="translate(-74.25 -119.28)" style="fill:#f8af8e"/><path d="M331.72,122.15l-4.88,0h-14c.67-.32,1.34-.91,2-.92C320.46,121.12,326.18,120.09,331.72,122.15Z" transform="translate(-74.25 -119.28)" style="fill:#452410"/><path d="M233.69,263.58c-.47.11-1.2.46-1.38.28-2.42-2.43-3.67-2.19-5.17,1.08a4.93,4.93,0,0,1-.61.73c-.53-3.63,1.72-4.95,4.39-6Z" transform="translate(-74.25 -119.28)" style="fill:#9f5e42"/><path d="M217,178.89l-2.83,4.05C214.26,181,214.86,179.39,217,178.89Z" transform="translate(-74.25 -119.28)" style="fill:#452410"/><path d="M275.54,152.54l-.52,2.87-1.14-.36c.35-.84.71-1.68,1.06-2.53Z" transform="translate(-74.25 -119.28)" style="fill:#361c0e"/><path d="M337.48,123.8,334,122.18Z" transform="translate(-74.25 -119.28)" style="fill:#452410"/><path d="M377,149.09l-1.72-2.87Z" transform="translate(-74.25 -119.28)" style="fill:#361c0e"/><path d="M340.33,124.4l-1.74-.57Z" transform="translate(-74.25 -119.28)" style="fill:#452410"/><path d="M218.77,176.05l-1.14,1.73Z" transform="translate(-74.25 -119.28)" style="fill:#452410"/><path d="M375.29,146.22l-1.16-1.14Z" transform="translate(-74.25 -119.28)" style="fill:#361c0e"/><path d="M307.08,123.31l-1.18.52Z" transform="translate(-74.25 -119.28)" style="fill:#452410"/><path d="M230.86,259.64l-.51-.52Z" transform="translate(-74.25 -119.28)" style="fill:#9f5e42"/><path d="M242.91,270.5c.15.25.31.49.46.73C243.22,271,243.06,270.75,242.91,270.5Z" transform="translate(-74.25 -119.28)" style="fill:#452410"/><path d="M276.06,319.44c4.88.35,9.75.82,14.63,1,4.06.17,8.14,0,12.33,0l-1.69-2.28,7.36-.15c1.46,2.43,4,1.62,5.68,1.13,5.39-1.56,10.65-3.6,15.92-5.57a69.72,69.72,0,0,0,8.34-3.57,64.38,64.38,0,0,0,6.89-4.53c7.51-5.28,13.68-11.79,17.16-20.38,2.07-5.11,3.69-10.48,1.12-16-.88-1.88-2.17-3.61-2.76-5.57-1.33-4.37-2.31-8.85-3.48-13.28-.91-3.41-1.76-6.85-2.93-10.17A13,13,0,0,0,352,236.6a27.64,27.64,0,0,1-6.19-11.21c-.08-.32.42-.78.65-1.18,2.28,3.26,4.3,6.75,6.91,9.73a16.92,16.92,0,0,1,4.24,8.19c1,5.13,2,10.27,3.27,15.33a16.43,16.43,0,0,0,4.95,8.31c.65-7,1.3-14,2-21,2.33-3.77,4.31-7.84,7.08-11.25,3.36-4.14,8.19-4.34,12.56-1.29,6.68,4.65,8.5,13.8,4.18,21.14-4.85,8.26-12.26,12.52-21.58,13.77-.35.05-.7.13-1.82.32l4.7,1.05a32.78,32.78,0,0,1-7.86,23.54c-9.13,11.11-21.19,18.15-34.11,23.85-11.1,4.9-22.64,8.11-34.9,7.46C289.23,323.05,282.37,322.53,276.06,319.44Zm95.62-74.21.49,1.2c3.41-2.07,6.37-5.75,11.09-3.13l-.06-1.57-6.7-1c1.4-2,3.25-3.53,5.86-3,4.36.88,5,4.66,6,8.94.1-1.4.18-2,.2-2.67.1-3.73-1.59-6.24-5.16-7.72-2.66-1.1-5.06-.43-7.49,2.54A72.54,72.54,0,0,0,371.68,245.23Z" transform="translate(-74.25 -119.28)" style="fill:#f8af8e"/><path d="M353.5,194.38c.24-1.82.47-3.64.8-6.19,3,1.21,6.17,2.08,8.92,3.69,7.08,4.15,14.19,8.34,20.88,13.08,5.63,4,8.1,9.86,7.22,16.89a19.34,19.34,0,0,1-.86,2.68c-3.62-3.16-6.6-6.81-11.48-7.29,1.85,1.37,3.94,2.52,5.48,4.17a50.86,50.86,0,0,1,5.3,7.21c.37.57-.11,1.69-.21,2.56a12.62,12.62,0,0,0-9.71-2.41,27.41,27.41,0,0,0-3.9,1.12c-6.3-3.42-12.53-7-18.93-10.19-3.49-1.74-7.29-2.87-11.05-4.31,1.25-2.21,2.34-4.16,3.44-6.11a.71.71,0,0,0,.11-.55h0C352.37,204.38,353.15,199.44,353.5,194.38Z" transform="translate(-74.25 -119.28)" style="fill:#4373af"/><path d="M367.8,244.81c-.66,7-1.31,13.94-2,21a16.43,16.43,0,0,1-4.95-8.31c-1.31-5.06-2.3-10.2-3.27-15.33a16.92,16.92,0,0,0-4.24-8.19c-2.61-3-4.63-6.47-6.91-9.73-.41-.63-.83-1.26-1.25-1.89l-3.31-3-8.49,6-4.65,1.78h-1q1.71-4.58,3.41-9.16c1.64-.07,1.52-.09,1.74-2,.62-5.3-.87-10.24-2.4-15.17a28.26,28.26,0,0,0-1.63-3.49c3.39-1.74,4.51-4.57,4-8.22-.06-.48.34-1,.52-1.52.47.57,1.22,1.08,1.37,1.73.78,3.21,1.49,6.44,2,9.7a25.33,25.33,0,0,1,0,4.27l.83,0c0-3.33.54-6.78-.14-10-.84-3.93-2.7-7.64-4.12-11.44a16.27,16.27,0,0,1,2.86,2.82c1.35,2.23,2.41,4.64,3.82,7.41,1-8.55-3.11-14.84-7.33-21.09l.68-.6a69.35,69.35,0,0,1,5.89,5.17A72.68,72.68,0,0,1,344.2,182c.36-.69.7-1,.63-1.28a33,33,0,0,0-7.44-13.43c-5.24-5.63-12.34-7.61-18.87-10.76.42-.15.92-.54,1.23-.42,4.76,1.82,10,3,14.1,5.77A55.57,55.57,0,0,1,346,173.71c3.58,4.6,5.21,10.35,5.69,16.21a52.37,52.37,0,0,1-.27,9.93,88.93,88.93,0,0,1-1.87,8.89h0l-.59.53c-2.84,2.28-5.76,4.52-4.43,9l2.15.21A28.2,28.2,0,0,0,353,230.63a36.65,36.65,0,0,1,6.09,10.69c1.41,3.66,1.69,7.74,2.59,11.6a7.69,7.69,0,0,0,1.46,2.19,8.48,8.48,0,0,0,1.28-2.06c.33-1.17.8-2.56.45-3.6-.91-2.74.63-4.89,1.36-7.19.44-1.39,1.63-2.56,2.48-3.82Z" transform="translate(-74.25 -119.28)" style="fill:#361c0e"/><path d="M368.7,238.44c-.85,1.26-2,2.43-2.48,3.82-.73,2.3-2.27,4.45-1.36,7.19.35,1-.12,2.43-.45,3.6a8.48,8.48,0,0,1-1.28,2.06,7.69,7.69,0,0,1-1.46-2.19c-.9-3.86-1.18-7.94-2.59-11.6A36.65,36.65,0,0,0,353,230.63a28.2,28.2,0,0,1-6.35-12.14c1.41,0,3-.48,4.2,0,3.88,1.58,7.62,3.52,11.43,5.3a36.54,36.54,0,0,1,5.27,2.42c2.42,1.65,4.39,4.08,7.74,3.84Zm-6.87,10.78,0,.43c.06-.07.15-.13.15-.2S361.87,249.3,361.83,249.22Z" transform="translate(-74.25 -119.28)" style="fill:#452410"/><path d="M312,325c.49-.52.89-1.32,1.49-1.5,4.87-1.5,9.79-2.88,14.69-4.29a67.62,67.62,0,0,1,3.38,6.69,21.25,21.25,0,0,1,.7,4.84l-5.53,10C320.61,337.57,314,330.38,312,325Z" transform="translate(-74.25 -119.28)" style="fill:#facea4"/><path d="M299.47,326.25l2.87-1.08,6.39,0a36.69,36.69,0,0,0,1.32,4.59c.9,2.12.3,3.62-1.38,5-2.64,2.11-5.25,4.28-7.87,6.42Q300.14,333.69,299.47,326.25Z" transform="translate(-74.25 -119.28)" style="fill:#5596e2"/><path d="M336.86,315.93c6.83,1.78,7.1,6.49,6.51,12.68-.17,1.74-1.26,3.39-1.92,5.09l-7.93-1.32.05-.7.53-.76c2.38-4.76,3.46-9.66,1.69-14.88Z" transform="translate(-74.25 -119.28)" style="fill:#5596e2"/><path d="M333.57,331.68c0,.23,0,.46-.05.7.16.62.31,1.24.46,1.86a18.53,18.53,0,0,0-2.81,2.55c-1.39,1.9-2.57,4-4.23,6.58-2.51-1.88-4.86-3.67-7.25-5.4-1.36-1-2.24-3-4.5-2.24,0-.48-.08-1-.13-1.43l-5.14-9.21,2.11,0c2,5.34,8.58,12.53,14.73,15.75l5.53-10c.77-2.48,1.55-5,2.33-7.45-.31-1.41-.57-2.83-.93-4.23-.46-1.85.14-2.91,2.1-3.06,1.77,5.22.69,10.12-1.69,14.88Z" transform="translate(-74.25 -119.28)" style="fill:#3a5373"/><path d="M375.28,230.05c-3.35.24-5.32-2.19-7.74-3.84a36.54,36.54,0,0,0-5.27-2.42c-3.81-1.78-7.55-3.72-11.43-5.3-1.2-.48-2.79,0-4.2,0l-2.15-.21c-1.33-4.5,1.59-6.74,4.43-9a3.85,3.85,0,0,0,.48,0c-1.1,1.95-2.19,3.9-3.44,6.11,3.76,1.44,7.56,2.57,11.05,4.31,6.4,3.21,12.63,6.77,18.93,10.19Z" transform="translate(-74.25 -119.28)" style="fill:#182945"/><path d="M309.92,325.09l5.14,9.21-13.58,9.39-.68-2.56c2.62-2.14,5.23-4.31,7.87-6.42,1.68-1.35,2.28-2.85,1.38-5a36.69,36.69,0,0,1-1.32-4.59Z" transform="translate(-74.25 -119.28)" style="fill:#4373af"/><path d="M334.62,323.33c-.78,2.48-1.56,5-2.33,7.45a21.25,21.25,0,0,0-.7-4.84,67.62,67.62,0,0,0-3.38-6.69l3.33-1.7Z" transform="translate(-74.25 -119.28)" style="fill:#f8af8e"/><path d="M273.11,318.31l2.95,1.13Z" transform="translate(-74.25 -119.28)" style="fill:#f8af8e"/><path d="M270.69,317.25l2,.94Z" transform="translate(-74.25 -119.28)" style="fill:#f8af8e"/><path d="M233.07,282.71l1.2,1Z" transform="translate(-74.25 -119.28)" style="fill:#f8af8e"/><path d="M234.69,283.91l1.24.69Z" transform="translate(-74.25 -119.28)" style="fill:#f8af8e"/><path d="M285.66,388.21c-2.27,2.73-5.42,2.23-8.41,2.29q.92-6.12,1.85-12.24l2,.64-2.28-3.22c2.79.21,4.77-.74,5.47-3.68.09-.38.63-.65,1-1,3.49,3.09,4.09,7.06,3.44,11.4l-.82,1.14-.16.07Z" transform="translate(-74.25 -119.28)" style="fill:#f8af8e"/><path d="M285.24,371c-.33.32-.87.59-1,1-.7,2.94-2.68,3.89-5.47,3.68-5.55-4.84-11.74-6.43-18.8-3.79,1.68-3.86,5-5.69,8.83-6.09C275,365.17,280.73,366.3,285.24,371Z" transform="translate(-74.25 -119.28)" style="fill:#facea4"/><path d="M284.62,367.73c1.82-.25,3.83-.28,3.18-3.11-.06-.24.5-.76.88-1,1.9-1,3.83-2,5.75-3-.67,3.82-1.72,4.87-4.56,4.58l-.28-.11.24.15c.32,1,.6,1.94,1,2.87.95,2.32,2.29,4.53,2.85,6.93s-.82,4.12-2.8,5.74c-.38-1.87-.68-3.3-1-4.72A12.71,12.71,0,0,0,284.62,367.73Z" transform="translate(-74.25 -119.28)" style="fill:#4373af"/><path d="M300.8,341.13l.68,2.56,13.58-9.39c.05.48.09.95.13,1.43-2.68,2.07-5.53,4-8,6.25a77.3,77.3,0,0,0-5.95,6.81c-2.4-7.41-4.28-14.72-3.34-22.51l1.58,0Q300.15,333.69,300.8,341.13Z" transform="translate(-74.25 -119.28)" style="fill:#2e5c8b"/><path d="M289.87,365.26c2.84.29,3.89-.76,4.56-4.58,0-.18,0-.36.05-.54s.31-.44.47-.65.05-.34.08-.51l.58-.06c-.05,1.23.33,2.73-.24,3.64-2.28,3.7-1.35,7.24-.34,11.05,1.24,4.65-.65,7.85-5.15,10.05,0-2.51,0-5,0-7.54.29,1.42.59,2.85,1,4.72,2-1.62,3.33-3.47,2.8-5.74s-1.9-4.61-2.85-6.93c-.39-.93-.67-1.91-1-2.87Z" transform="translate(-74.25 -119.28)" style="fill:#2e5c8b"/><path d="M285.66,388.21l2-4.57c0,.83-.05,1.66-.07,2.49C287.63,387.44,287.43,388.57,285.66,388.21Z" transform="translate(-74.25 -119.28)" style="fill:#9f5e42"/><path d="M287.86,383.57l.82-1.14Z" transform="translate(-74.25 -119.28)" style="fill:#9f5e42"/><path d="M279.1,378.26q-.93,6.12-1.85,12.24l-11.52,2.39c-3.45-1.19-6.87-2.52-10.37-3.5-1.72-.48-1.92-1.19-1.36-2.62,1.29-3.27,2.62-6.53,3.78-9.84a6.13,6.13,0,0,1,5.09-4.05A16.88,16.88,0,0,1,279.1,378.26Z" transform="translate(-74.25 -119.28)" style="fill:#facea4"/><path d="M249.07,394.51l-4.61.59c1.33-3.8,4.7-4.47,7.9-4.32s6.25,1.36,9.38,2.1c-.95,2.38-2.56,2.84-5.09,1.74a14.9,14.9,0,0,0-3.52-.61Z" transform="translate(-74.25 -119.28)" style="fill:#fabf9a"/><path d="M253.13,394a14.9,14.9,0,0,1,3.52.61c2.53,1.1,4.14.64,5.09-1.74l2.73,1.45C260.14,397.8,256.65,395.56,253.13,394Z" transform="translate(-74.25 -119.28)" style="fill:#f8af8e"/><path d="M349.5,208.74a88.93,88.93,0,0,0,1.87-8.89,52.37,52.37,0,0,0,.27-9.93c-.48-5.86-2.11-11.61-5.69-16.21a55.57,55.57,0,0,0-12.1-11.82c-4.11-2.79-9.34-3.95-14.1-5.77-.31-.12-.81.27-1.23.42l-2.86-.56v-1.16c7.39-.57,13.82,2.28,20.06,5.73a12.32,12.32,0,0,0,1.88,2.11c7,4.88,11.39,11.58,14.1,19.52.48,1.39.86,2.81,1.29,4.21l.51,8C353.15,199.44,352.37,204.38,349.5,208.74Z" transform="translate(-74.25 -119.28)" style="fill:#2d170e"/><path d="M258.3,454.75l1,1.19Z" transform="translate(-74.25 -119.28)" style="fill:#3a5373"/><path d="M319.18,466.65l-1.19.1-.05-.33,1.19-.18Z" transform="translate(-74.25 -119.28)" style="fill:#082f63"/><polygon points="186.38 338.1 186.58 338.1 186.58 338.3 186.38 338.1" style="fill:#3a5373"/><path d="M287.38,434.84c15.91.77,30.23-3.59,43.19-12.29s23.08-19.39,27.11-35.61c.95,4-.12,7-1.35,9.92-3.58,8.61-9.73,15.26-16.6,21.25a75.34,75.34,0,0,1-25.28,14.75c-8,2.72-16.13,4.66-24.66,2.91A14.78,14.78,0,0,1,287.38,434.84Z" transform="translate(-74.25 -119.28)" style="fill:#2e5c8b"/><path d="M334,334.24c-.15-.62-.3-1.24-.46-1.86l7.93,1.32,5.76,2.93,2.05,2.63.3-2.74.66.1c0,.95-.07,1.9-.11,2.85l-.63,1.13C345,336.76,339.55,335.37,334,334.24Z" transform="translate(-74.25 -119.28)" style="fill:#2e5c8b"/><path d="M349.48,340.6l.63-1.13Z" transform="translate(-74.25 -119.28)" style="fill:#4373af"/><path d="M295.61,358.92,295,359Z" transform="translate(-74.25 -119.28)" style="fill:#4373af"/><path d="M295,359.49c-.16.21-.31.43-.47.65C294.64,359.92,294.79,359.7,295,359.49Z" transform="translate(-74.25 -119.28)" style="fill:#4373af"/><path d="M349.56,336.52l-.3,2.74-2.05-2.63,1.09-1.16,1.27,0C349.56,335.84,349.56,336.18,349.56,336.52Z" transform="translate(-74.25 -119.28)" style="fill:#3a5373"/><path d="M382.09,622.3l11-.07c-.27.7-.47,1.43-.8,2.1-1.11,2.25-4.85,3.57-7.82,2.95S381.82,624.48,382.09,622.3Z" transform="translate(-74.25 -119.28)" style="fill:#3b81c9"/><path d="M380.4,616.3c1.49-3,7.27-4.69,11.82-3,1.19.44,4,.49,3,3Z" transform="translate(-74.25 -119.28)" style="fill:#3b81c9"/><path d="M382.09,622.3c-.27,2.18-.65,4.35,2.4,5s6.71-.7,7.82-2.95c.33-.67.53-1.4.8-2.1.45.37,1.34.87,1.27,1.09a11.81,11.81,0,0,1-1.53,3.63c-2,2.76-10.08,2.75-12.27.09A3,3,0,0,1,382.09,622.3Z" transform="translate(-74.25 -119.28)" style="fill:#2e5c8b"/><path d="M380.9,620.49c.05-1.85.85-3.06,3.22-2.87,3.11.25,6.23.27,9.33.61.65.07,1.2,1,1.8,1.62a9.59,9.59,0,0,1-2.29.61C389,620.52,385,620.49,380.9,620.49Z" transform="translate(-74.25 -119.28)" style="fill:#3b81c9"/><path d="M270,275.09c-6.54-.24-10.94-1.84-13.66-6.09a39.28,39.28,0,0,1-4.83-10.26,10.66,10.66,0,0,1,4.14-12.21c4.31-3.13,8.83-2.56,13.23-.17,5,2.74,7.53,7.54,9.37,12.6,1.16,3.21,1.53,6.7,2.32,10,.44,1.82-.17,2.91-2,3.44C275.24,273.44,271.89,274.5,270,275.09Zm5.22-6.73.34-2.61a33.19,33.19,0,0,0-.89-4.71c-1.15-3.42-4.89-4.91-7.2-3-1.08-1.14-2.3-1.76-3.64-.48-1.61,1.55-.9,3,.33,4.43,0,1.11,0,2.23-.07,3.35-2.35,1.55.11,2.8.26,4.2-2.82-.85-2.68-3.25-3.16-5.53-1.31-6.22,3.16-11.45,9.26-10.55.68.1,1.36.08,2.16.12l-.5-1.28c-.32-3-2.79-3.75-4.93-4.86l-2.53-.83h-5.16c-4,.8-6.08,3.62-6.62,7.29-.94,6.34,2.26,11.36,6.14,15.95.54.65,1.85.66,2.8,1,1.13,2.52,3.25,2.57,5.69,2.86,3.91.45,6.66-1.51,9.55-3.36,1.67-1.08,1.77-4.25.42-5.74Z" transform="translate(-74.25 -119.28)" style="fill:#61331c"/><path d="M326,282c-.24-5.09-.57-10.35,4.06-13.85a25.72,25.72,0,0,1,7.63-3.75c2.5-.79,5.25-.82,7.9-1.17a9.75,9.75,0,0,1,8,2.63c3,2.7,2.77,7,.34,10.23s-6.25,3.68-9.47,5.27a12.66,12.66,0,0,1-12,.05c-.56-.28-1.62.36-2.43.63-1.13.37-2.24.8-3.36,1.21Zm16.49-13.91c-1.1-2.25-2.88-2.14-4.76-1.26s-3.51,1.88-5.31,2.71c-2.71,1.23-1.32,3.45-1.16,5.2a4.21,4.21,0,0,0,1.83,3c5.78,2.77,11.22,1.87,16.15-2.17,1.69-1.38,2.08-5.64.7-7.09C347.73,266.23,344.47,266,342.46,268.13Z" transform="translate(-74.25 -119.28)" style="fill:#fabf9a"/><path d="M323.73,265c-7.6,0-7.63,0-8.05-6.76-.58-9.16,1.82-17.24,9.14-23.22,7.1-5.82,15.74-3.48,18.86,5.16a28.87,28.87,0,0,1,1.67,9.47c0,5.55-2.66,9.64-7.62,12.43C333.05,264.73,328,264.73,323.73,265Zm12.18-6.17,1.79-2.52,2.86,1.21c.71-.83,1.94-1.61,2-2.5.37-3.57.4-7.17.55-10.76l-.45-1.91-.74-2.09c-2.48-6.38-8.86-8.68-14.57-5-7.57,4.91-10.28,12.3-10,21,.09,1.35.18,2.69.26,4l.19.78c.41.72.78,2.05,1.23,2.08,2.82.19,5.66.1,8.48.1l.16-.75c-5.1-3-6.83-7.5-6.28-13.09l.41-.15.31.6,3.4-2.68c.19,1.35.38,2.7.56,4l-.11,3.19c-.18.84-.79,2-.45,2.47,1.05,1.42,2.27,3.23,3.78,3.69C331.58,261.32,334.29,261.49,335.91,258.84Z" transform="translate(-74.25 -119.28)" style="fill:#61331c"/><path d="M280.08,296.55c-2.84-1.9-5.88-.34-8.37.36-4.55,1.29-8.47.36-12.63-1-3.22-1.08-5-3.33-6.28-6.25-1.39-3.18.17-6.33,3.47-7,.49-.09,1.2-.39,1.33-.76,1.54-4.33,5.66-3.74,8.75-4,2.87-.22,6.07.87,8.75,2.17,2.45,1.18,4.44,3.35,6.52,5.21a2.48,2.48,0,0,1,.7,2.08c-.68,1.88.23,3.23,1.15,4.63Zm-2.27-8.8c1-3-2.05-3.29-3.84-4.88-3.84-3.41-14.31-1-16.76,2.37-1.08,1.45-1.43,2.63-.16,4.31,3.85,5.1,8.8,6.88,14.73,5C275.92,293.25,277.81,291.26,277.81,287.75Z" transform="translate(-74.25 -119.28)" style="fill:#fabf9a"/><path d="M280.08,296.55l3.39-4.53c-.3,2,1.11,2.12,2.46,2.31,9.33,1.31,18.25-.52,26.66-4.32,4.7-2.13,8.93-5.28,13.38-8l.69,1.25c-1.77,4.71-3.65,9.37-5.27,14.13-2.47,7.21-5.32,14.22-13.7,16.17-9.56,2.23-13.09-.16-17.05-6.9-1.87-3.18-4-6.21-6.13-9.24A2.92,2.92,0,0,0,280.08,296.55Zm42.38-9.35-3.36,2.37-.57.09a6.17,6.17,0,0,0-1.36.35,58.72,58.72,0,0,1-25.71,6.55,7.12,7.12,0,0,0-1.83.56l-3.23-.91a20.11,20.11,0,0,0,2.44,4.17c.88,1.35,1.56,2.84,2.46,4.17s2.06,2.66,3.1,4c.91,1,1.67,2.64,2.77,2.92a26.11,26.11,0,0,0,8.32.95c4.43-.35,10.54-4.09,10.86-8.54l2.29-4.31c.9-2.56,1.81-5.12,2.71-7.69l.08-1.1c.39-1.14.78-2.28,1.18-3.41l.21-.37Z" transform="translate(-74.25 -119.28)" style="fill:#9f5e42"/><path d="M328.85,197.24a28.26,28.26,0,0,1,1.63,3.49c1.53,4.93,3,9.87,2.4,15.17-.22,1.91-.1,1.93-1.74,2,0-.75,0-1.5,0-2.25L331,213.8c0-.75,0-1.5.05-2.25l-3.12-12.26c-3.55-7.76-8.27-14.63-15.09-19.9-1.74-.55-3.47-1.54-5.21-1.57-5-.07-9.94.24-14.91.41a10.07,10.07,0,0,1,2.86-1c4.1-.11,8.2,0,12.3,0-4.4-3.25-9.12-4.36-14-2.65-1.76.61-4.53.8-4.57,3.81l-4,.55c4.53-5.14,9.91-7.48,16.91-6,10.61,2.3,17.59,9.11,23.11,17.88C326.57,192.88,327.66,195.09,328.85,197.24Z" transform="translate(-74.25 -119.28)" style="fill:#2d170e"/><path d="M245.08,241.32l-.57-4.51c1.36-4,3.29-7.72,6.76-10.37,4-3.05,8.38-4,13.16-2.16a7.73,7.73,0,0,1,2.66,2.17C256.34,226.61,247.65,229.5,245.08,241.32Z" transform="translate(-74.25 -119.28)" style="fill:#61331c"/><path d="M295.58,286.14l-1.14,0-1.7-.16c-5.11-1.41-7.33-3.88-7.3-8.14,0-4,2.75-7.79,6.78-8.39,1.85-.27,3.88.74,5.84,1.18-.06.2-.11.41-.16.62-1.13-.11-2.26-.28-3.38-.3a6.86,6.86,0,0,0-6.8,4.16c-1.07,2.66-.36,5.36,2,7.62,1.3.41,2.65,1.28,3.89,1.14,2.94-.31,5.82-1.11,8.72-1.71-.74.87-1.49,1.74-2.23,2.62Z" transform="translate(-74.25 -119.28)" style="fill:#9f5e42"/><path d="M302.33,282.18c-2.9.6-5.78,1.4-8.72,1.71-1.24.14-2.59-.73-3.89-1.14,2.38-.35,5.31.06,7-1.2,3.17-2.34,4.85-5.09,1.17-10.28.05-.21.1-.42.16-.62,3,2,5.86,8.06,5.21,11.05C303.23,281.92,302.66,282,302.33,282.18Z" transform="translate(-74.25 -119.28)" style="fill:#fabf9a"/><path d="M327.73,227.06h1a16.93,16.93,0,0,0,2.89.48,15.8,15.8,0,0,1,11.2,4.34c-8.9-4.46-16.91-3.73-23.77,4.15.82-3.17,3.41-5.6,7.33-7.46C327,228.29,327.3,227.57,327.73,227.06Z" transform="translate(-74.25 -119.28)" style="fill:#9f5e42"/><path d="M331,213.8l.09,1.85a26.76,26.76,0,0,0-14.63,2.77c.49-2.19.63-2.32,5.74-5.61Z" transform="translate(-74.25 -119.28)" style="fill:#61331c"/><path d="M251,245.11c4.09-6.32,14.29-7.51,18.36-2.45-3-.44-6.31-1.58-9.42-1.19S254,243.8,251,245.11Z" transform="translate(-74.25 -119.28)" style="fill:#9f5e42"/><path d="M333.42,225.27l8.49-6,3.31,3c-3.41,1.24-6.81,2.52-10.25,3.67C334.57,226.12,333.94,225.53,333.42,225.27Z" transform="translate(-74.25 -119.28)" style="fill:#f8af8e"/><path d="M308.69,318.07l-7.36.15-2.1-1.43c4.65.39,8.93.31,13-2.26L311,316.44l-1.19,1Z" transform="translate(-74.25 -119.28)" style="fill:#9f5e42"/><path d="M295.58,286.14l4.52-1.34C298.88,287.31,297.13,287.83,295.58,286.14Z" transform="translate(-74.25 -119.28)" style="fill:#fabf9a"/><path d="M292.74,286l1.7.16-.93,1Z" transform="translate(-74.25 -119.28)" style="fill:#fabf9a"/><path d="M309.84,317.44l1.19-1c-.12.51-.24,1-.37,1.53Z" transform="translate(-74.25 -119.28)" style="fill:#f8af8e"/><path d="M253.7,153.13,250.54,155l13.17,3.47-.11,1c-8.72-.26-17.42-.48-25.68,3.11,3.37-3.25,7.62-4.25,11.85-5.52-3.53-1.62-7-1.32-10.53.18a12.64,12.64,0,0,1-3.3.47C241.3,154,247.47,153.43,253.7,153.13Z" transform="translate(-74.25 -119.28)" style="fill:#61331c"/><path d="M240.53,177.76l-1.71,1.72c-2.86,0-4.28,2-5.73,4-3.53,3.33-5.5,7.55-6.89,12.1-2.07,6.75-2,13.61-1.11,20.52l1.14,5.77c-2.8-3.56-3.13-7.82-3.41-12-.56-8.19.84-16.08,5.13-23.2C230.8,182,234.44,178.08,240.53,177.76Z" transform="translate(-74.25 -119.28)" style="fill:#2d170e"/><path d="M333.44,181.76c1.42,3.8,3.28,7.51,4.12,11.44.68,3.18.14,6.63.14,10l-.83,0a25.33,25.33,0,0,0,0-4.27c-.55-3.26-1.26-6.49-2-9.7-.15-.65-.9-1.16-1.37-1.73,0-.56,0-1.13,0-1.69l-2.26-2.9c-1.66-4.69-5.15-7.81-9.08-10.52-2-1.36-4.07-2.56-6.73-4.22,4-.36,6.58,1.59,8.72,3.53C327.45,174.77,330.34,178.38,333.44,181.76Z" transform="translate(-74.25 -119.28)" style="fill:#2d170e"/><path d="M358.66,149.08c13.34,6.65,18.33,18.54,20.74,32l-.94.45c-.31-1.17-.53-2.37-.94-3.5-.46-1.29-1.09-2.51-1.65-3.75-2.81-11.24-8.95-19.85-19.63-25.1Z" transform="translate(-74.25 -119.28)" style="fill:#2d170e"/><path d="M225.09,216.12c-.88-6.91-1-13.77,1.11-20.52,1.39-4.55,3.36-8.77,6.89-12.1h1.71c-3.48,5.33-6.5,10.87-7.46,17.27-.36,2.44-.4,4.93-.59,7.39v1.69a10.65,10.65,0,0,0-1.08,2.23C225.36,213.39,225.27,214.77,225.09,216.12Z" transform="translate(-74.25 -119.28)" style="fill:#61331c"/><path d="M362.12,169.14l5.48,13.1-1.16.55c-.86-1.83-1.69-3.67-2.61-5.47-2.4-4.67-4.65-9.44-7.34-13.94-1.39-2.31-3.68-4.07-5.43-6.19a15.63,15.63,0,0,1-1.56-2.95c3,3,6.22,6,9.08,9.16C360.05,165.05,361,167.21,362.12,169.14Z" transform="translate(-74.25 -119.28)" style="fill:#2d170e"/><path d="M253.7,153.13c-6.23.3-12.4.83-17.76,4.55l-5.13,3.7c-.95.69-1.92,1.37-2.88,2.05l0,0c2.34-4.26,6.11-6.78,10.34-8.95,6.11-3.13,12.4-2.86,18.8-2.07l.06.74Z" transform="translate(-74.25 -119.28)" style="fill:#2d170e"/><path d="M349.49,154.23c-3.32-1.75-6.49-3.91-10-5.15-4.77-1.7-9.79-2.7-14.7-4h-4l0-.84c2.56-.1,5.19-.6,7.67-.21a41.18,41.18,0,0,1,19.64,8.15A8.28,8.28,0,0,1,349.49,154.23Z" transform="translate(-74.25 -119.28)" style="fill:#2d170e"/><path d="M242.83,146.22l-4.62,2.31-.54-.93c2.51-1.45,4.89-3.21,7.56-4.28a34.56,34.56,0,0,1,16.16-2.77c1.31.12,2.54,1.09,3.8,1.66-3.74,0-7.58-.45-11.21.21C250.16,143.12,246.54,144.91,242.83,146.22Z" transform="translate(-74.25 -119.28)" style="fill:#2d170e"/><path d="M242.83,146.22c3.71-1.31,7.33-3.1,11.15-3.8,3.63-.66,7.47-.18,11.21-.21-3.51.55-7.06,1-10.54,1.69-3.2.67-6.31,1.74-9.49,2.52A7.22,7.22,0,0,1,242.83,146.22Z" transform="translate(-74.25 -119.28)" style="fill:#61331c"/><path d="M277.92,179.53l-8.71,2.2C271.53,178.72,274.84,179.57,277.92,179.53Z" transform="translate(-74.25 -119.28)" style="fill:#3b101e"/><path d="M331.15,182.91l2.26,2.9C331,186.13,331,184.55,331.15,182.91Z" transform="translate(-74.25 -119.28)" style="fill:#361c0e"/><path d="M315.66,154.82V156c-.65.09-1.29.19-1.94.23a2.12,2.12,0,0,1-.2-.68C314.22,155.27,314.94,155.05,315.66,154.82Z" transform="translate(-74.25 -119.28)" style="fill:#361c0e"/><path d="M227.11,165c-.07.16-.14.32-.2.48-.16-.07-.41-.1-.45-.22s.11-.31.17-.47Z" transform="translate(-74.25 -119.28)" style="fill:#2d170e"/><path d="M227.93,163.43l-.14.24.13-.26Z" transform="translate(-74.25 -119.28)" style="fill:#2d170e"/><path d="M321.61,127.05l-.32.09-.06-.21Z" transform="translate(-74.25 -119.28)" style="fill:#452410"/><path d="M312.85,179.39c6.82,5.27,11.54,12.14,15.09,19.9-.87,4.68-2.73,6.3-7.47,6.58-9.3.57-18.63.84-27.89,1.81-10.27,1.08-20.48,2.59-30.39,5.86-6.05,2-11.84,4.3-17.1,7.91a2.48,2.48,0,0,1-2.28-.78c-2.45-5.34-2.31-11-1.11-16.52.89-4.13,2.56-8.09,3.89-12.13l.06,0,.56-.53c11.28-5.4,23.31-8.2,35.55-10.27A165.89,165.89,0,0,1,312.85,179.39Z" transform="translate(-74.25 -119.28)" style="fill:#5596e2"/><path d="M234.81,183.49h-1.72c1.45-2,2.87-4,5.73-4l3.23,1.88c-1.81,1.52-4,2.87-5.52,4.75-3.22,4-6.57,7.95-7.47,13.26-.41,2.48-.72,5-1.19,7.44-.1.5-.73.9-1.12,1.34.19-2.46.23-5,.59-7.39,1-6.4,4-11.94,7.46-17.27l.14-.23Z" transform="translate(-74.25 -119.28)" style="fill:#452410"/><path d="M289.29,178.34c0-3,2.81-3.2,4.57-3.81,4.91-1.71,9.63-.6,14,2.65-4.1,0-8.2-.06-12.3,0a10.07,10.07,0,0,0-2.86,1Z" transform="translate(-74.25 -119.28)" style="fill:#361c0e"/><path d="M246.21,191.47l-.56.53Z" transform="translate(-74.25 -119.28)" style="fill:#4373af"/><path d="M371.68,245.23a72.54,72.54,0,0,1,4.2-6.39c2.43-3,4.83-3.64,7.49-2.54,3.57,1.48,5.26,4,5.16,7.72,0,.64-.1,1.27-.2,2.67-.95-4.28-1.61-8.06-6-8.94-2.61-.52-4.46,1-5.86,3l6.7,1,.06,1.57c-4.72-2.62-7.68,1.06-11.09,3.13Z" transform="translate(-74.25 -119.28)" style="fill:#9f5e42"/><path d="M349.4,209.28a3.85,3.85,0,0,1-.48,0l.59-.53A.71.71,0,0,1,349.4,209.28Z" transform="translate(-74.25 -119.28)" style="fill:#2d170e"/><path d="M361.83,249.22c0,.08.12.16.11.23s-.09.13-.15.2C361.81,249.51,361.82,249.37,361.83,249.22Z" transform="translate(-74.25 -119.28)" style="fill:#361c0e"/><path d="M333.57,331.68l.53-.76Z" transform="translate(-74.25 -119.28)" style="fill:#2e5c8b"/><path d="M289.83,365.3l-.24-.15.28.11Z" transform="translate(-74.25 -119.28)" style="fill:#2e5c8b"/><path d="M264.63,246.59l2.53.83c-2,1.21-.06,2.7-.28,4a10.46,10.46,0,0,0-7.63,8.93c-.64,3.82.68,7.2,2.54,10.43-1-.31-2.26-.32-2.8-1-3.88-4.59-7.08-9.61-6.14-15.95.54-3.67,2.62-6.49,6.62-7.29C261.19,246.82,262.91,248.64,264.63,246.59Z" transform="translate(-74.25 -119.28)" style="fill:#f9f9f9"/><path d="M264.07,265.32c0-1.12.05-2.24.07-3.35,3.21.26,4-.63,3.31-4,2.31-1.89,6.05-.4,7.2,3a33.19,33.19,0,0,1,.89,4.71l-3.49-.22v3.4C268,270,266.49,269.28,264.07,265.32Z" transform="translate(-74.25 -119.28)" style="fill:#2d170e"/><path d="M261.79,270.81c-1.86-3.23-3.18-6.61-2.54-10.43a10.46,10.46,0,0,1,7.63-8.93l5.21.83.5,1.28c-.8,0-1.48,0-2.16-.12-6.1-.9-10.57,4.33-9.26,10.55.48,2.28.34,4.68,3.16,5.53l3.14,2,3.48.07,2.31-1.74,1.94-1.49,2.25-3.79c1.35,1.49,1.25,4.66-.42,5.74-2.89,1.85-5.64,3.81-9.55,3.36C265,273.38,262.92,273.33,261.79,270.81Z" transform="translate(-74.25 -119.28)" style="fill:#452410"/><path d="M273.26,269.85,271,271.58l-3.48-.06-3.14-2c-.15-1.4-2.61-2.65-.26-4.2,2.42,4,3.94,4.64,8,3.61Z" transform="translate(-74.25 -119.28)" style="fill:#a9a8a8"/><path d="M267.45,258c.65,3.32-.1,4.21-3.31,4-1.23-1.4-1.94-2.88-.33-4.43C265.15,256.26,266.37,256.88,267.45,258Z" transform="translate(-74.25 -119.28)" style="fill:#e2e3e5"/><path d="M272.09,252.28l-5.21-.83c.22-1.33-1.7-2.82.28-4C269.3,248.53,271.77,249.32,272.09,252.28Z" transform="translate(-74.25 -119.28)" style="fill:#e2e3e5"/><path d="M273.26,269.85l-1.21-.92v-3.4l3.49.22c-.12.87-.23,1.74-.34,2.61Z" transform="translate(-74.25 -119.28)" style="fill:#e2e3e5"/><path d="M264.63,246.59c-1.72,2-3.44.23-5.16,0Z" transform="translate(-74.25 -119.28)" style="fill:#e2e3e5"/><path d="M342.46,268.13c2-2.11,5.27-1.9,7.45.41,1.38,1.45,1,5.71-.7,7.09-4.93,4-10.37,4.94-16.15,2.17a4.21,4.21,0,0,1-1.83-3c-.16-1.75-1.55-4,1.16-5.2,1.8-.83,3.51-1.86,5.31-2.71S341.36,265.88,342.46,268.13Z" transform="translate(-74.25 -119.28)" style="fill:#f8af8e"/><path d="M321.84,249.32l-.41.15a27.64,27.64,0,0,0-1.76,2.46c-.82,1.43-1.53,2.93-2.28,4.39-.28-8.73,2.43-16.12,10-21,5.71-3.7,12.09-1.4,14.57,5-.55-.11-1.24-.05-1.62-.37-3.18-2.65-6.79-2-10.28-1.16-.95.22-1.59,1.77-2.36,2.71C324.74,243.33,322.24,245.55,321.84,249.32Z" transform="translate(-74.25 -119.28)" style="fill:#e2e3e5"/><path d="M326,254.47c0-1.06.08-2.13.11-3.19,1.09-.18,3.08-.29,3.1-.56a17.8,17.8,0,0,0-.51-4.12l.74-.09,1.69-.46,1.73.08.5.39c2.69,1.77,3.46,4.55,3.93,7.48l-1.58.64c-3.21.13-1.71,2.41-1.81,4C330.34,259,327.27,258.45,326,254.47Z" transform="translate(-74.25 -119.28)" style="fill:#2d170e"/><path d="M327.7,241.45c.77-.94,1.41-2.49,2.36-2.71,3.49-.82,7.1-1.49,10.28,1.16.38.32,1.07.26,1.62.37.25.7.49,1.4.74,2.09l.45,1.91c-.15,3.59-.18,7.19-.55,10.76-.1.89-1.33,1.67-2,2.5,1.85-4.63,1.36-9-1.83-12.84C335.82,241.15,332.06,240.18,327.7,241.45Z" transform="translate(-74.25 -119.28)" style="fill:#f9f9f9"/><path d="M327.7,241.45c4.36-1.27,8.12-.3,11,3.24,3.19,3.88,3.68,8.21,1.83,12.84l-2.86-1.21-2-1.68,1.58-.64,2.16,1.75c1.92-5.16-2.42-12.64-7.2-13.11a11.23,11.23,0,0,0-4.14.64c-.59.18-1.49,1.09-1.4,1.46.16.64,1,1.13,1.51,1.68l-2.67.82-3.4,2.68-.31-.6C322.24,245.55,324.74,243.33,327.7,241.45Z" transform="translate(-74.25 -119.28)" style="fill:#452410"/><path d="M317.39,256.32c.75-1.46,1.46-3,2.28-4.39a27.64,27.64,0,0,1,1.76-2.46c-.55,5.59,1.18,10.12,6.28,13.09l-.16.75c-2.82,0-5.66.09-8.48-.1-.45,0-.82-1.36-1.23-2.09-.06-.25-.12-.51-.19-.77C317.57,259,317.48,257.67,317.39,256.32Z" transform="translate(-74.25 -119.28)" style="fill:#f9f9f9"/><path d="M326,254.47c1.27,4,4.34,4.53,7.9,4.13l2,.24c-1.62,2.65-4.33,2.48-6.58,1.79-1.51-.46-2.73-2.27-3.78-3.69C325.21,256.48,325.82,255.31,326,254.47Z" transform="translate(-74.25 -119.28)" style="fill:#a9a8a8"/><path d="M325.55,247.24l2.67-.82.2.19h.28a17.8,17.8,0,0,1,.51,4.12c0,.27-2,.38-3.1.56C325.93,249.94,325.74,248.59,325.55,247.24Z" transform="translate(-74.25 -119.28)" style="fill:#e2e3e5"/><path d="M335.91,258.84l-2-.24c.1-1.55-1.4-3.83,1.81-4l2,1.68Z" transform="translate(-74.25 -119.28)" style="fill:#e2e3e5"/><path d="M343.15,244.27l-.45-1.91Z" transform="translate(-74.25 -119.28)" style="fill:#e2e3e5"/><path d="M317.65,260.35c.07.26.13.52.19.77C317.78,260.87,317.72,260.61,317.65,260.35Z" transform="translate(-74.25 -119.28)" style="fill:#e2e3e5"/><path d="M277.81,287.75c0,3.51-1.89,5.5-6,6.81-5.93,1.87-10.88.09-14.73-5-1.27-1.68-.92-2.86.16-4.31,2.45-3.33,12.92-5.78,16.76-2.37C275.76,284.46,278.82,284.72,277.81,287.75Z" transform="translate(-74.25 -119.28)" style="fill:#f8af8e"/><path d="M321.43,290.76c0,.37-.05.74-.08,1.1-2.12-.29-3.14.44-2.86,2.76.2,1.63.11,3.28.15,4.93l-2.29,4.31-.08-.06-.54-.5c-2.75-2.28-5.43-1.37-8.14.15-1,.57-2.49,1.6-3.18,1.26-3.65-1.83-6.16.17-8.77,2.11-1.48-2.26-3-4.52-4.38-6.81a8,8,0,0,1,.94-.73,30.6,30.6,0,0,0,21.51-4.34c2-1.19,3.23-3.49,4.82-5.28l.57-.09Z" transform="translate(-74.25 -119.28)" style="fill:#3b101e"/><path d="M295.64,306.82c2.61-1.94,5.12-3.94,8.77-2.11.69.34,2.16-.69,3.18-1.26,2.71-1.52,5.39-2.43,8.14-.15l.54.5.08.06c-.32,4.45-6.43,8.19-10.86,8.54a26.11,26.11,0,0,1-8.32-.95c-1.1-.28-1.86-1.91-2.77-2.92Z" transform="translate(-74.25 -119.28)" style="fill:#f16562"/><path d="M318.53,289.66c-1.59,1.79-2.86,4.09-4.82,5.28a30.59,30.59,0,0,1-21.5,4.34l-2.58-2.16a7.12,7.12,0,0,1,1.83-.56A58.72,58.72,0,0,0,317.17,290,6.17,6.17,0,0,1,318.53,289.66Z" transform="translate(-74.25 -119.28)" style="fill:#e2e3e5"/><path d="M289.63,297.12l2.58,2.16a7.57,7.57,0,0,0-.95.73c1.42,2.29,2.9,4.55,4.38,6.81l-1.24,1.71c-1-1.32-2.15-2.59-3.1-4s-1.58-2.82-2.46-4.17a20.11,20.11,0,0,1-2.44-4.17Z" transform="translate(-74.25 -119.28)" style="fill:#452410"/><path d="M318.64,299.55c0-1.65.05-3.3-.15-4.93-.28-2.32.74-3.05,2.86-2.76C320.45,294.43,319.54,297,318.64,299.55Z" transform="translate(-74.25 -119.28)" style="fill:#452410"/><path d="M321.43,290.76l-2.33-1.19,3.36-2.37.15.15Z" transform="translate(-74.25 -119.28)" style="fill:#452410"/><path d="M322.46,287.19l.36-.21-.21.37Z" transform="translate(-74.25 -119.28)" style="fill:#452410"/><path d="M297.9,271.27c3.68,5.19,2,7.94-1.17,10.28-1.7,1.26-4.63.85-7,1.2-2.36-2.26-3.07-5-2-7.62a6.86,6.86,0,0,1,6.8-4.16C295.64,271,296.77,271.16,297.9,271.27Z" transform="translate(-74.25 -119.28)" style="fill:#facea4"/><path d="M234.81,183.49l.13-.23-.14.23Z" transform="translate(-74.25 -119.28)" style="fill:#61331c"/><path d="M267.47,271.52l3.48.06Z" transform="translate(-74.25 -119.28)" style="fill:#61331c"/><path d="M328.7,246.6h-.28l-.2-.19c-.54-.55-1.35-1-1.51-1.68-.09-.37.81-1.28,1.4-1.46a11.23,11.23,0,0,1,4.14-.64c4.78.47,9.12,8,7.2,13.11L337.29,254c-.47-2.93-1.24-5.71-3.93-7.48l-.5-.39-1.73-.08-1.69.46Z" transform="translate(-74.25 -119.28)" style="fill:#61331c"/><path d="M329.44,246.51l1.69-.46Z" transform="translate(-74.25 -119.28)" style="fill:#452410"/><path d="M332.86,246.13l.5.39Z" transform="translate(-74.25 -119.28)" style="fill:#452410"/><path d="M316.27,303.8l-.54-.5Z" transform="translate(-74.25 -119.28)" style="fill:#9f5e42"/></svg>